<svg data-name="Layer 1" xmlns="http://www.w3.org/2000/svg" viewBox="0 0 875.56 953.55"><path d="M5.6 14.08l-1.72-1.74a2.27 2.27 0 0 0-3.22 3.19l4.91 5zm.06-11.67L3.97.67A2.274 2.274 0 0 0 .71 3.84l4.92 5zm2.35 2.38H8h.01zm3.31 52.35l.12-.08a1.45 1.45 0 0 0 .22-.21.94.94 0 0 0 .1-.1 2.49 2.49 0 0 0 .17-.24l.08-.13a.35.35 0 0 0 0-.08l6.78-13.46v-.07a1.17 1.17 0 0 0 .05-.11v-.09a.56.56 0 0 0 0-.12v-.43a.49.49 0 0 1 0-.12v-.27a.49.49 0 0 0 0-.12v-.23a1 1 0 0 0 0-.16v-.28s0-.1-.08-.16a.57.57 0 0 0-.08-.13.18.18 0 0 0 0-.07l-.08-.1-.06-.08a.6.6 0 0 1-.08-.08l-.08-.07-.09-.08-.08-.06-.1-.07-.14-.1-.11-.07H12.5l-.06-16.93 7.33-7.25a2.27 2.27 0 0 0-3.19-3.22l-4.11 4.1V11.2l7.32-7.25A2.27 2.27 0 0 0 16.6.73l-6.38 6.32L7.97 9.3l-.14 30.17h-4.5a3 3 0 0 0-.42.06h-.23l-.12.05h-.15a.31.31 0 0 0-.1.05l-.1.06-.08.06-.1.07-.07.06-.09.09-.07.07-.07.08-.07.09-.06.08-.07.11a.21.21 0 0 0 0 .06 1 1 0 0 0-.07.15 1.11 1.11 0 0 0-.07.16 1 1 0 0 0-.05.16v.15a.22.22 0 0 0 0 .08v.34a.49.49 0 0 0 0 .12.34.34 0 0 0 0 .1v.12a.36.36 0 0 1 0 .1v.11a.49.49 0 0 0 0 .11v.1a.54.54 0 0 0 0 .11.36.36 0 0 0 0 .07l6.63 13.84v.08l.09.14a1.88 1.88 0 0 0 .16.23l.1.11.22.21.11.08.26.16h.11l.25.09h1.28a2.67 2.67 0 0 0 .26-.09h.1zm108.29-43.06l-1.73-1.74a2.263 2.263 0 1 0-3.21 3.19l4.91 5zm.05-11.67L117.97.67a2.27 2.27 0 0 0-3.25 3.17l4.91 5zm2.36 2.38h-.01.01zm3.31 52.35l.12-.08a1.45 1.45 0 0 0 .22-.21l.1-.1a1.43 1.43 0 0 0 .16-.24l.09-.13a.35.35 0 0 1 0-.08l6.78-13.46v-.18a.36.36 0 0 0 0-.09v-.12a.36.36 0 0 0 0-.1v-.11a.5.5 0 0 1 0-.12.34.34 0 0 1 0-.1v-.24c0-.06 0 0 0 0v-.46s0-.11-.05-.16 0-.11-.07-.17l-.08-.16-.08-.13v-.07l-.08-.1-.06-.08-.09-.08a.46.46 0 0 0-.07-.07l-.09-.08-.08-.06-.1-.07.02-.25-.12-.07h-5.36l-.04-16.93 7.32-7.25a2.27 2.27 0 1 0-3.19-3.22l-4.1 4.07v-5.27l7.33-7.25A2.27 2.27 0 0 0 130.62.7l-6.38 6.32-2.27 2.28-.13 30.17h-4.5l-.43.06h-.22l-.12.05h-.16l-.09.05-.1.06-.08.06-.1.07-.07.06-.09.09a.46.46 0 0 0-.07.07.27.27 0 0 0-.07.08l-.08.09a.35.35 0 0 1-.05.08 1 1 0 0 0-.08.11v.06l-.08.15-.06.16v.16a.77.77 0 0 0 0 .15v.08a.49.49 0 0 1 0 .12v.84a.42.42 0 0 0 0 .1v.18l6.58 13.88a.56.56 0 0 0 .05.08 1 1 0 0 1 .08.14c.06.08.11.16.17.23l.1.11.21.21.12.08a2.26 2.26 0 0 0 .26.16h.1a2.67 2.67 0 0 0 .26.09h1.28a2.67 2.67 0 0 0 .26-.09h.1a2.26 2.26 0 0 0 .37-.15zm108.29-43.06l-1.73-1.74a2.27 2.27 0 0 0-3.22 3.19l4.92 5zm.05-11.67l-1.7-1.74a2.266 2.266 0 1 0-3.24 3.17l4.91 5zm2.36 2.38h-.01.01zm3.31 52.35l.12-.08a2.08 2.08 0 0 0 .21-.21.47.47 0 0 0 .1-.1 1.46 1.46 0 0 0 .17-.24.57.57 0 0 0 .08-.13l.06-.08 6.73-13.46v-.07a.37.37 0 0 0 .05-.11v-.31a.43.43 0 0 0 0-.11.5.5 0 0 0 0-.12.34.34 0 0 0 0-.1.49.49 0 0 0 0-.12v-.22a.49.49 0 0 1 0-.12.22.22 0 0 1 0-.08v-.15s0-.11-.05-.16 0-.11-.07-.17a.8.8 0 0 1-.08-.16l-.09-.13a.43.43 0 0 0 0-.07l-.08-.1-.07-.08-.08-.08a.46.46 0 0 0-.07-.07l-.09-.08-.08-.06-.1-.07-.03-.26-.12-.07h-5.37l-.02-16.93 7.32-7.25a2.27 2.27 0 0 0-3.19-3.22l-4.1 4.07v-5.27l7.32-7.25A2.263 2.263 0 1 0 244.63.7l-6.38 6.32-2.28 2.28-.14 30.17h-4.46a3.18 3.18 0 0 0-.43.06h-.22l-.13.05h-.15l-.09.05-.1.06-.08.06-.1.07-.07.06-.09.09a.23.23 0 0 0-.07.07.6.6 0 0 0-.08.08l-.07.09a.35.35 0 0 0-.05.08.44.44 0 0 0-.08.11v.06a1.09 1.09 0 0 0-.08.15l-.06.16s0 .11-.05.16v.79a.5.5 0 0 0 0 .12.36.36 0 0 0 0 .1v.22a.42.42 0 0 0 0 .1.49.49 0 0 0 0 .11v.07l6.6 13.84a.22.22 0 0 0 0 .08 1 1 0 0 0 .08.14 2 2 0 0 0 .17.23l.09.11.22.21.12.08.25.16h.15a2.67 2.67 0 0 0 .26.09h1.27a2 2 0 0 0 .26-.09h.15a2.26 2.26 0 0 0 .35-.15zm108.28-43.06l-1.72-1.74a2.27 2.27 0 0 0-3.22 3.19l4.92 5zm.06-11.67L345.97.67a2.27 2.27 0 0 0-3.24 3.17l4.92 5zm2.35 2.38zm3.32 52.35l.11-.08a1.45 1.45 0 0 0 .22-.21l.1-.1a1.46 1.46 0 0 0 .17-.24.57.57 0 0 0 .08-.13.35.35 0 0 0 .05-.08l6.73-13.46v-.07a1.17 1.17 0 0 0 .05-.11v-.09a.56.56 0 0 0 0-.12v-.71a.45.45 0 0 0 0-.11.49.49 0 0 0 0-.12.22.22 0 0 0 0-.08v-.31l-.06-.17-.08-.16-.09-.13a.43.43 0 0 0 0-.07l-.09-.1-.06-.08a.6.6 0 0 1-.08-.08l-.08-.07-.08-.08-.08-.06-.11-.07-.08-.21-.11-.07h-5.37l-.02-16.93 7.32-7.25a2.27 2.27 0 0 0-3.19-3.22l-4.11 4.07v-5.27l7.32-7.25A2.27 2.27 0 1 0 358.62.7l-6.38 6.32-2.27 2.28-.14 30.17h-4.49a3 3 0 0 0-.43.06h-.22l-.13.05h-.15l-.1.05-.1.06-.08.06-.1.07-.07.06-.09.09-.07.07-.07.08-.07.09-.06.08-.07.11v.06l-.07.15a1.11 1.11 0 0 0-.07.16s0 .11-.05.16v.23a.49.49 0 0 0 0 .12.41.41 0 0 0 0 .11v.11a.49.49 0 0 0 0 .12.34.34 0 0 0 0 .1v.22a.43.43 0 0 0 0 .11.49.49 0 0 0 0 .11v.1l.05.11v.07l6.58 13.84.06.08a1 1 0 0 0 .08.14 1.88 1.88 0 0 0 .16.23l.1.11.22.21.11.08.26.16h.15a2 2 0 0 0 .26.09h1.27a2.67 2.67 0 0 0 .26-.09h.15zm108.28-43.06l-1.73-1.74a2.263 2.263 0 1 0-3.21 3.19l4.91 5zm.05-11.67L459.97.67a2.27 2.27 0 0 0-3.23 3.17l4.92 5zm2.36 2.38h-.01.01zm3.31 52.35l.12-.08a1.45 1.45 0 0 0 .22-.21l.1-.1a2.49 2.49 0 0 0 .17-.24l.08-.13v-.08l6.78-13.46v-.07a1.17 1.17 0 0 0 0-.11v-.31a.43.43 0 0 1 0-.11v-.4a.13.13 0 0 0 0-.06v-.11a.49.49 0 0 0 0-.12v-.23a1 1 0 0 0 0-.16l.05-.32s0-.1-.08-.16a.57.57 0 0 0-.08-.13l-.05-.07-.08-.1-.06-.08-.08-.08-.08-.07-.09-.08-.08-.06-.1-.07-.12-.1-.12-.07h-5.36l-.02-16.93 7.32-7.25a2.263 2.263 0 1 0-3.18-3.22l-4.11 4.07v-5.27l7.32-7.25A2.27 2.27 0 0 0 472.63.7l-6.38 6.32-2.28 2.28-.13 30.17h-4.5l-.43.06h-.23l-.12.05h-.16l-.09.05-.1.06-.08.06-.1.07-.07.06-.09.09a.46.46 0 0 0-.07.07l-.07.08-.07.09-.06.08a1 1 0 0 0-.08.11v.06a1 1 0 0 0-.07.15 1.11 1.11 0 0 0-.07.16 1 1 0 0 0-.05.16.8.8 0 0 0 0 .15.22.22 0 0 0 0 .08v.46a.34.34 0 0 1 0 .1v.12a.36.36 0 0 1 0 .1v.22a.42.42 0 0 1 0 .1v.18l6.61 13.57.05.08.09.14a1.88 1.88 0 0 0 .16.23l.1.11.21.21.12.08a2.26 2.26 0 0 0 .26.16h.11a1.84 1.84 0 0 0 .25.09h1.28a2.67 2.67 0 0 0 .26-.09h.1zm108.29-43.06l-1.73-1.74a2.27 2.27 0 0 0-3.22 3.19l4.92 5zm.05-11.67L573.97.67a2.26 2.26 0 0 0-3.22 3.17l4.91 5zm2.36 2.38h-.01.01zm3.31 52.35l.12-.08a1.45 1.45 0 0 0 .22-.21l.09-.1a1 1 0 0 0 .17-.24l.09-.13a.35.35 0 0 1 0-.08l6.78-13.46v-.18a.36.36 0 0 0 0-.09.56.56 0 0 1 0-.12v-.67c0-.06 0 0 0 0v-.62s0-.11-.07-.17l-.08-.16-.08-.13-.05-.07-.08-.1-.07-.08-.08-.08a.46.46 0 0 0-.07-.07l-.09-.08-.08-.06-.1-.07-.01-.25-.12-.07h-5.37V22.84l7.32-7.25a2.27 2.27 0 1 0-3.19-3.22l-4.1 4.07v-5.27l7.33-7.25A2.27 2.27 0 0 0 586.65.7l-6.38 6.32L578 9.27l-.13 30.17h-4.5a3.18 3.18 0 0 0-.43.06h-.22l-.12.05h-.16l-.09.05-.1.06-.08.06-.1.07-.07.06-.09.09a.23.23 0 0 0-.07.07.27.27 0 0 0-.07.08l-.08.09v.08a1 1 0 0 0-.08.11v.06l-.08.15-.06.16v.31a.22.22 0 0 1 0 .08v.64a.36.36 0 0 0 0 .1v.22a.42.42 0 0 0 0 .1v.18l6.61 13.57a.22.22 0 0 0 .05.08 1 1 0 0 0 .08.14 2 2 0 0 0 .17.23l.1.11.21.21.12.08.25.16h.15a2.67 2.67 0 0 0 .26.09h1.28l.25-.09h.11a2.26 2.26 0 0 0 .25.19zm108.29-43.06l-1.68-1.74a2.27 2.27 0 0 0-3.22 3.19l4.92 5zm.05-11.67L687.97.67a2.27 2.27 0 0 0-3.22 3.17l4.92 5zm2.35 2.38z"/><path d="M695.37 57.14l.11-.08a1.45 1.45 0 0 0 .22-.21l.1-.1a1.46 1.46 0 0 0 .17-.24.57.57 0 0 0 .08-.13.35.35 0 0 0 0-.08l6.78-13.46v-.07a.37.37 0 0 0 .05-.11v-.31a.43.43 0 0 0 0-.11.5.5 0 0 0 0-.12.34.34 0 0 0 0-.1.49.49 0 0 0 0-.12v-.22a.49.49 0 0 1 0-.12v-.08a.77.77 0 0 0 0-.15.94.94 0 0 0 0-.16s-.05-.11-.07-.17 0-.1-.07-.16l-.09-.13a.43.43 0 0 0 0-.07l-.08-.1-.07-.08-.08-.08a.27.27 0 0 0-.08-.07.6.6 0 0 0-.08-.08l-.08-.06-.1-.07-.11-.26-.12-.07h-5.37l.01-16.93 7.32-7.25a2.27 2.27 0 0 0-3.19-3.22l-4.1 4.07v-5.27l7.32-7.25A2.27 2.27 0 1 0 700.65.7l-6.38 6.32-2.26 2.25-.14 30.17h-4.49a3 3 0 0 0-.43.06h-.22l-.13.05h-.15l-.09.05-.1.06-.09.06-.09.07-.08.06-.08.09a.23.23 0 0 0-.07.07.6.6 0 0 0-.08.08l-.07.09a.35.35 0 0 0-.05.08.44.44 0 0 0-.08.11v.06a1.09 1.09 0 0 0-.08.15l-.07.16s0 .11-.05.16v.23a.49.49 0 0 0 0 .12v.34a.34.34 0 0 0 0 .1.5.5 0 0 0 0 .12.36.36 0 0 0 0 .1v.5l6.61 13.57a.22.22 0 0 0 0 .08 1 1 0 0 0 .08.14 1.88 1.88 0 0 0 .16.23l.1.11.22.21.12.08.25.16h.15a2 2 0 0 0 .26.09h1.27a2 2 0 0 0 .26-.09h.1zm108.28-43.06l-1.68-1.74a2.27 2.27 0 0 0-3.22 3.19l4.91 5zm.06-11.67L801.97.67a2.27 2.27 0 0 0-3.21 3.17l4.92 5zm2.35 2.38h-.01.01z"/><path d="M809.38 57.14l.11-.08a1.45 1.45 0 0 0 .22-.21l.1-.1a2.49 2.49 0 0 0 .17-.24l.08-.13a.35.35 0 0 0 0-.08l6.78-13.46v-.07a1.17 1.17 0 0 0 .05-.11v-.09a.56.56 0 0 0 0-.12v-.71a.45.45 0 0 0 0-.11.49.49 0 0 0 0-.12.22.22 0 0 0 0-.08.8.8 0 0 0 0-.15 1 1 0 0 0 0-.16l-.06-.17-.08-.16a.57.57 0 0 0-.08-.13.18.18 0 0 0-.05-.07l-.08-.1-.06-.08a.6.6 0 0 1-.08-.08l-.08-.07-.09-.08-.08-.06-.1-.07-.08-.21-.11-.07h-5.37V22.84l7.33-7.25a2.27 2.27 0 0 0-3.19-3.22l-4.11 4.07v-5.27l7.32-7.25A2.27 2.27 0 0 0 814.65.7l-6.38 6.32-2.26 2.25-.14 30.17h-4.49a3 3 0 0 0-.43.06h-.22l-.13.05h-.15a.31.31 0 0 0-.1.05l-.1.06-.08.06-.1.07-.07.06-.09.09-.07.07-.07.08-.07.09-.06.08-.07.11a.21.21 0 0 0 0 .06l-.07.15a1.11 1.11 0 0 0-.07.16 1 1 0 0 0-.05.16v.15a.22.22 0 0 0 0 .08.49.49 0 0 0 0 .12.41.41 0 0 0 0 .11v.11a.49.49 0 0 0 0 .12.34.34 0 0 0 0 .1v.12a.36.36 0 0 1 0 .1v.11a.49.49 0 0 0 0 .11v.1l.05.11a.36.36 0 0 0 0 .07l6.6 13.57v.08l.09.14a1.88 1.88 0 0 0 .16.23l.1.11.22.21.11.08.26.16h.11l.25.09h1.28a2.67 2.67 0 0 0 .26-.09h.1zM62.63 126.08l-1.73-1.74a2.27 2.27 0 0 0-3.22 3.19l4.92 5zm.05-11.67l-1.71-1.74a2.263 2.263 0 0 0-3.21 3.19l4.91 5zm2.36 2.38h-.01v.01l.01-.01zm3.31 52.35l.12-.08.21-.21.1-.1a1 1 0 0 0 .17-.24.57.57 0 0 0 .08-.13l.06-.08 6.73-13.46v-.18a.36.36 0 0 0 0-.09v-.45a.34.34 0 0 0 0-.1.49.49 0 0 0 0-.12v-.34a.22.22 0 0 1 0-.08v-.2s0-.11-.05-.16c0-.05 0-.11-.07-.17l-.08-.16-.08-.13-.05-.07-.08-.1-.07-.08-.08-.08-.07-.07-.09-.08-.08-.06-.1-.07.05-.21-.12-.07h-5.37l-.01-16.93 7.32-7.25a2.27 2.27 0 1 0-3.19-3.22l-4.1 4.07v-5.27l7.32-7.25a2.263 2.263 0 1 0-3.18-3.22l-6.38 6.32-2.29 2.28-.14 30.17h-4.49a3.18 3.18 0 0 0-.43.06l-.16.05h-.34l-.09.05-.1.06-.08.06-.1.07-.07.06-.09.09a.23.23 0 0 0-.07.07l-.08.08-.07.09v.08a1 1 0 0 0-.08.11v.06l-.08.15-.06.16a.94.94 0 0 0 0 .16v.2a.22.22 0 0 1 0 .08v.12a.41.41 0 0 1 0 .11v.11a.49.49 0 0 1 0 .12v.22a.36.36 0 0 0 0 .1v.22a.42.42 0 0 0 0 .1v.18l6.61 13.57a.22.22 0 0 0 0 .08 1 1 0 0 0 .08.14 2 2 0 0 0 .17.23l.1.11.21.21.12.08.25.16h.1a2.67 2.67 0 0 0 .26.09h1.28l.25-.09h.11a2.26 2.26 0 0 0 .37.07zm108.29-43.06l-1.73-1.74a2.27 2.27 0 0 0-3.22 3.19l4.92 5zm.05-11.67l-1.72-1.74a2.27 2.27 0 0 0-3.22 3.19l4.92 5zm2.35 2.38v.01-.01zm3.32 52.35l.11-.08a1.45 1.45 0 0 0 .22-.21l.1-.1a1.46 1.46 0 0 0 .17-.24.57.57 0 0 0 .08-.13.35.35 0 0 0 .05-.08l6.73-13.46v-.07a1.17 1.17 0 0 0 .05-.11.36.36 0 0 1 0-.09v-.22a.43.43 0 0 0 0-.11.5.5 0 0 0 0-.12v-.1a.49.49 0 0 0 0-.12v-.34a.22.22 0 0 0 0-.08.77.77 0 0 0 0-.15v-.21c0-.05-.05-.11-.07-.17 0-.05 0-.1-.08-.16l-.09-.13a.43.43 0 0 0 0-.07l-.08-.1-.07-.08-.08-.08a.27.27 0 0 0-.08-.07l-.08-.08-.08-.06-.11-.07-.08-.21-.12-.07h-5.37l.08-16.62 7.32-7.25a2.27 2.27 0 0 0-3.19-3.22l-4.1 4.07v-5.27l7.32-7.25a2.27 2.27 0 1 0-3.19-3.22l-6.38 6.32-2.26 2.25-.14 30.17h-4.49a3 3 0 0 0-.43.06l-.16.05h-.34l-.09.05-.11.06-.08.06-.09.07-.08.06-.08.09a.23.23 0 0 0-.07.07l-.08.08-.07.09a.35.35 0 0 0-.05.08.44.44 0 0 0-.08.11.21.21 0 0 1 0 .06l-.07.15a1.11 1.11 0 0 0-.07.16s0 .11-.05.16v.28a.49.49 0 0 0 0 .12.41.41 0 0 0 0 .11v.11a.49.49 0 0 0 0 .12.34.34 0 0 0 0 .1v.22a.43.43 0 0 0 0 .11v.39l6.61 13.57a.22.22 0 0 0 .05.08 1 1 0 0 0 .08.14 1.88 1.88 0 0 0 .16.23l.1.11.22.21.11.08.26.16h.15a2 2 0 0 0 .26.09h1.27a2 2 0 0 0 .26-.09h.1zm108.28-43.06l-1.67-1.74a2.27 2.27 0 0 0-3.22 3.19l4.91 5zm.06-11.67l-1.73-1.74a2.27 2.27 0 0 0-3.22 3.19l4.92 5zm2.35 2.38h-.01v.01l.01-.01zm3.31 52.35l.12-.08a1.45 1.45 0 0 0 .22-.21.94.94 0 0 0 .1-.1 2.49 2.49 0 0 0 .17-.24l.08-.13.05-.08 6.73-13.46v-.07a1.17 1.17 0 0 0 .05-.11v-.09a.56.56 0 0 0 0-.12v-.1a.43.43 0 0 1 0-.11v-.22a.49.49 0 0 1 0-.12v-.22a.49.49 0 0 0 0-.12v-.28a1 1 0 0 0 0-.16l-.06-.17c0-.05-.05-.1-.08-.16a.57.57 0 0 0-.08-.13.18.18 0 0 0-.05-.07l-.08-.1-.06-.08-.08-.08-.08-.07-.09-.08-.08-.06-.1-.07-.07-.21-.11-.07h-5.41l.07-16.62 7.33-7.25a2.27 2.27 0 0 0-3.19-3.22l-4.11 4.07v-5.27l7.32-7.25a2.27 2.27 0 0 0-3.19-3.22l-6.38 6.32-2.26 2.25-.14 30.17h-4.5a3 3 0 0 0-.42.06l-.17.05h-.33a.31.31 0 0 0-.1.05l-.1.06-.08.06-.1.07-.07.06-.09.09-.07.07-.07.08-.07.09-.06.08-.07.11v.06a1 1 0 0 0-.07.15 1.11 1.11 0 0 0-.07.16 1 1 0 0 0-.05.16v.2a.22.22 0 0 0 0 .08v.68a.36.36 0 0 1 0 .1v.11a.49.49 0 0 0 0 .11v.1a.54.54 0 0 0 .05.11.36.36 0 0 0 0 .07l6.6 13.57.05.08.09.14a1.88 1.88 0 0 0 .16.23l.1.11.22.21.11.08.26.16h.11l.25.09h1.28a2.67 2.67 0 0 0 .26-.09h.15zm108.29-43.06l-1.68-1.74a2.263 2.263 0 0 0-3.21 3.19l4.91 5zm.05-11.67l-1.73-1.74a2.27 2.27 0 0 0-3.22 3.19l4.91 5zm2.36 2.38h-.01v.01l.01-.01zm3.31 52.35l.12-.08a1.45 1.45 0 0 0 .22-.21l.1-.1a1.43 1.43 0 0 0 .16-.24l.09-.13a.35.35 0 0 1 .05-.08l6.73-13.46v-.18a.36.36 0 0 0 0-.09v-.12a.36.36 0 0 0 0-.1v-.57c0-.06 0 0 0 0v-.51s0-.11-.05-.16c0-.05 0-.11-.07-.17l-.08-.16-.08-.13v-.07l-.08-.1-.06-.08-.09-.08a.46.46 0 0 0-.07-.07l-.09-.08-.08-.06-.1-.07-.02-.2-.12-.07h-5.36l.07-16.62 7.32-7.25a2.27 2.27 0 1 0-3.19-3.22l-4.1 4.07v-5.27l7.33-7.25a2.27 2.27 0 0 0-3.19-3.22l-6.38 6.32-2.27 2.25-.13 30.17h-4.5l-.43.06-.16.05h-.34l-.09.05-.1.06-.08.06-.1.07-.07.06-.09.09-.07.07a.27.27 0 0 0-.07.08l-.08.09a.35.35 0 0 1-.05.08 1 1 0 0 0-.08.11v.06l-.08.15-.06.16v.21a.77.77 0 0 0 0 .15v1.04a.42.42 0 0 0 0 .1v.18l6.61 13.57a.56.56 0 0 0 .05.08 1 1 0 0 1 .08.14c.06.08.11.16.17.23l.1.11.21.21.12.08a2.26 2.26 0 0 0 .26.16h.1a2.67 2.67 0 0 0 .26.09h1.28a2.67 2.67 0 0 0 .26-.09h.1a2.26 2.26 0 0 0 .27-.17zm108.29-43.06l-1.69-1.74a2.27 2.27 0 0 0-3.22 3.19l4.92 5zm.05-11.67l-1.74-1.74a2.26 2.26 0 1 0-3.2 3.17l4.91 5zm2.36 2.38h-.01v.01l.01-.01zm3.31 52.35l.12-.08a2.08 2.08 0 0 0 .21-.21l.1-.1a1.46 1.46 0 0 0 .17-.24.57.57 0 0 0 .08-.13l.06-.08 6.73-13.46v-.07a.37.37 0 0 0 .05-.11v-.31a.43.43 0 0 0 0-.11.5.5 0 0 0 0-.12.34.34 0 0 0 0-.1.49.49 0 0 0 0-.12v-.22a.49.49 0 0 1 0-.12v-.08a.77.77 0 0 0 0-.15v-.21c0-.05 0-.11-.07-.17 0-.05 0-.1-.07-.16l-.09-.13a.43.43 0 0 0 0-.07l-.08-.1-.07-.08-.08-.08-.07-.07-.09-.08-.08-.06-.1-.07-.13-.21-.12-.07h-5.37l.08-16.62 7.32-7.25a2.27 2.27 0 0 0-3.19-3.22l-4.1 4.07v-5.27l7.32-7.25a2.263 2.263 0 1 0-3.18-3.22l-6.38 6.32-2.26 2.25-.14 30.17h-4.49a3.18 3.18 0 0 0-.43.06l-.16.05h-.34l-.09.05-.1.06-.08.06-.1.07-.07.06-.09.09a.23.23 0 0 0-.07.07l-.08.08-.07.09a.35.35 0 0 0-.05.08.44.44 0 0 0-.08.11v.06a1.09 1.09 0 0 0-.08.15l-.06.16s0 .11-.05.16v.84a.5.5 0 0 0 0 .12.36.36 0 0 0 0 .1.43.43 0 0 1 0 .11.49.49 0 0 1 0 .11v.1l.05.11v.07l6.61 13.57a.22.22 0 0 0 0 .08 1 1 0 0 0 .08.14 1.24 1.24 0 0 0 .17.23l.09.11.22.21.12.08.25.16h.15a2.67 2.67 0 0 0 .26.09h1.27a2 2 0 0 0 .26-.09h.1a2.26 2.26 0 0 0 .29-.21zm108.28-43.06l-1.69-1.74a2.27 2.27 0 0 0-3.22 3.19l4.92 5zm.06-11.67l-1.75-1.74a2.27 2.27 0 0 0-3.2 3.17l4.92 5zm2.35 2.38v.01-.01zm3.32 52.35l.11-.08a1.45 1.45 0 0 0 .22-.21.94.94 0 0 0 .1-.1 2.49 2.49 0 0 0 .17-.24.57.57 0 0 0 .08-.13.35.35 0 0 0 0-.08l6.78-13.46v-.07a1.17 1.17 0 0 0 .05-.11v-.09a.56.56 0 0 0 0-.12v-.66a.45.45 0 0 0 0-.11.49.49 0 0 0 0-.12.22.22 0 0 0 0-.08v-.36l-.06-.17c0-.05 0-.1-.08-.16l-.09-.13a.43.43 0 0 0 0-.07l-.09-.1-.06-.08-.08-.08-.08-.07-.08-.08-.09-.06-.1-.07-.12-.21-.11-.07h-5.37l.08-16.62 7.32-7.25a2.27 2.27 0 0 0-3.19-3.22l-4.11 4.07v-5.27l7.32-7.25a2.27 2.27 0 1 0-3.19-3.22l-6.38 6.32-2.26 2.25-.14 30.17h-4.49a3 3 0 0 0-.43.06l-.16.05h-.34l-.1.05-.1.06-.08.06-.1.07-.07.06-.09.09-.07.07-.07.08-.07.09-.06.08-.07.11v.06l-.07.15a1.11 1.11 0 0 0-.07.16v.44a.49.49 0 0 0 0 .12.41.41 0 0 0 0 .11v.11a.49.49 0 0 0 0 .12.34.34 0 0 0 0 .1v.22a.43.43 0 0 0 0 .11.49.49 0 0 0 0 .11v.1l.05.11v.07l6.6 13.57.06.08a1 1 0 0 0 .08.14 1.88 1.88 0 0 0 .16.23l.1.11.22.21.11.08.26.16h.1l.25.09h1.28a2.67 2.67 0 0 0 .26-.09h.1zm108.28-43.06l-1.7-1.74a2.263 2.263 0 0 0-3.21 3.19l4.91 5zm.05-11.67l-1.75-1.74a2.27 2.27 0 0 0-3.22 3.19l4.92 5zm2.36 2.38h-.01v.01l.01-.01zm3.31 52.35l.12-.08a1.45 1.45 0 0 0 .22-.21.94.94 0 0 0 .1-.1 2.49 2.49 0 0 0 .17-.24l.08-.13a.35.35 0 0 1 0-.08l6.78-13.46v-.07l.05-.11v-.31a.43.43 0 0 1 0-.11v-.4a.13.13 0 0 0 0-.06v-.11a.49.49 0 0 0 0-.12v-.28a1 1 0 0 0 0-.16l-.06-.17-.08-.16a.57.57 0 0 0-.08-.13l-.05-.07-.08-.1-.06-.08-.08-.08-.08-.07-.09-.08-.08-.06-.1-.07-.1-.2-.12-.07h-5.36l.07-16.62 7.32-7.25a2.263 2.263 0 1 0-3.18-3.22l-4.11 4.07v-5.27l7.32-7.25a2.27 2.27 0 0 0-3.19-3.22l-6.38 6.32-2.27 2.25-.1 29.89h-4.5l-.43.06-.17.05h-.34l-.09.05-.1.06-.08.06-.1.07-.07.06-.09.09-.07.07-.07.08-.07.09-.06.08a1 1 0 0 0-.08.11v.06a1 1 0 0 0-.07.15 1.11 1.11 0 0 0-.07.16 1 1 0 0 0 0 .16v.05a.8.8 0 0 0 0 .15.22.22 0 0 0 0 .08v.46a.34.34 0 0 1 0 .1v.12a.36.36 0 0 1 0 .1v.22a.42.42 0 0 1 0 .1v.18l6.61 13.57v.08l.09.14a1.88 1.88 0 0 0 .16.23l.1.11.21.21.12.08a2.26 2.26 0 0 0 .26.16h.11a1.84 1.84 0 0 0 .25.09h1.28a2.67 2.67 0 0 0 .26-.09h.1a1.64 1.64 0 0 0 .33.07zm108.29-43.06l-1.71-1.74a2.27 2.27 0 0 0-3.22 3.19l4.92 5zm.05-11.67l-1.76-1.74a2.263 2.263 0 0 0-3.21 3.19l4.91 5zm2.36 2.38h-.01v.01l.01-.01zm3.31 52.35l.12-.08a2.13 2.13 0 0 0 .22-.21l.09-.1a1 1 0 0 0 .17-.24l.09-.13a.35.35 0 0 1 0-.08l6.78-13.46v-.18a.36.36 0 0 0 0-.09.56.56 0 0 1 0-.12v-.67c0-.06 0 0 0 0v-.23a.22.22 0 0 1 0-.08v-.2s0-.11-.05-.16c0-.05 0-.11-.07-.17l-.08-.16-.08-.13v-.07l-.08-.1-.07-.08-.08-.08a.46.46 0 0 0-.07-.07l-.09-.08-.08-.06-.1-.07-.05-.2-.12-.07h-5.37l.08-16.62 7.32-7.25a2.27 2.27 0 1 0-3.19-3.22l-4.1 4.07v-5.27l7.32-7.25a2.263 2.263 0 1 0-3.18-3.22l-6.38 6.32-2.27 2.25-.11 29.89h-4.5a3.18 3.18 0 0 0-.43.06l-.16.05h-.34l-.09.05-.1.06-.08.06-.1.07-.07.06-.09.09a.23.23 0 0 0-.07.07.27.27 0 0 0-.07.08l-.08.09-.05.08a1 1 0 0 0-.08.11v.06l-.08.15-.06.16v.36a.22.22 0 0 1 0 .08v.64a.36.36 0 0 0 0 .1v.22a.42.42 0 0 0 0 .1v.18l6.61 13.57a.22.22 0 0 0 0 .08 1 1 0 0 0 .08.14 2 2 0 0 0 .17.23l.1.11c.07.07.13.14.21.21l.12.08.25.16h.1a2.67 2.67 0 0 0 .26.09h1.28l.25-.09h.11a2.26 2.26 0 0 0 .34.11zM5.6 238.08l-1.72-1.74a2.27 2.27 0 0 0-3.22 3.19l4.91 5zm.06-11.67l-1.69-1.74a2.274 2.274 0 0 0-3.26 3.17l4.92 5zm2.35 2.38H8h.01zm3.31 52.35l.12-.08a1.45 1.45 0 0 0 .22-.21l.1-.1a2.49 2.49 0 0 0 .17-.24l.08-.13a.35.35 0 0 0 0-.08l6.78-13.46v-.07a1.17 1.17 0 0 0 .05-.11v-.09a.56.56 0 0 0 0-.12v-.43a.49.49 0 0 1 0-.12v-.22a.49.49 0 0 0 0-.12v-.28a1 1 0 0 0 0-.16l-.06-.17-.08-.16a.57.57 0 0 0-.08-.13.18.18 0 0 0 0-.07l-.08-.1-.06-.08-.08-.08-.08-.07-.09-.08-.08-.06-.1-.07-.08-.21-.11-.07-.12-.05H12.5l-.06-16.88 7.33-7.25a2.27 2.27 0 0 0-3.19-3.22l-4.11 4.07v-5.27l7.32-7.25a2.27 2.27 0 0 0-3.19-3.22l-6.38 6.32-2.25 2.28-.14 30.17h-4.5a3 3 0 0 0-.42.06l-.17.05h-.06l-.12.05h-.15l-.1.05-.1.06-.08.06-.1.07-.07.06-.09.09-.07.07-.07.08-.07.09-.06.08-.07.11v.06a1 1 0 0 0-.07.15 1.11 1.11 0 0 0-.07.16 1 1 0 0 0-.05.16v.2a.22.22 0 0 0 0 .08v.34a.49.49 0 0 0 0 .12.34.34 0 0 0 0 .1v.12a.36.36 0 0 1 0 .1v.11a.49.49 0 0 0 0 .11v.1a.54.54 0 0 0 0 .11.36.36 0 0 0 0 .07l6.63 13.74v.08l.09.14a1.88 1.88 0 0 0 .16.23l.1.11.22.21.11.08.26.16h.11l.25.09.19.05h1.09a2.67 2.67 0 0 0 .26-.09h.1zm108.29-43.06l-1.73-1.74a2.263 2.263 0 0 0-3.21 3.19l4.91 5zm.05-11.67l-1.69-1.74a2.27 2.27 0 0 0-3.22 3.19l4.91 5zm2.36 2.38h-.01.01zm3.31 52.35l.12-.08a1.45 1.45 0 0 0 .22-.21l.1-.1a1.43 1.43 0 0 0 .16-.24l.09-.13a.35.35 0 0 1 0-.08l6.78-13.46v-.18a.36.36 0 0 0 0-.09v-.12a.36.36 0 0 0 0-.1v-.11a.5.5 0 0 1 0-.12.34.34 0 0 1 0-.1v-.8c0-.05 0-.11-.05-.16 0-.05 0-.11-.07-.17l-.08-.16-.08-.13v-.07l-.08-.1-.06-.08-.09-.08-.07-.07-.09-.08-.08-.06-.1-.07.02-.15-.12-.07-.12-.05h-5.24l.07-16.62 7.32-7.25a2.27 2.27 0 1 0-3.19-3.22l-4.1 4.07v-5.27l7.33-7.25a2.27 2.27 0 0 0-3.19-3.22l-6.38 6.32-2.38 2.02-.13 30.17h-4.5l-.43.06-.16.05h-.06l-.12.05h-.16l-.09.05-.1.06-.08.06-.1.07-.07.06-.09.09-.07.07a.27.27 0 0 0-.07.08l-.08.09a.35.35 0 0 1-.05.08 1 1 0 0 0-.08.11v.06l-.08.15-.06.16v.21a.77.77 0 0 0 0 .15v.08a.49.49 0 0 1 0 .12v.88a.42.42 0 0 0 0 .1v.18l6.58 13.74a.56.56 0 0 0 .05.08 1 1 0 0 1 .08.14c.06.08.11.16.17.23l.1.11.21.21.12.08a2.26 2.26 0 0 0 .26.16h.1a2.67 2.67 0 0 0 .26.09l.19.05h1.09a2.67 2.67 0 0 0 .26-.09h.1a2.26 2.26 0 0 0 .37-.2zm108.29-43.06l-1.73-1.74a2.27 2.27 0 0 0-3.22 3.19l4.92 5zm.05-11.67l-1.7-1.74a2.263 2.263 0 1 0-3.21 3.19l4.91 5zm2.36 2.38h-.01.01zm3.31 52.35l.12-.08.21-.21a.47.47 0 0 0 .1-.1 1.46 1.46 0 0 0 .17-.24.57.57 0 0 0 .08-.13l.06-.08 6.73-13.46v-.07a.37.37 0 0 0 .05-.11v-.31a.43.43 0 0 0 0-.11.5.5 0 0 0 0-.12.34.34 0 0 0 0-.1.49.49 0 0 0 0-.12v-.22a.49.49 0 0 1 0-.12.22.22 0 0 1 0-.08v-.2c0-.05 0-.11-.05-.16 0-.05 0-.11-.07-.17a.8.8 0 0 1-.08-.16l-.09-.13a.43.43 0 0 0 0-.07l-.08-.1-.07-.08-.08-.08-.07-.07-.09-.08-.08-.06-.1-.07-.03-.21-.12-.07-.12-.05h-5.25l.08-16.62 7.32-7.25a2.27 2.27 0 0 0-3.19-3.22l-4.1 4.07v-5.27l7.32-7.25a2.263 2.263 0 1 0-3.18-3.22l-6.38 6.32-2.38 2.02-.14 30.17h-4.46a3.18 3.18 0 0 0-.43.06l-.16.05h-.06l-.13.05h-.15l-.09.05-.1.06-.08.06-.1.07-.07.06-.09.09-.07.07-.08.08-.07.09a.35.35 0 0 0-.05.08.44.44 0 0 0-.08.11v.06a1.09 1.09 0 0 0-.08.15l-.06.16c0 .05 0 .11-.05.16v.84a.5.5 0 0 0 0 .12.36.36 0 0 0 0 .1v.22a.42.42 0 0 0 0 .1.49.49 0 0 0 0 .11v.07l6.6 13.74a.22.22 0 0 0 0 .08 1 1 0 0 0 .08.14 2 2 0 0 0 .17.23l.09.11.22.21.12.08.25.16h.15a2.67 2.67 0 0 0 .26.09l.19.05h1.08a2 2 0 0 0 .26-.09h.15a2.26 2.26 0 0 0 .35-.2zm108.28-43.06l-1.72-1.74a2.27 2.27 0 0 0-3.22 3.19l4.92 5zm.06-11.67l-1.71-1.74a2.27 2.27 0 0 0-3.22 3.19l4.92 5zm2.35 2.38zm3.32 52.35l.11-.08a1.45 1.45 0 0 0 .22-.21l.1-.1a1.46 1.46 0 0 0 .17-.24.57.57 0 0 0 .08-.13.35.35 0 0 0 .05-.08l6.73-13.46v-.07a1.17 1.17 0 0 0 .05-.11v-.09a.56.56 0 0 0 0-.12v-.66a.45.45 0 0 0 0-.11.49.49 0 0 0 0-.12.22.22 0 0 0 0-.08v-.36l-.06-.17c0-.05-.05-.1-.08-.16l-.09-.13a.43.43 0 0 0 0-.07l-.09-.1-.06-.08-.08-.08-.08-.07-.08-.08-.08-.06-.11-.07-.08-.21-.11-.07-.12-.05h-5.25l-.02-16.88 7.32-7.25a2.27 2.27 0 0 0-3.19-3.22l-4.11 4.07v-5.27l7.32-7.25a2.27 2.27 0 1 0-3.19-3.22l-6.38 6.32-2.27 2.28-.14 30.17h-4.49a3 3 0 0 0-.43.06l-.16.05h-.06l-.13.05h-.15l-.1.05-.1.06-.08.06-.1.07-.07.06-.09.09-.07.07-.07.08-.07.09-.06.08-.07.11v.06l-.07.15a1.11 1.11 0 0 0-.07.16c0 .05 0 .11-.05.16v.28a.49.49 0 0 0 0 .12.41.41 0 0 0 0 .11v.11a.49.49 0 0 0 0 .12.34.34 0 0 0 0 .1v.22a.43.43 0 0 0 0 .11.49.49 0 0 0 0 .11v.1l.05.11v.07l6.6 13.57.06.08a1 1 0 0 0 .08.14 1.88 1.88 0 0 0 .16.23l.1.11.22.21.11.08.26.16h.15a2 2 0 0 0 .26.09l.19.05h1.08a2.67 2.67 0 0 0 .26-.09h.15zm108.28-43.06l-1.73-1.74a2.263 2.263 0 1 0-3.21 3.19l4.91 5zm.05-11.67l-1.71-1.74a2.27 2.27 0 0 0-3.22 3.19l4.92 5zm2.36 2.38h-.01.01zm3.31 52.35l.12-.08a1.45 1.45 0 0 0 .22-.21l.1-.1a2.49 2.49 0 0 0 .17-.24l.08-.13v-.08l6.78-13.46v-.07a1.17 1.17 0 0 0 0-.11v-.31a.43.43 0 0 1 0-.11v-.4a.13.13 0 0 0 0-.06v-.16a.49.49 0 0 0 0-.12v-.28a1 1 0 0 0 0-.16l-.06-.17c0-.05 0-.1-.08-.16a.57.57 0 0 0-.08-.13l-.05-.07-.08-.1-.06-.08-.08-.08-.08-.07-.09-.08-.08-.06-.1-.07-.01-.15-.12-.07-.12-.05h-5.24l-.02-16.88 7.32-7.25a2.263 2.263 0 1 0-3.18-3.22l-4.11 4.07v-5.27l7.32-7.25a2.27 2.27 0 0 0-3.19-3.22l-6.38 6.32-2.28 2.28-.13 30.17h-4.5l-.43.06-.17.05h-.06l-.12.05h-.16l-.09.05-.1.06-.08.06-.1.07-.07.06-.09.09-.07.07-.07.08-.07.09-.06.08a1 1 0 0 0-.08.11v.06a1 1 0 0 0-.07.15 1.11 1.11 0 0 0-.07.16 1 1 0 0 0-.05.16v.05a.8.8 0 0 0 0 .15.22.22 0 0 0 0 .08v.46a.34.34 0 0 1 0 .1v.12a.36.36 0 0 1 0 .1v.22a.42.42 0 0 1 0 .1v.18l6.61 13.57.05.08.09.14a1.88 1.88 0 0 0 .16.23l.1.11.21.21.12.08a2.26 2.26 0 0 0 .26.16h.11a1.84 1.84 0 0 0 .25.09l.19.05h1.09a2.67 2.67 0 0 0 .26-.09h.1zm108.29-43.06l-1.73-1.74a2.27 2.27 0 0 0-3.22 3.19l4.92 5zm.05-11.67l-1.72-1.74a2.263 2.263 0 1 0-3.21 3.19l4.91 5zm2.36 2.38h-.01.01zm3.31 52.35l.12-.08a1.45 1.45 0 0 0 .22-.21l.09-.1a1 1 0 0 0 .17-.24l.09-.13a.35.35 0 0 1 0-.08l6.78-13.46v-.18a.36.36 0 0 0 0-.09.56.56 0 0 1 0-.12v-1.39c0-.05 0-.11-.07-.17l-.08-.16-.08-.13-.05-.07-.08-.1-.07-.08-.08-.08-.07-.07-.09-.08-.08-.06-.1-.07-.01-.15-.12-.07-.12-.05h-5.25l.08-16.62 7.32-7.25a2.27 2.27 0 1 0-3.19-3.22l-4.1 4.07v-5.27l7.33-7.25a2.27 2.27 0 0 0-3.19-3.22l-6.38 6.32-2.27 2.25-.13 30.17h-4.5a3.18 3.18 0 0 0-.43.06l-.16.05h-.06l-.12.05h-.16l-.09.05-.1.06-.08.06-.1.07-.07.06-.09.09-.07.07a.27.27 0 0 0-.07.08l-.08.09v.08a1 1 0 0 0-.08.11v.06l-.08.15-.06.16v.36a.22.22 0 0 1 0 .08v.68a.36.36 0 0 0 0 .1v.22a.42.42 0 0 0 0 .1v.18l6.61 13.57a.22.22 0 0 0 .05.08 1 1 0 0 0 .08.14 2 2 0 0 0 .17.23l.1.11.21.21.12.08.25.16h.15a2.67 2.67 0 0 0 .26.09l.19.05h1.09l.25-.09h.11a2.26 2.26 0 0 0 .17-.26zm108.29-43.06l-1.68-1.74a2.27 2.27 0 0 0-3.22 3.19l4.92 5zm.05-11.67l-1.73-1.74a2.27 2.27 0 0 0-3.22 3.19l4.92 5zm2.35 2.38zm3.32 52.35l.11-.08a1.45 1.45 0 0 0 .22-.21l.1-.1a1.46 1.46 0 0 0 .17-.24.57.57 0 0 0 .08-.13.35.35 0 0 0 0-.08l6.78-13.46v-.07a.37.37 0 0 0 .05-.11v-.31a.43.43 0 0 0 0-.11.5.5 0 0 0 0-.12.34.34 0 0 0 0-.1.49.49 0 0 0 0-.12v-.22a.49.49 0 0 1 0-.12v-.08a.77.77 0 0 0 0-.15v-.05a.94.94 0 0 0 0-.16c0-.05-.05-.11-.07-.17 0-.05 0-.1-.07-.16l-.09-.13a.43.43 0 0 0 0-.07l-.08-.1-.07-.08-.08-.08a.27.27 0 0 0-.08-.07l-.08-.08-.08-.06-.1-.07-.11-.21-.12-.07-.12-.05h-5.25l.08-16.62 7.32-7.25a2.27 2.27 0 0 0-3.19-3.22l-4.1 4.07v-5.27l7.32-7.25a2.27 2.27 0 1 0-3.19-3.22l-6.38 6.32-2.26 2.25-.14 30.17h-4.49a3 3 0 0 0-.43.06l-.16.05h-.06l-.13.05h-.15l-.09.05-.1.06-.09.06-.09.07-.08.06-.08.09-.07.07a.6.6 0 0 0-.08.08l-.07.09a.35.35 0 0 0-.05.08.44.44 0 0 0-.08.11v.06a1.09 1.09 0 0 0-.08.15l-.07.16c0 .05 0 .11-.05.16v.28a.49.49 0 0 0 0 .12v.34a.34.34 0 0 0 0 .1.5.5 0 0 0 0 .12.36.36 0 0 0 0 .1v.5l6.61 13.57a.22.22 0 0 0 0 .08 1 1 0 0 0 .08.14 1.88 1.88 0 0 0 .16.23l.1.11.22.21.12.08.25.16h.15a2 2 0 0 0 .26.09l.19.05h1.08a2 2 0 0 0 .26-.09h.1zm108.28-43.06l-1.68-1.74a2.27 2.27 0 0 0-3.22 3.19l4.91 5zm.06-11.67l-1.74-1.74a2.27 2.27 0 0 0-3.22 3.19l4.92 5zm2.35 2.38h-.01.01zm3.32 52.35l.11-.08a1.45 1.45 0 0 0 .22-.21l.1-.1a2.49 2.49 0 0 0 .17-.24l.08-.13a.35.35 0 0 0 0-.08l6.78-13.46v-.07a1.17 1.17 0 0 0 .05-.11v-.09a.56.56 0 0 0 0-.12v-.66a.45.45 0 0 0 0-.11.49.49 0 0 0 0-.12.22.22 0 0 0 0-.08.8.8 0 0 0 0-.15v-.05a1 1 0 0 0 0-.16l-.06-.17-.08-.16a.57.57 0 0 0-.08-.13.18.18 0 0 0-.05-.07l-.08-.1-.06-.08-.08-.08-.08-.07-.09-.08-.08-.06-.1-.07-.08-.21-.11-.07-.12-.05h-5.25l.07-16.62 7.33-7.25a2.27 2.27 0 0 0-3.19-3.22l-4.11 4.07v-5.27l7.32-7.25a2.27 2.27 0 0 0-3.19-3.22l-6.38 6.32-2.26 2.25-.14 30.17h-4.49a3 3 0 0 0-.43.06l-.17.05h-.05l-.13.05h-.15a.31.31 0 0 0-.1.05l-.1.06-.08.06-.1.07-.07.06-.09.09-.07.07-.07.08-.07.09-.06.08-.07.11a.21.21 0 0 0 0 .06l-.07.15a1.11 1.11 0 0 0-.07.16 1 1 0 0 0-.05.16v.2a.22.22 0 0 0 0 .08.49.49 0 0 0 0 .12.41.41 0 0 0 0 .11v.11a.49.49 0 0 0 0 .12.34.34 0 0 0 0 .1v.12a.36.36 0 0 1 0 .1v.11a.49.49 0 0 0 0 .11v.1l.05.11a.36.36 0 0 0 0 .07l6.6 13.57v.08l.09.14a1.88 1.88 0 0 0 .16.23l.1.11.22.21.11.08.26.16h.11l.25.09.19.05h1.09a2.67 2.67 0 0 0 .26-.09h.1zM62.63 350.08l-1.73-1.74a2.27 2.27 0 0 0-3.22 3.19l4.92 5zm.05-11.67l-1.71-1.74a2.263 2.263 0 0 0-3.21 3.19l4.91 5zm2.36 2.38h-.01v.01l.01-.01zm3.31 52.35l.12-.08.21-.21.1-.1a1 1 0 0 0 .17-.24.57.57 0 0 0 .08-.13l.06-.08 6.73-13.46v-.18a.36.36 0 0 0 0-.09v-.45a.34.34 0 0 0 0-.1.49.49 0 0 0 0-.12v-.34a.22.22 0 0 1 0-.08v-.2c0-.05 0-.11-.05-.16 0-.05 0-.11-.07-.17l-.08-.16-.08-.13-.05-.07-.08-.1-.07-.08-.08-.08-.07-.07-.09-.08-.08-.06-.1-.07.05-.21-.12-.07-.12-.05h-5.25l-.01-16.88 7.32-7.25a2.27 2.27 0 1 0-3.19-3.22l-4.1 4.07v-5.27l7.32-7.25a2.263 2.263 0 1 0-3.18-3.22l-6.38 6.32-2.29 2.28-.14 30.17h-4.49a3.18 3.18 0 0 0-.43.06l-.16.05h-.06l-.13.05h-.15l-.09.05-.1.06-.08.06-.1.07-.07.06-.09.09-.07.07-.08.08-.07.09v.08a1 1 0 0 0-.08.11v.06l-.08.15-.06.16a.94.94 0 0 0 0 .16v.2a.22.22 0 0 1 0 .08v.12a.41.41 0 0 1 0 .11v.11a.49.49 0 0 1 0 .12v.22a.36.36 0 0 0 0 .1v.22a.42.42 0 0 0 0 .1v.18l6.61 13.57a.22.22 0 0 0 0 .08 1 1 0 0 0 .08.14 2 2 0 0 0 .17.23l.1.11.21.21.12.08.25.16h.1a2.67 2.67 0 0 0 .26.09l.19.05h1.09l.25-.09h.11a2.26 2.26 0 0 0 .37-.03zm108.29-43.06l-1.73-1.74a2.27 2.27 0 0 0-3.22 3.19l4.92 5zm.05-11.67l-1.72-1.74a2.27 2.27 0 0 0-3.22 3.19l4.92 5zm2.35 2.38v.01-.01zm3.32 52.35l.11-.08a1.45 1.45 0 0 0 .22-.21l.1-.1a1.46 1.46 0 0 0 .17-.24.57.57 0 0 0 .08-.13.35.35 0 0 0 .05-.08l6.73-13.46v-.07a1.17 1.17 0 0 0 .05-.11.36.36 0 0 1 0-.09v-.22a.43.43 0 0 0 0-.11.5.5 0 0 0 0-.12v-.1a.49.49 0 0 0 0-.12v-.34a.22.22 0 0 0 0-.08.77.77 0 0 0 0-.15v-.21c0-.05-.05-.11-.07-.17 0-.05 0-.1-.08-.16l-.09-.13a.43.43 0 0 0 0-.07l-.08-.1-.07-.08-.08-.08a.27.27 0 0 0-.08-.07l-.08-.08-.08-.06-.11-.07-.08-.21-.12-.07-.12-.05h-5.25l.08-16.62 7.32-7.25a2.27 2.27 0 0 0-3.19-3.22l-4.1 4.07v-5.27l7.32-7.25a2.27 2.27 0 1 0-3.19-3.22l-6.38 6.32-2.26 2.25-.14 30.17h-4.49a3 3 0 0 0-.43.06l-.16.05h-.06l-.13.05h-.15l-.09.05-.11.06-.08.06-.09.07-.08.06-.08.09-.07.07-.08.08-.07.09a.35.35 0 0 0-.05.08.44.44 0 0 0-.08.11v.06l-.07.15a1.11 1.11 0 0 0-.07.16c0 .05 0 .11-.05.16v.28a.49.49 0 0 0 0 .12.41.41 0 0 0 0 .11v.11a.49.49 0 0 0 0 .12.34.34 0 0 0 0 .1v.22a.43.43 0 0 0 0 .11v.39l6.61 13.57a.22.22 0 0 0 .05.08 1 1 0 0 0 .08.14 1.88 1.88 0 0 0 .16.23l.1.11.22.21.11.08.26.16h.15a2 2 0 0 0 .26.09l.19.05h1.08a2 2 0 0 0 .26-.09h.1zm108.28-43.06l-1.67-1.74a2.27 2.27 0 0 0-3.22 3.19l4.91 5zm.06-11.67l-1.73-1.74a2.27 2.27 0 0 0-3.22 3.19l4.92 5zm2.35 2.38h-.01v.01l.01-.01zm3.31 52.35l.12-.08a1.45 1.45 0 0 0 .22-.21l.1-.1a2.49 2.49 0 0 0 .17-.24l.08-.13s0-.05.05-.08l6.73-13.46v-.07a1.17 1.17 0 0 0 .05-.11v-.09a.56.56 0 0 0 0-.12v-.1a.43.43 0 0 1 0-.11v-.22a.49.49 0 0 1 0-.12v-.22a.49.49 0 0 0 0-.12v-.28a1 1 0 0 0 0-.16l-.06-.17c0-.05-.05-.1-.08-.16a.57.57 0 0 0-.08-.13.18.18 0 0 0-.05-.07l-.08-.1-.06-.08-.08-.08-.08-.07-.09-.08-.08-.06-.1-.07-.07-.21-.11-.07h-.05l-.12-.05h-5.24l.07-16.62 7.33-7.25a2.27 2.27 0 0 0-3.19-3.22l-4.11 4.07v-5.27l7.32-7.25a2.27 2.27 0 0 0-3.19-3.22l-6.38 6.32-2.26 2.25-.14 30.17h-4.5a3 3 0 0 0-.42.06l-.17.05h-.06l-.12.05h-.15l-.1.05-.1.06-.08.06-.1.07-.07.06-.09.09-.07.07-.07.08-.07.09-.06.08-.07.11v.06a1 1 0 0 0-.07.15 1.11 1.11 0 0 0-.07.16 1 1 0 0 0-.05.16v.2a.22.22 0 0 0 0 .08v.68a.36.36 0 0 1 0 .1v.11a.49.49 0 0 0 0 .11v.1a.54.54 0 0 0 .05.11.36.36 0 0 0 0 .07l6.6 13.57.05.08.09.14a1.88 1.88 0 0 0 .16.23l.1.11.22.21.11.08.26.16h.11l.25.09.19.05h1.09a2.67 2.67 0 0 0 .26-.09h.15zm108.29-43.06l-1.68-1.74a2.263 2.263 0 0 0-3.21 3.19l4.91 5zm.05-11.67l-1.73-1.74a2.27 2.27 0 0 0-3.22 3.19l4.91 5zm2.36 2.38h-.01v.01l.01-.01zm3.31 52.35l.12-.08a1.45 1.45 0 0 0 .22-.21l.1-.1a1.43 1.43 0 0 0 .16-.24l.09-.13a.35.35 0 0 1 .05-.08l6.73-13.46v-.18a.36.36 0 0 0 0-.09v-.12a.36.36 0 0 0 0-.1v-1.13c0-.05 0-.11-.05-.16 0-.05 0-.11-.07-.17l-.08-.16-.08-.13v-.07l-.08-.1-.06-.08-.09-.08-.07-.07-.09-.08-.08-.06-.1-.07-.02-.15-.12-.07-.12-.05h-5.24l.07-16.62 7.32-7.25a2.27 2.27 0 1 0-3.19-3.22l-4.1 4.07v-5.27l7.33-7.25a2.27 2.27 0 0 0-3.19-3.22l-6.38 6.32-2.27 2.25-.13 30.17h-4.5l-.43.06-.16.05h-.06l-.12.05h-.16l-.09.05-.1.06-.08.06-.1.07-.07.06-.09.09-.07.07a.27.27 0 0 0-.07.08l-.08.09a.35.35 0 0 1-.05.08 1 1 0 0 0-.08.11v.06l-.08.15-.06.16v.21a.77.77 0 0 0 0 .15v1.08a.42.42 0 0 0 0 .1v.18l6.61 13.57a.56.56 0 0 0 .05.08 1 1 0 0 1 .08.14c.06.08.11.16.17.23l.1.11.21.21.12.08a2.26 2.26 0 0 0 .26.16h.1a2.67 2.67 0 0 0 .26.09l.19.05h1.09a2.67 2.67 0 0 0 .26-.09h.1a2.26 2.26 0 0 0 .27-.26zm108.29-43.06l-1.69-1.74a2.27 2.27 0 0 0-3.22 3.19l4.92 5zm.05-11.67l-1.74-1.74a2.26 2.26 0 0 0-3.2 3.17l4.91 5zm2.36 2.38h-.01v.01l.01-.01zm3.31 52.35l.12-.08a2.08 2.08 0 0 0 .21-.21l.1-.1a1.46 1.46 0 0 0 .17-.24.57.57 0 0 0 .08-.13l.06-.08 6.73-13.46v-.07a.37.37 0 0 0 .05-.11v-.31a.43.43 0 0 0 0-.11.5.5 0 0 0 0-.12.34.34 0 0 0 0-.1.49.49 0 0 0 0-.12v-.22a.49.49 0 0 1 0-.12v-.08a.77.77 0 0 0 0-.15v-.21c0-.05 0-.11-.07-.17 0-.05 0-.1-.07-.16l-.09-.13a.43.43 0 0 0 0-.07l-.08-.1-.07-.08-.08-.08-.07-.07-.09-.08-.08-.06-.1-.07-.13-.21-.12-.07-.12-.05h-5.25l.08-16.62 7.32-7.25a2.27 2.27 0 0 0-3.19-3.22l-4.1 4.07v-5.27l7.32-7.25a2.263 2.263 0 1 0-3.18-3.22l-6.38 6.32-2.26 2.25-.14 30.17h-4.49a3.18 3.18 0 0 0-.43.06l-.16.05h-.06l-.13.05h-.15l-.09.05-.1.06-.08.06-.1.07-.07.06-.09.09-.07.07-.08.08-.07.09a.35.35 0 0 0-.05.08.44.44 0 0 0-.08.11v.06a1.09 1.09 0 0 0-.08.15l-.06.16c0 .05 0 .11-.05.16v.84a.5.5 0 0 0 0 .12.36.36 0 0 0 0 .1.43.43 0 0 1 0 .11.49.49 0 0 1 0 .11v.1l.05.11v.07l6.61 13.57a.22.22 0 0 0 0 .08 1 1 0 0 0 .08.14 1.24 1.24 0 0 0 .17.23l.09.11.22.21.12.08.25.16h.15a2.67 2.67 0 0 0 .26.09l.19.05h1.08a2 2 0 0 0 .26-.09h.1a2.26 2.26 0 0 0 .29-.26zm108.28-43.06l-1.69-1.74a2.27 2.27 0 0 0-3.22 3.19l4.92 5zm.06-11.67l-1.75-1.74a2.27 2.27 0 0 0-3.2 3.17l4.92 5zm2.35 2.38v.01-.01zm3.32 52.35l.11-.08a1.45 1.45 0 0 0 .22-.21l.1-.1a2.49 2.49 0 0 0 .17-.24.57.57 0 0 0 .08-.13.35.35 0 0 0 0-.08l6.78-13.46v-.07a1.17 1.17 0 0 0 .05-.11v-.09a.56.56 0 0 0 0-.12v-.66a.45.45 0 0 0 0-.11.49.49 0 0 0 0-.12.22.22 0 0 0 0-.08v-.36l-.06-.17-.08-.16-.09-.13a.43.43 0 0 0 0-.07l-.09-.1-.06-.08-.08-.08-.08-.07-.08-.08-.09-.06-.1-.07-.12-.21-.11-.07-.12-.05h-5.25l.08-16.62 7.32-7.25a2.27 2.27 0 0 0-3.19-3.22l-4.11 4.07v-5.27l7.32-7.25a2.27 2.27 0 1 0-3.19-3.22l-6.38 6.32-2.26 2.25-.14 30.17h-4.49a3 3 0 0 0-.43.06l-.16.05h-.06l-.13.05h-.15l-.1.05-.1.06-.08.06-.1.07-.07.06-.09.09-.07.07-.07.08-.07.09-.06.08-.07.11v.06l-.07.15a1.11 1.11 0 0 0-.07.16v.44a.49.49 0 0 0 0 .12.41.41 0 0 0 0 .11v.11a.49.49 0 0 0 0 .12.34.34 0 0 0 0 .1v.22a.43.43 0 0 0 0 .11.49.49 0 0 0 0 .11v.1l.05.11v.07l6.6 13.57.06.08a1 1 0 0 0 .08.14 1.88 1.88 0 0 0 .16.23l.1.11.22.21.11.08.26.16h.1l.25.09.2.05h1.08a2.67 2.67 0 0 0 .26-.09h.1zm108.28-43.06l-1.7-1.74a2.263 2.263 0 0 0-3.21 3.19l4.91 5zm.05-11.67l-1.75-1.74a2.27 2.27 0 0 0-3.22 3.19l4.92 5zm2.36 2.38h-.01v.01l.01-.01zm3.31 52.35l.12-.08a1.45 1.45 0 0 0 .22-.21l.1-.1a2.49 2.49 0 0 0 .17-.24l.08-.13a.35.35 0 0 1 0-.08l6.78-13.46v-.07l.05-.11v-.31a.43.43 0 0 1 0-.11v-.4a.13.13 0 0 0 0-.06v-.16a.49.49 0 0 0 0-.12v-.28a1 1 0 0 0 0-.16l-.06-.17-.08-.16a.57.57 0 0 0-.08-.13l-.05-.07-.08-.1-.06-.08-.08-.08-.08-.07-.09-.08-.08-.06-.1-.07-.1-.15-.12-.07-.12-.05h-5.24l.07-16.62 7.32-7.25a2.263 2.263 0 1 0-3.18-3.22l-4.11 4.07v-5.27l7.32-7.25a2.27 2.27 0 0 0-3.19-3.22l-6.38 6.32-2.27 2.25-.1 29.94h-4.5l-.43.06-.17.05h-.06l-.12.05h-.16l-.09.05-.1.06-.08.06-.1.07-.07.06-.09.09-.07.07-.07.08-.07.09-.06.08a1 1 0 0 0-.08.11v.06a1 1 0 0 0-.07.15 1.11 1.11 0 0 0-.07.16 1 1 0 0 0 0 .16v.05a.8.8 0 0 0 0 .15.22.22 0 0 0 0 .08v.46a.34.34 0 0 1 0 .1v.12a.36.36 0 0 1 0 .1v.22a.42.42 0 0 1 0 .1v.18l6.61 13.57v.08l.09.14a1.88 1.88 0 0 0 .16.23l.1.11.21.21.12.08a2.26 2.26 0 0 0 .26.16h.11a1.84 1.84 0 0 0 .25.09l.19.05h1.09a2.67 2.67 0 0 0 .26-.09h.1a1.64 1.64 0 0 0 .33-.03zm108.29-43.06l-1.71-1.74a2.27 2.27 0 0 0-3.22 3.19l4.92 5zm.05-11.67l-1.76-1.74a2.263 2.263 0 1 0-3.21 3.19l4.91 5zm2.36 2.38h-.01v.01l.01-.01zm3.31 52.35l.12-.08a2.13 2.13 0 0 0 .22-.21l.09-.1a1 1 0 0 0 .17-.24l.09-.13a.35.35 0 0 1 0-.08l6.78-13.46v-.18a.36.36 0 0 0 0-.09.56.56 0 0 1 0-.12v-.95a.22.22 0 0 1 0-.08v-.2c0-.05 0-.11-.05-.16 0-.05 0-.11-.07-.17l-.08-.16-.08-.13v-.07l-.08-.1-.07-.08-.08-.08-.07-.07-.09-.08-.08-.06-.1-.07-.05-.15-.12-.07-.12-.05h-5.25l.08-16.62 7.32-7.25a2.27 2.27 0 1 0-3.19-3.22l-4.1 4.07v-5.27l7.32-7.25a2.263 2.263 0 1 0-3.18-3.22l-6.38 6.32-2.27 2.25-.11 29.94h-4.5a3.18 3.18 0 0 0-.43.06l-.16.05h-.06l-.12.05h-.16l-.09.05-.1.06-.08.06-.1.07-.07.06-.09.09a.23.23 0 0 0-.07.07.27.27 0 0 0-.07.08l-.08.09-.05.08a1 1 0 0 0-.08.11v.06l-.08.15-.06.16v.36a.22.22 0 0 1 0 .08v.64a.36.36 0 0 0 0 .1v.22a.42.42 0 0 0 0 .1v.18l6.61 13.57a.22.22 0 0 0 0 .08 1 1 0 0 0 .08.14 2 2 0 0 0 .17.23l.1.11c.07.07.13.14.21.21l.12.08.25.16h.1a2.67 2.67 0 0 0 .26.09l.19.05h1.09l.25-.09h.11a2.26 2.26 0 0 0 .34.01zM5.6 462.08l-1.72-1.74a2.27 2.27 0 0 0-3.22 3.19l4.91 5zm.06-11.67l-1.69-1.74a2.274 2.274 0 0 0-3.26 3.17l4.92 5zm2.35 2.38H8v.01l.01-.01zm3.31 52.35l.12-.08a1.45 1.45 0 0 0 .22-.21.94.94 0 0 0 .1-.1 2.49 2.49 0 0 0 .17-.24l.08-.13a.35.35 0 0 0 0-.08l6.78-13.46v-.07a1.17 1.17 0 0 0 .05-.11v-.09a.56.56 0 0 0 0-.12v-.43a.49.49 0 0 1 0-.12v-.22a.49.49 0 0 0 0-.12v-.28a1 1 0 0 0 0-.16l-.06-.17-.08-.16a.57.57 0 0 0-.08-.13.18.18 0 0 0 0-.07l-.08-.1-.06-.08-.08-.08-.08-.07-.09-.08-.08-.06-.1-.07-.08-.21-.11-.07H12.5l-.06-16.93 7.33-7.25a2.27 2.27 0 0 0-3.19-3.22l-4.11 4.07v-5.27l7.32-7.25a2.27 2.27 0 0 0-3.19-3.22l-6.38 6.32-2.25 2.28-.14 30.17h-4.5l-.42.06-.17.05h-.43l-.1.06-.08.06-.1.07-.07.06-.09.09-.07.07-.07.08-.07.09-.06.08-.07.11v.06a1 1 0 0 0-.07.15 1.11 1.11 0 0 0-.07.16 1 1 0 0 0-.05.16v.2a.22.22 0 0 0 0 .08v.34a.49.49 0 0 0 0 .12.34.34 0 0 0 0 .1v.12a.36.36 0 0 1 0 .1v.11a.49.49 0 0 0 0 .11v.1a.54.54 0 0 0 0 .11.36.36 0 0 0 0 .07l6.63 13.84v.08l.09.14a1.88 1.88 0 0 0 .16.23l.1.11.22.21.11.08.26.16h.11l.25.09h1.28a2.67 2.67 0 0 0 .26-.09h.1zm108.29-43.06l-1.73-1.74a2.263 2.263 0 0 0-3.21 3.19l4.91 5zm.05-11.67l-1.69-1.74a2.27 2.27 0 0 0-3.22 3.19l4.91 5zm2.36 2.38h-.01v.01l.01-.01zm3.31 52.35l.12-.08a1.45 1.45 0 0 0 .22-.21l.1-.1a1.43 1.43 0 0 0 .16-.24l.09-.13a.35.35 0 0 1 0-.08l6.78-13.46v-.18a.36.36 0 0 0 0-.09v-.12a.36.36 0 0 0 0-.1v-.11a.5.5 0 0 1 0-.12.34.34 0 0 1 0-.1v-.8s0-.11-.05-.16c0-.05 0-.11-.07-.17l-.08-.16-.08-.13v-.07l-.08-.1-.06-.08-.09-.08a.46.46 0 0 0-.07-.07l-.09-.08-.08-.06-.1-.07h-.08l-.12-.07h-5.36l.07-16.62 7.32-7.25a2.27 2.27 0 1 0-3.19-3.22l-4.1 4.07v-5.27l7.33-7.25a2.27 2.27 0 0 0-3.19-3.22l-6.38 6.32-2.28 1.82-.13 30.17h-4.5l-.43.06-.16.05h-.43l-.1.06-.08.06-.1.07-.07.06-.09.09a.46.46 0 0 0-.07.07.27.27 0 0 0-.07.08l-.08.09a.35.35 0 0 1-.05.08 1 1 0 0 0-.08.11v.06l-.08.15-.06.16v.21a.77.77 0 0 0 0 .15v.08a.49.49 0 0 1 0 .12v.88a.42.42 0 0 0 0 .1v.18l6.58 13.84a.56.56 0 0 0 .05.08 1 1 0 0 1 .08.14c.06.08.11.16.17.23l.1.11.21.21.12.08a2.26 2.26 0 0 0 .26.16h.1a2.67 2.67 0 0 0 .26.09h1.28a2.67 2.67 0 0 0 .26-.09h.1a2.26 2.26 0 0 0 .37-.15zm108.29-43.06l-1.73-1.74a2.27 2.27 0 0 0-3.22 3.19l4.92 5zm.05-11.67l-1.7-1.74a2.263 2.263 0 0 0-3.21 3.19l4.91 5zm2.36 2.38h-.01v.01l.01-.01zm3.31 52.35l.12-.08.21-.21.1-.1a1.46 1.46 0 0 0 .17-.24.57.57 0 0 0 .08-.13l.06-.08 6.73-13.46v-.07a.37.37 0 0 0 .05-.11v-.31a.43.43 0 0 0 0-.11.5.5 0 0 0 0-.12.34.34 0 0 0 0-.1.49.49 0 0 0 0-.12v-.22a.49.49 0 0 1 0-.12.22.22 0 0 1 0-.08v-.2s0-.11-.05-.16c0-.05 0-.11-.07-.17a.8.8 0 0 1-.08-.16l-.09-.13a.43.43 0 0 0 0-.07l-.08-.1-.07-.08-.08-.08a.46.46 0 0 0-.07-.07l-.09-.08-.08-.06-.1-.07h-.08l-.12-.07h-5.37l.08-16.62 7.32-7.25a2.27 2.27 0 0 0-3.19-3.22l-4.1 4.07v-5.27l7.32-7.25a2.263 2.263 0 1 0-3.18-3.22l-6.38 6.32-2.33 1.76-.14 30.17h-4.46a3.18 3.18 0 0 0-.43.06l-.16.05h-.43l-.1.06-.08.06-.1.07-.07.06-.09.09a.23.23 0 0 0-.07.07l-.08.08-.07.09a.35.35 0 0 0-.05.08.44.44 0 0 0-.08.11v.06a1.09 1.09 0 0 0-.08.15l-.06.16c0 .05 0 .11-.05.16v.84a.5.5 0 0 0 0 .12.36.36 0 0 0 0 .1v.22a.42.42 0 0 0 0 .1.49.49 0 0 0 0 .11v.07l6.6 13.84a.22.22 0 0 0 0 .08 1 1 0 0 0 .08.14 2 2 0 0 0 .17.23l.09.11.22.21.12.08.25.16h.15a2.67 2.67 0 0 0 .26.09h1.27a2 2 0 0 0 .26-.09h.15a2.26 2.26 0 0 0 .35-.15zm108.28-43.06l-1.72-1.74a2.27 2.27 0 0 0-3.22 3.19l4.92 5zm.06-11.67l-1.71-1.74a2.27 2.27 0 0 0-3.22 3.19l4.92 5zm2.35 2.38v.01-.01zm3.32 52.35l.11-.08a1.45 1.45 0 0 0 .22-.21l.1-.1a1.46 1.46 0 0 0 .17-.24.57.57 0 0 0 .08-.13.35.35 0 0 0 .05-.08l6.73-13.46v-.07a1.17 1.17 0 0 0 .05-.11v-.09a.56.56 0 0 0 0-.12v-.66a.45.45 0 0 0 0-.11.49.49 0 0 0 0-.12.22.22 0 0 0 0-.08v-.36l-.06-.17-.08-.16-.09-.13a.43.43 0 0 0 0-.07l-.09-.1-.06-.08-.08-.08-.08-.07-.08-.08-.08-.06-.11-.07h-.08l-.11-.07h-5.37l-.02-17.14 7.32-7.25a2.27 2.27 0 0 0-3.19-3.22l-4.11 4.07v-5.27l7.32-7.25a2.27 2.27 0 1 0-3.19-3.22l-6.38 6.32-2.27 2.28-.14 30.17h-4.49a3 3 0 0 0-.43.06l-.16.05h-.44l-.1.06-.08.06-.1.07-.07.06-.09.09-.07.07-.07.08-.07.09-.06.08-.07.11v.06l-.07.15a1.11 1.11 0 0 0-.07.16c0 .05 0 .11-.05.16v.28a.49.49 0 0 0 0 .12.41.41 0 0 0 0 .11v.11a.49.49 0 0 0 0 .12.34.34 0 0 0 0 .1v.22a.43.43 0 0 0 0 .11.49.49 0 0 0 0 .11v.1l.05.11v.07l6.6 13.57.06.08a1 1 0 0 0 .08.14 1.88 1.88 0 0 0 .16.23l.1.11.22.21.11.08.26.16h.15a2 2 0 0 0 .26.09h1.27a2.67 2.67 0 0 0 .26-.09h.15zm108.28-43.06l-1.73-1.74a2.263 2.263 0 1 0-3.21 3.19l4.91 5zm.05-11.67l-1.71-1.74a2.27 2.27 0 0 0-3.22 3.19l4.92 5zm2.36 2.38h-.01v.01l.01-.01zm3.31 52.35l.12-.08a1.45 1.45 0 0 0 .22-.21l.1-.1a2.49 2.49 0 0 0 .17-.24l.08-.13v-.08l6.78-13.46v-.07a1.17 1.17 0 0 0 0-.11v-.31a.43.43 0 0 1 0-.11v-.4a.13.13 0 0 0 0-.06v-.16a.49.49 0 0 0 0-.12v-.28a1 1 0 0 0 0-.16l-.06-.17-.08-.16a.57.57 0 0 0-.08-.13l-.05-.07-.08-.1-.06-.08-.08-.08-.08-.07-.09-.08-.08-.06-.1-.07h-.08l-.12-.07h-5.36l.05-17.08 7.32-7.25a2.263 2.263 0 1 0-3.18-3.22l-4.11 4.07v-5.27l7.32-7.25a2.27 2.27 0 0 0-3.19-3.22l-6.38 6.32-2.28 2.28-.13 30.17h-4.5l-.43.06-.17.05h-.43l-.1.06-.08.06-.1.07-.07.06-.09.09a.46.46 0 0 0-.07.07l-.07.08-.07.09-.06.08a1 1 0 0 0-.08.11v.06a1 1 0 0 0-.07.15 1.11 1.11 0 0 0-.07.16 1 1 0 0 0-.05.16v.05a.8.8 0 0 0 0 .15.22.22 0 0 0 0 .08v.46a.34.34 0 0 1 0 .1v.12a.36.36 0 0 1 0 .1v.22a.42.42 0 0 1 0 .1v.18l6.61 13.57.05.08.09.14a1.88 1.88 0 0 0 .16.23l.1.11.21.21.12.08a2.26 2.26 0 0 0 .26.16h.11a1.84 1.84 0 0 0 .25.09h1.28a2.67 2.67 0 0 0 .26-.09h.1zm108.29-43.06l-1.73-1.74a2.27 2.27 0 0 0-3.22 3.19l4.92 5zm.05-11.67l-1.72-1.74a2.263 2.263 0 0 0-3.21 3.19l4.91 5zm2.36 2.38h-.01v.01l.01-.01zm3.31 52.35l.12-.08a1.45 1.45 0 0 0 .22-.21l.09-.1a1 1 0 0 0 .17-.24l.09-.13a.35.35 0 0 1 0-.08l6.78-13.46v-.18a.36.36 0 0 0 0-.09.56.56 0 0 1 0-.12v-1.39c0-.05 0-.11-.07-.17l-.08-.16-.08-.13-.05-.07-.08-.1-.07-.08-.08-.08a.46.46 0 0 0-.07-.07l-.09-.08-.08-.06-.1-.07h-.08l-.12-.07h-5.37l.08-16.62 7.32-7.25a2.27 2.27 0 1 0-3.19-3.22l-4.1 4.07v-5.27l7.33-7.25a2.27 2.27 0 0 0-3.19-3.22l-6.38 6.32-2.27 2.25-.13 30.17h-4.5a3.18 3.18 0 0 0-.43.06l-.16.05h-.43l-.1.06-.08.06-.1.07-.07.06-.09.09a.23.23 0 0 0-.07.07.27.27 0 0 0-.07.08l-.08.09v.08a1 1 0 0 0-.08.11v.06l-.08.15-.06.16v.36a.22.22 0 0 1 0 .08v.68a.36.36 0 0 0 0 .1v.22a.42.42 0 0 0 0 .1v.18l6.61 13.57a.22.22 0 0 0 .05.08 1 1 0 0 0 .08.14 2 2 0 0 0 .17.23l.1.11.21.21.12.08.25.16h.15a2.67 2.67 0 0 0 .26.09h1.28l.25-.09h.11a2.26 2.26 0 0 0 .24-.31zm108.29-43.06l-1.68-1.74a2.27 2.27 0 0 0-3.22 3.19l4.92 5zm.05-11.67l-1.73-1.74a2.27 2.27 0 0 0-3.22 3.19l4.92 5zm2.35 2.38v.01-.01zm3.32 52.35l.11-.08a1.45 1.45 0 0 0 .22-.21l.1-.1a1.46 1.46 0 0 0 .17-.24.57.57 0 0 0 .08-.13.35.35 0 0 0 0-.08l6.78-13.46v-.07a.37.37 0 0 0 .05-.11v-.31a.43.43 0 0 0 0-.11.5.5 0 0 0 0-.12.34.34 0 0 0 0-.1.49.49 0 0 0 0-.12v-.22a.49.49 0 0 1 0-.12v-.08a.77.77 0 0 0 0-.15v-.05a.94.94 0 0 0 0-.16c0-.05-.05-.11-.07-.17s0-.1-.07-.16l-.09-.13a.43.43 0 0 0 0-.07l-.08-.1-.07-.08-.08-.08a.27.27 0 0 0-.08-.07l-.08-.08-.08-.06-.1-.07H702l-.12-.07h-5.37l.08-16.62 7.32-7.25a2.27 2.27 0 0 0-3.19-3.22l-4.1 4.07v-5.27l7.32-7.25a2.27 2.27 0 1 0-3.19-3.22l-6.38 6.32-2.26 2.25-.14 30.17h-4.49a3 3 0 0 0-.43.06l-.16.05h-.43l-.1.06-.09.06-.09.07-.08.06-.08.09a.23.23 0 0 0-.07.07.6.6 0 0 0-.08.08l-.07.09a.35.35 0 0 0-.05.08.44.44 0 0 0-.08.11v.06a1.09 1.09 0 0 0-.08.15l-.07.16c0 .05 0 .11-.05.16v.28a.49.49 0 0 0 0 .12v.34a.34.34 0 0 0 0 .1.5.5 0 0 0 0 .12.36.36 0 0 0 0 .1v.5l6.61 13.57a.22.22 0 0 0 0 .08 1 1 0 0 0 .08.14 1.88 1.88 0 0 0 .16.23l.1.11.22.21.12.08.25.16h.15a2 2 0 0 0 .26.09h1.27a2 2 0 0 0 .26-.09h.1zm108.28-43.06l-1.68-1.74a2.27 2.27 0 0 0-3.22 3.19l4.91 5zm.06-11.67l-1.74-1.74a2.27 2.27 0 0 0-3.22 3.19l4.92 5zm2.35 2.38h-.01v.01l.01-.01zm3.32 52.35l.11-.08a1.45 1.45 0 0 0 .22-.21l.1-.1a2.49 2.49 0 0 0 .17-.24l.08-.13a.35.35 0 0 0 0-.08l6.78-13.46v-.07a1.17 1.17 0 0 0 .05-.11v-.09a.56.56 0 0 0 0-.12v-.66a.45.45 0 0 0 0-.11.49.49 0 0 0 0-.12.22.22 0 0 0 0-.08.8.8 0 0 0 0-.15v-.05a1 1 0 0 0 0-.16l-.06-.17-.08-.16a.57.57 0 0 0-.08-.13.18.18 0 0 0-.05-.07l-.08-.1-.06-.08-.08-.08-.08-.07-.09-.08-.08-.06-.1-.07h-.08l-.11-.07h-5.37l.07-16.62 7.33-7.25a2.27 2.27 0 0 0-3.19-3.22l-4.11 4.07v-5.27l7.32-7.25a2.27 2.27 0 0 0-3.19-3.22l-6.38 6.32-2.26 2.25-.14 30.17h-4.49a3 3 0 0 0-.43.06l-.17.05h-.43l-.1.06-.08.06-.1.07-.07.06-.09.09-.07.07-.07.08-.07.09-.06.08-.07.11a.21.21 0 0 0 0 .06l-.07.15a1.11 1.11 0 0 0-.07.16 1 1 0 0 0-.05.16v.2a.22.22 0 0 0 0 .08.49.49 0 0 0 0 .12.41.41 0 0 0 0 .11v.11a.49.49 0 0 0 0 .12.34.34 0 0 0 0 .1v.12a.36.36 0 0 1 0 .1v.11a.49.49 0 0 0 0 .11v.1l.05.11a.36.36 0 0 0 0 .07l6.6 13.57v.08l.09.14a1.88 1.88 0 0 0 .16.23l.1.11.22.21.11.08.26.16h.11l.25.09h1.28a2.67 2.67 0 0 0 .26-.09h.1zM62.63 574.08l-1.73-1.74a2.27 2.27 0 0 0-3.22 3.19l4.92 5zm.05-11.67l-1.71-1.74a2.263 2.263 0 1 0-3.21 3.19l4.91 5zm2.36 2.38h-.01.01zm3.31 52.35l.12-.08.21-.21a.47.47 0 0 0 .1-.1 1 1 0 0 0 .17-.24.57.57 0 0 0 .08-.13l.06-.08 6.73-13.46v-.18a.36.36 0 0 0 0-.09v-.45a.34.34 0 0 0 0-.1.49.49 0 0 0 0-.12v-.34a.22.22 0 0 1 0-.08v-.2s0-.11-.05-.16c0-.05 0-.11-.07-.17l-.08-.16-.08-.13-.05-.07-.08-.1-.07-.08-.08-.08a.46.46 0 0 0-.07-.07l-.09-.08-.08-.06-.1-.07h-.08l-.12-.07h-5.37l.12-17.14 7.32-7.25a2.27 2.27 0 1 0-3.19-3.22l-4.1 4.07v-5.27l7.32-7.25a2.263 2.263 0 1 0-3.18-3.22l-6.38 6.32-2.29 2.28-.14 30.17h-4.49a3.18 3.18 0 0 0-.43.06l-.16.05h-.43l-.1.06-.08.06-.1.07-.07.06-.09.09a.23.23 0 0 0-.07.07l-.08.08-.07.09v.08a1 1 0 0 0-.08.11v.06l-.08.15-.06.16a.94.94 0 0 0 0 .16v.2a.22.22 0 0 1 0 .08v.12a.41.41 0 0 1 0 .11v.11a.49.49 0 0 1 0 .12v.22a.36.36 0 0 0 0 .1v.22a.42.42 0 0 0 0 .1v.18l6.61 13.57a.22.22 0 0 0 0 .08 1 1 0 0 0 .08.14 2 2 0 0 0 .17.23l.1.11.21.21.12.08.25.16h.1a2.67 2.67 0 0 0 .26.09h1.28l.25-.09h.11a2.26 2.26 0 0 0 .37.12zm108.29-43.06l-1.73-1.74a2.27 2.27 0 0 0-3.22 3.19l4.92 5zm.05-11.67l-1.72-1.74a2.27 2.27 0 0 0-3.22 3.19l4.92 5zm2.35 2.38zm3.32 52.35l.11-.08a1.45 1.45 0 0 0 .22-.21.94.94 0 0 0 .1-.1 1.46 1.46 0 0 0 .17-.24.57.57 0 0 0 .08-.13.35.35 0 0 0 .05-.08l6.73-13.46v-.07a1.17 1.17 0 0 0 .05-.11.36.36 0 0 1 0-.09v-.22a.43.43 0 0 0 0-.11.5.5 0 0 0 0-.12v-.1a.49.49 0 0 0 0-.12v-.34a.22.22 0 0 0 0-.08.77.77 0 0 0 0-.15v-.21c0-.05-.05-.11-.07-.17l-.08-.16-.09-.13a.43.43 0 0 0 0-.07l-.08-.1-.07-.08-.08-.08a.27.27 0 0 0-.08-.07l-.08-.08-.08-.06-.11-.07h-.07l-.12-.07h-5.37l.08-16.62 7.32-7.25a2.27 2.27 0 0 0-3.19-3.22l-4.1 4.07v-5.27l7.32-7.25a2.27 2.27 0 1 0-3.19-3.22l-6.38 6.32-2.26 2.25-.14 30.17h-4.49a3 3 0 0 0-.43.06l-.16.05h-.43l-.11.06-.08.06-.09.07-.08.06-.08.09a.23.23 0 0 0-.07.07l-.08.08-.07.09a.35.35 0 0 0-.05.08.44.44 0 0 0-.08.11v.06l-.07.15a1.11 1.11 0 0 0-.07.16c0 .05 0 .11-.05.16v.28a.49.49 0 0 0 0 .12.41.41 0 0 0 0 .11v.11a.49.49 0 0 0 0 .12.34.34 0 0 0 0 .1v.22a.43.43 0 0 0 0 .11v.39l6.61 13.57a.22.22 0 0 0 .05.08 1 1 0 0 0 .08.14 1.88 1.88 0 0 0 .16.23l.1.11.22.21.11.08.26.16h.15a2 2 0 0 0 .26.09h1.27a2 2 0 0 0 .26-.09h.1zm108.28-43.06l-1.67-1.74a2.27 2.27 0 0 0-3.22 3.19l4.91 5zm.06-11.67l-1.73-1.74a2.27 2.27 0 0 0-3.22 3.19l4.92 5zm2.35 2.38h-.01.01zm3.31 52.35l.12-.08a1.45 1.45 0 0 0 .22-.21.94.94 0 0 0 .1-.1 2.49 2.49 0 0 0 .17-.24l.08-.13.05-.08 6.73-13.46v-.07a1.17 1.17 0 0 0 .05-.11v-.09a.56.56 0 0 0 0-.12v-.1a.43.43 0 0 1 0-.11v-.22a.49.49 0 0 1 0-.12v-.22a.49.49 0 0 0 0-.12v-.28a1 1 0 0 0 0-.16l-.06-.17-.08-.16a.57.57 0 0 0-.08-.13.18.18 0 0 0-.05-.07l-.08-.1-.06-.08-.08-.08-.08-.07-.09-.08-.08-.06-.1-.07h-.08l-.11-.07h-5.41l.07-16.62 7.33-7.25a2.27 2.27 0 0 0-3.19-3.22l-4.11 4.07v-5.27l7.32-7.25a2.27 2.27 0 0 0-3.19-3.22l-6.38 6.32-2.26 2.25-.14 30.17h-4.5l-.42.06-.17.05h-.43l-.1.06-.08.06-.1.07-.07.06-.09.09-.07.07-.07.08-.07.09-.06.08-.07.11v.06a1 1 0 0 0-.07.15 1.11 1.11 0 0 0-.07.16 1 1 0 0 0-.05.16v.2a.22.22 0 0 0 0 .08v.68a.36.36 0 0 1 0 .1v.11a.49.49 0 0 0 0 .11v.1a.54.54 0 0 0 .05.11.36.36 0 0 0 0 .07l6.6 13.57.05.08.09.14a1.88 1.88 0 0 0 .16.23l.1.11.22.21.11.08.26.16h.11l.25.09h1.28a2.67 2.67 0 0 0 .26-.09h.15zm108.29-43.06l-1.68-1.74a2.263 2.263 0 1 0-3.21 3.19l4.91 5zm.05-11.67l-1.73-1.74a2.27 2.27 0 0 0-3.22 3.19l4.91 5zm2.36 2.38h-.01.01zm3.31 52.35l.12-.08a1.45 1.45 0 0 0 .22-.21l.1-.1a1.43 1.43 0 0 0 .16-.24l.09-.13a.35.35 0 0 1 .05-.08l6.73-13.46v-.18a.36.36 0 0 0 0-.09v-.12a.36.36 0 0 0 0-.1v-1.13s0-.11-.05-.16c0-.05 0-.11-.07-.17l-.08-.16-.08-.13v-.07l-.08-.1-.06-.08-.09-.08a.46.46 0 0 0-.07-.07l-.09-.08-.08-.06-.1-.07h-.08l-.12-.07h-5.36l.07-16.62 7.32-7.25a2.27 2.27 0 1 0-3.19-3.22l-4.1 4.07v-5.27l7.33-7.25a2.27 2.27 0 0 0-3.19-3.22l-6.38 6.32-2.27 2.25-.13 30.17h-4.5l-.43.06-.16.05h-.43l-.1.06-.08.06-.1.07-.07.06-.09.09-.07.07a.27.27 0 0 0-.07.08l-.08.09a.35.35 0 0 1-.05.08 1 1 0 0 0-.08.11v.06l-.08.15-.06.16v.21a.77.77 0 0 0 0 .15v1.08a.42.42 0 0 0 0 .1v.18l6.61 13.57a.56.56 0 0 0 .05.08 1 1 0 0 1 .08.14c.06.08.11.16.17.23l.1.11.21.21.12.08a2.26 2.26 0 0 0 .26.16h.1a2.67 2.67 0 0 0 .26.09h1.28a2.67 2.67 0 0 0 .26-.09h.1a2.26 2.26 0 0 0 .33-.31zm108.29-43.06l-1.69-1.74a2.27 2.27 0 0 0-3.22 3.19l4.92 5zm.05-11.67l-1.74-1.74a2.26 2.26 0 1 0-3.2 3.17l4.91 5zm2.36 2.38h-.01.01zm3.31 52.35l.12-.08.21-.21.1-.1a1.46 1.46 0 0 0 .17-.24.57.57 0 0 0 .08-.13l.06-.08 6.73-13.46v-.07a.37.37 0 0 0 .05-.11v-.31a.43.43 0 0 0 0-.11.5.5 0 0 0 0-.12.34.34 0 0 0 0-.1.49.49 0 0 0 0-.12v-.22a.49.49 0 0 1 0-.12v-.08a.77.77 0 0 0 0-.15v-.21c0-.05 0-.11-.07-.17s0-.1-.07-.16l-.09-.13a.43.43 0 0 0 0-.07l-.08-.1-.07-.08-.08-.08-.07-.07-.09-.08-.08-.06-.1-.07h-.08l-.12-.07h-5.37l.08-16.62 7.32-7.25a2.27 2.27 0 0 0-3.19-3.22l-4.1 4.07v-5.27l7.32-7.25a2.263 2.263 0 1 0-3.18-3.22l-6.38 6.32-2.26 2.25-.14 30.17h-4.49a3.18 3.18 0 0 0-.43.06l-.16.05h-.43l-.1.06-.08.06-.1.07-.07.06-.09.09a.23.23 0 0 0-.07.07l-.08.08-.07.09a.35.35 0 0 0-.05.08.44.44 0 0 0-.08.11v.06a1.09 1.09 0 0 0-.08.15l-.06.16c0 .05 0 .11-.05.16v.84a.5.5 0 0 0 0 .12.36.36 0 0 0 0 .1.43.43 0 0 1 0 .11.49.49 0 0 1 0 .11v.1l.05.11v.07l6.61 13.57a.22.22 0 0 0 0 .08 1 1 0 0 0 .08.14 1.24 1.24 0 0 0 .17.23l.09.11.22.21.12.08.25.16h.15a2.67 2.67 0 0 0 .26.09h1.27a2 2 0 0 0 .26-.09h.1a2.26 2.26 0 0 0 .24-.37zm108.28-43.06l-1.69-1.74a2.27 2.27 0 0 0-3.22 3.19l4.92 5zm.06-11.67l-1.75-1.74a2.27 2.27 0 0 0-3.2 3.17l4.92 5zm2.35 2.38zm3.32 52.35l.11-.08a1.45 1.45 0 0 0 .22-.21.94.94 0 0 0 .1-.1 2.49 2.49 0 0 0 .17-.24.57.57 0 0 0 .08-.13.35.35 0 0 0 0-.08l6.78-13.46v-.07a1.17 1.17 0 0 0 .05-.11v-.09a.56.56 0 0 0 0-.12v-.66a.45.45 0 0 0 0-.11.49.49 0 0 0 0-.12.22.22 0 0 0 0-.08v-.36l-.06-.17-.08-.16-.09-.13a.43.43 0 0 0 0-.07l-.09-.1-.06-.08-.08-.08-.08-.07-.08-.08-.09-.06-.1-.07h-.08l-.11-.07h-5.37l.08-16.62 7.32-7.25a2.27 2.27 0 0 0-3.19-3.22l-4.11 4.07v-5.27l7.32-7.25a2.27 2.27 0 1 0-3.19-3.22l-6.38 6.32-2.26 2.25-.14 30.17h-4.49a3 3 0 0 0-.43.06l-.16.05h-.44l-.1.06-.08.06-.1.07-.07.06-.09.09-.07.07-.07.08-.07.09-.06.08-.07.11v.06l-.07.15a1.11 1.11 0 0 0-.07.16v.44a.49.49 0 0 0 0 .12.41.41 0 0 0 0 .11v.11a.49.49 0 0 0 0 .12.34.34 0 0 0 0 .1v.22a.43.43 0 0 0 0 .11.49.49 0 0 0 0 .11v.1l.05.11v.07l6.6 13.57.06.08a1 1 0 0 0 .08.14 1.88 1.88 0 0 0 .16.23l.1.11.22.21.11.08.26.16h.1l.25.09h1.28a2.67 2.67 0 0 0 .26-.09h.1zm108.28-43.06l-1.7-1.74a2.263 2.263 0 1 0-3.21 3.19l4.91 5zm.05-11.67l-1.75-1.74a2.27 2.27 0 0 0-3.22 3.19l4.92 5zm2.36 2.38h-.01.01zm3.31 52.35l.12-.08a1.45 1.45 0 0 0 .22-.21.94.94 0 0 0 .1-.1 2.49 2.49 0 0 0 .17-.24l.08-.13a.35.35 0 0 1 0-.08l6.78-13.46v-.07l.05-.11v-.31a.43.43 0 0 1 0-.11v-.4a.13.13 0 0 0 0-.06v-.16a.49.49 0 0 0 0-.12v-.28a1 1 0 0 0 0-.16l-.06-.17-.08-.16a.57.57 0 0 0-.08-.13l-.05-.07-.08-.1-.06-.08-.08-.08-.08-.07-.09-.08-.08-.06-.1-.07h-.08l-.12-.07h-5.36l.07-16.62 7.32-7.25a2.263 2.263 0 1 0-3.18-3.22l-4.11 4.07v-5.27l7.32-7.25a2.27 2.27 0 0 0-3.19-3.22l-6.38 6.32-2.27 2.25-.12 29.74h-4.5l-.43.06-.17.05h-.43l-.1.06-.08.06-.1.07-.07.06-.09.09a.46.46 0 0 0-.07.07l-.07.08-.07.09-.06.08a1 1 0 0 0-.08.11v.06a1 1 0 0 0-.07.15 1.11 1.11 0 0 0-.07.16 1 1 0 0 0 0 .16v.05a.8.8 0 0 0 0 .15.22.22 0 0 0 0 .08v.46a.34.34 0 0 1 0 .1v.12a.36.36 0 0 1 0 .1v.22a.42.42 0 0 1 0 .1v.18l6.61 13.57v.08l.09.14a1.88 1.88 0 0 0 .16.23l.1.11.21.21.12.08a2.26 2.26 0 0 0 .26.16h.11a1.84 1.84 0 0 0 .25.09h1.28a2.67 2.67 0 0 0 .26-.09h.1a1.64 1.64 0 0 0 .33.12zm108.29-43.06l-1.71-1.74a2.27 2.27 0 0 0-3.22 3.19l4.92 5zm.05-11.67l-1.76-1.74a2.263 2.263 0 1 0-3.21 3.19l4.91 5zm2.36 2.38h-.01.01zm3.31 52.35l.12-.08a2.13 2.13 0 0 0 .22-.21l.09-.1a1 1 0 0 0 .17-.24l.09-.13a.35.35 0 0 1 0-.08l6.78-13.46v-.18a.36.36 0 0 0 0-.09.56.56 0 0 1 0-.12v-.95a.22.22 0 0 1 0-.08v-.2s0-.11-.05-.16c0-.05 0-.11-.07-.17l-.08-.16-.08-.13v-.07l-.08-.1-.07-.08-.08-.08a.46.46 0 0 0-.07-.07l-.09-.08-.08-.06-.1-.07h-.08l-.12-.07h-5.37l.08-16.62 7.32-7.25a2.27 2.27 0 1 0-3.19-3.22l-4.1 4.07v-5.27l7.32-7.25a2.263 2.263 0 1 0-3.18-3.22l-6.38 6.32-2.27 2.25-.08 29.74h-4.5a3.18 3.18 0 0 0-.43.06l-.16.05h-.43l-.1.06-.08.06-.1.07-.07.06-.09.09a.23.23 0 0 0-.07.07.27.27 0 0 0-.07.08l-.08.09-.05.08a1 1 0 0 0-.08.11v.06l-.08.15-.06.16v.36a.22.22 0 0 1 0 .08v.64a.36.36 0 0 0 0 .1v.22a.42.42 0 0 0 0 .1v.18l6.61 13.57a.22.22 0 0 0 0 .08 1 1 0 0 0 .08.14 2 2 0 0 0 .17.23l.1.11.21.21.12.08.25.16h.1a2.67 2.67 0 0 0 .26.09h1.28l.25-.09h.11a2.26 2.26 0 0 0 .34.16zM5.6 686.08l-1.72-1.74a2.27 2.27 0 0 0-3.22 3.19l4.91 5zm.06-11.67l-1.69-1.74a2.274 2.274 0 0 0-3.26 3.17l4.92 5zm2.35 2.38H8h.01zm3.31 52.35l.12-.08a1.45 1.45 0 0 0 .22-.21.94.94 0 0 0 .1-.1 2.49 2.49 0 0 0 .17-.24l.08-.13a.35.35 0 0 0 0-.08l6.78-13.46v-.07a1.17 1.17 0 0 0 .05-.11v-.09a.56.56 0 0 0 0-.12v-.43a.49.49 0 0 1 0-.12v-.22a.49.49 0 0 0 0-.12v-.28a1 1 0 0 0 0-.16l-.06-.17-.08-.16a.57.57 0 0 0-.08-.13.18.18 0 0 0 0-.07l-.08-.1-.06-.08-.08-.08-.08-.07-.09-.08-.08-.06-.1-.07-.08-.21-.11-.07H12.5l-.06-16.93 7.33-7.25a2.27 2.27 0 0 0-3.19-3.22l-4.11 4.07v-5.27l7.32-7.25a2.27 2.27 0 0 0-3.19-3.22l-6.38 6.32-2.25 2.28-.14 30.17h-4.5l-.42.06-.17.05h-.43l-.1.06-.08.06-.1.07-.07.06-.09.09-.07.07-.07.08-.07.09-.06.08-.07.11v.06a1 1 0 0 0-.07.15 1.11 1.11 0 0 0-.07.16 1 1 0 0 0-.05.16v.2a.22.22 0 0 0 0 .08v.34a.49.49 0 0 0 0 .12.34.34 0 0 0 0 .1v.12a.36.36 0 0 1 0 .1v.11a.49.49 0 0 0 0 .11v.1a.54.54 0 0 0 0 .11.36.36 0 0 0 0 .07l6.63 13.84v.08l.09.14a1.88 1.88 0 0 0 .16.23l.1.11.22.21.11.08.26.16h.11l.25.09h1.28a2.67 2.67 0 0 0 .26-.09h.1zm108.29-43.06l-1.73-1.74a2.263 2.263 0 1 0-3.21 3.19l4.91 5zm.05-11.67l-1.69-1.74a2.27 2.27 0 0 0-3.22 3.19l4.91 5zm2.36 2.38h-.01.01zm3.31 52.35l.12-.08a1.45 1.45 0 0 0 .22-.21l.1-.1a1.43 1.43 0 0 0 .16-.24l.09-.13a.35.35 0 0 1 0-.08l6.78-13.46v-.18a.36.36 0 0 0 0-.09v-.12a.36.36 0 0 0 0-.1v-.11a.5.5 0 0 1 0-.12.34.34 0 0 1 0-.1v-.8s0-.11-.05-.16c0-.05 0-.11-.07-.17l-.08-.16-.08-.13v-.07l-.08-.1-.06-.08-.09-.08a.46.46 0 0 0-.07-.07l-.09-.08-.08-.06-.1-.07h-.08l-.12-.07h-5.36l.07-16.62 7.32-7.25a2.27 2.27 0 1 0-3.19-3.22l-4.1 4.07v-5.27l7.33-7.25a2.27 2.27 0 0 0-3.19-3.22l-6.38 6.32-2.28 1.82-.13 30.17h-4.5l-.43.06-.16.05h-.43l-.1.06-.08.06-.1.07-.07.06-.09.09a.46.46 0 0 0-.07.07.27.27 0 0 0-.07.08l-.08.09a.35.35 0 0 1-.05.08 1 1 0 0 0-.08.11v.06l-.08.15-.06.16v.21a.77.77 0 0 0 0 .15v.08a.49.49 0 0 1 0 .12v.88a.42.42 0 0 0 0 .1v.18l6.58 13.84a.56.56 0 0 0 .05.08 1 1 0 0 1 .08.14c.06.08.11.16.17.23l.1.11.21.21.12.08a2.26 2.26 0 0 0 .26.16h.1a2.67 2.67 0 0 0 .26.09h1.28a2.67 2.67 0 0 0 .26-.09h.1a2.26 2.26 0 0 0 .37-.15zm108.29-43.06l-1.73-1.74a2.27 2.27 0 0 0-3.22 3.19l4.92 5zm.05-11.67l-1.7-1.74a2.263 2.263 0 1 0-3.21 3.19l4.91 5zm2.36 2.38h-.01.01zm3.31 52.35l.12-.08.21-.21.1-.1a1.46 1.46 0 0 0 .17-.24.57.57 0 0 0 .08-.13l.06-.08 6.73-13.46v-.07a.37.37 0 0 0 .05-.11v-.31a.43.43 0 0 0 0-.11.5.5 0 0 0 0-.12.34.34 0 0 0 0-.1.49.49 0 0 0 0-.12v-.22a.49.49 0 0 1 0-.12.22.22 0 0 1 0-.08v-.2s0-.11-.05-.16c0-.05 0-.11-.07-.17a.8.8 0 0 1-.08-.16l-.09-.13a.43.43 0 0 0 0-.07l-.08-.1-.07-.08-.08-.08a.46.46 0 0 0-.07-.07l-.09-.08-.08-.06-.1-.07h-.08l-.12-.07h-5.37l.08-16.62 7.32-7.25a2.27 2.27 0 0 0-3.19-3.22l-4.1 4.07v-5.27l7.32-7.25a2.263 2.263 0 1 0-3.18-3.22l-6.38 6.32-2.33 1.76-.14 30.17h-4.46a3.18 3.18 0 0 0-.43.06l-.16.05h-.43l-.1.06-.08.06-.1.07-.07.06-.09.09a.23.23 0 0 0-.07.07l-.08.08-.07.09a.35.35 0 0 0-.05.08.44.44 0 0 0-.08.11v.06a1.09 1.09 0 0 0-.08.15l-.06.16c0 .05 0 .11-.05.16v.84a.5.5 0 0 0 0 .12.36.36 0 0 0 0 .1v.22a.42.42 0 0 0 0 .1.49.49 0 0 0 0 .11v.07l6.6 13.84a.22.22 0 0 0 0 .08 1 1 0 0 0 .08.14 2 2 0 0 0 .17.23l.09.11.22.21.12.08.25.16h.15a2.67 2.67 0 0 0 .26.09h1.27a2 2 0 0 0 .26-.09h.15a2.26 2.26 0 0 0 .35-.15zm108.28-43.06l-1.72-1.74a2.27 2.27 0 0 0-3.22 3.19l4.92 5zm.06-11.67l-1.71-1.74a2.27 2.27 0 0 0-3.22 3.19l4.92 5zm2.35 2.38zm3.32 52.35l.11-.08a1.45 1.45 0 0 0 .22-.21l.1-.1a1.46 1.46 0 0 0 .17-.24.57.57 0 0 0 .08-.13.35.35 0 0 0 .05-.08l6.73-13.46v-.07a1.17 1.17 0 0 0 .05-.11v-.09a.56.56 0 0 0 0-.12v-.66a.45.45 0 0 0 0-.11.49.49 0 0 0 0-.12.22.22 0 0 0 0-.08v-.36l-.06-.17-.08-.16-.09-.13a.43.43 0 0 0 0-.07l-.09-.1-.06-.08-.08-.08-.08-.07-.08-.08-.08-.06-.11-.07h-.08l-.11-.07h-5.37l-.02-17.14 7.32-7.25a2.27 2.27 0 0 0-3.19-3.22l-4.11 4.07v-5.27l7.32-7.25a2.27 2.27 0 1 0-3.19-3.22l-6.38 6.32-2.27 2.28-.14 30.17h-4.49a3 3 0 0 0-.43.06l-.16.05h-.44l-.1.06-.08.06-.1.07-.07.06-.09.09-.07.07-.07.08-.07.09-.06.08-.07.11v.06l-.07.15a1.11 1.11 0 0 0-.07.16c0 .05 0 .11-.05.16v.28a.49.49 0 0 0 0 .12.41.41 0 0 0 0 .11v.11a.49.49 0 0 0 0 .12.34.34 0 0 0 0 .1v.22a.43.43 0 0 0 0 .11.49.49 0 0 0 0 .11v.1l.05.11v.07l6.6 13.57.06.08a1 1 0 0 0 .08.14 1.88 1.88 0 0 0 .16.23l.1.11.22.21.11.08.26.16h.15a2 2 0 0 0 .26.09h1.27a2.67 2.67 0 0 0 .26-.09h.15zm108.28-43.06l-1.73-1.74a2.263 2.263 0 1 0-3.21 3.19l4.91 5zm.05-11.67l-1.71-1.74a2.27 2.27 0 0 0-3.22 3.19l4.92 5zm2.36 2.38h-.01.01zm3.31 52.35l.12-.08a1.45 1.45 0 0 0 .22-.21l.1-.1a2.49 2.49 0 0 0 .17-.24l.08-.13v-.08l6.78-13.46v-.07a1.17 1.17 0 0 0 0-.11v-.31a.43.43 0 0 1 0-.11v-.4a.13.13 0 0 0 0-.06v-.16a.49.49 0 0 0 0-.12v-.28a1 1 0 0 0 0-.16l-.06-.17-.08-.16a.57.57 0 0 0-.08-.13l-.05-.07-.08-.1-.06-.08-.08-.08-.08-.07-.09-.08-.08-.06-.1-.07h-.08l-.12-.07h-5.36l.05-17.08 7.32-7.25a2.263 2.263 0 1 0-3.18-3.22l-4.11 4.07v-5.27l7.32-7.25a2.27 2.27 0 0 0-3.19-3.22l-6.38 6.32-2.28 2.28-.13 30.17h-4.5l-.43.06-.17.05h-.43l-.1.06-.08.06-.1.07-.07.06-.09.09a.46.46 0 0 0-.07.07l-.07.08-.07.09-.06.08a1 1 0 0 0-.08.11v.06a1 1 0 0 0-.07.15 1.11 1.11 0 0 0-.07.16 1 1 0 0 0-.05.16v.05a.8.8 0 0 0 0 .15.22.22 0 0 0 0 .08v.46a.34.34 0 0 1 0 .1v.12a.36.36 0 0 1 0 .1v.22a.42.42 0 0 1 0 .1v.18l6.61 13.57.05.08.09.14a1.88 1.88 0 0 0 .16.23l.1.11.21.21.12.08a2.26 2.26 0 0 0 .26.16h.11a1.84 1.84 0 0 0 .25.09h1.28a2.67 2.67 0 0 0 .26-.09h.1zm108.29-43.06l-1.73-1.74a2.27 2.27 0 0 0-3.22 3.19l4.92 5zm.05-11.67l-1.72-1.74a2.263 2.263 0 1 0-3.21 3.19l4.91 5zm2.36 2.38h-.01.01zm3.31 52.35l.12-.08a1.45 1.45 0 0 0 .22-.21l.09-.1a1 1 0 0 0 .17-.24l.09-.13a.35.35 0 0 1 0-.08l6.78-13.46v-.18a.36.36 0 0 0 0-.09.56.56 0 0 1 0-.12v-1.39c0-.05 0-.11-.07-.17l-.08-.16-.08-.13-.05-.07-.08-.1-.07-.08-.08-.08a.46.46 0 0 0-.07-.07l-.09-.08-.08-.06-.1-.07h-.08l-.12-.07h-5.37l.08-16.62 7.32-7.25a2.27 2.27 0 1 0-3.19-3.22l-4.1 4.07v-5.27l7.33-7.25a2.27 2.27 0 0 0-3.19-3.22l-6.38 6.32-2.27 2.25-.13 30.17h-4.5a3.18 3.18 0 0 0-.43.06l-.16.05h-.43l-.1.06-.08.06-.1.07-.07.06-.09.09a.23.23 0 0 0-.07.07.27.27 0 0 0-.07.08l-.08.09v.08a1 1 0 0 0-.08.11v.06l-.08.15-.06.16v.36a.22.22 0 0 1 0 .08v.68a.36.36 0 0 0 0 .1v.22a.42.42 0 0 0 0 .1v.18l6.61 13.57a.22.22 0 0 0 .05.08 1 1 0 0 0 .08.14 2 2 0 0 0 .17.23l.1.11.21.21.12.08.25.16h.15a2.67 2.67 0 0 0 .26.09h1.28l.25-.09h.11a2.26 2.26 0 0 0 .24-.31zm108.29-43.06l-1.68-1.74a2.27 2.27 0 0 0-3.22 3.19l4.92 5zm.05-11.67l-1.73-1.74a2.27 2.27 0 0 0-3.22 3.19l4.92 5zm2.35 2.38zm3.32 52.35l.11-.08a1.45 1.45 0 0 0 .22-.21l.1-.1a1.46 1.46 0 0 0 .17-.24.57.57 0 0 0 .08-.13.35.35 0 0 0 0-.08l6.78-13.46v-.07a.37.37 0 0 0 .05-.11v-.31a.43.43 0 0 0 0-.11.5.5 0 0 0 0-.12.34.34 0 0 0 0-.1.49.49 0 0 0 0-.12v-.22a.49.49 0 0 1 0-.12v-.08a.77.77 0 0 0 0-.15v-.05a.94.94 0 0 0 0-.16c0-.05-.05-.11-.07-.17s0-.1-.07-.16l-.09-.13a.43.43 0 0 0 0-.07l-.08-.1-.07-.08-.08-.08a.27.27 0 0 0-.08-.07l-.08-.08-.08-.06-.1-.07H702l-.12-.07h-5.37l.08-16.62 7.32-7.25a2.27 2.27 0 0 0-3.19-3.22l-4.1 4.07v-5.27l7.32-7.25a2.27 2.27 0 1 0-3.19-3.22l-6.38 6.32-2.26 2.25-.14 30.17h-4.49a3 3 0 0 0-.43.06l-.16.05h-.43l-.1.06-.09.06-.09.07-.08.06-.08.09a.23.23 0 0 0-.07.07.6.6 0 0 0-.08.08l-.07.09a.35.35 0 0 0-.05.08.44.44 0 0 0-.08.11v.06a1.09 1.09 0 0 0-.08.15l-.07.16c0 .05 0 .11-.05.16v.28a.49.49 0 0 0 0 .12v.34a.34.34 0 0 0 0 .1.5.5 0 0 0 0 .12.36.36 0 0 0 0 .1v.5l6.61 13.57a.22.22 0 0 0 0 .08 1 1 0 0 0 .08.14 1.88 1.88 0 0 0 .16.23l.1.11.22.21.12.08.25.16h.15a2 2 0 0 0 .26.09h1.27a2 2 0 0 0 .26-.09h.1zm108.28-43.06l-1.68-1.74a2.27 2.27 0 0 0-3.22 3.19l4.91 5zm.06-11.67l-1.74-1.74a2.27 2.27 0 0 0-3.22 3.19l4.92 5zm2.35 2.38h-.01.01zm3.32 52.35l.11-.08a1.45 1.45 0 0 0 .22-.21l.1-.1a2.49 2.49 0 0 0 .17-.24l.08-.13a.35.35 0 0 0 0-.08l6.78-13.46v-.07a1.17 1.17 0 0 0 .05-.11v-.09a.56.56 0 0 0 0-.12v-.66a.45.45 0 0 0 0-.11.49.49 0 0 0 0-.12.22.22 0 0 0 0-.08.8.8 0 0 0 0-.15v-.05a1 1 0 0 0 0-.16l-.06-.17-.08-.16a.57.57 0 0 0-.08-.13.18.18 0 0 0-.05-.07l-.08-.1-.06-.08-.08-.08-.08-.07-.09-.08-.08-.06-.1-.07h-.08l-.11-.07h-5.37l.07-16.62 7.33-7.25a2.27 2.27 0 0 0-3.19-3.22l-4.11 4.07v-5.27l7.32-7.25a2.27 2.27 0 0 0-3.19-3.22l-6.38 6.32-2.26 2.25-.14 30.17h-4.49a3 3 0 0 0-.43.06l-.17.05h-.43l-.1.06-.08.06-.1.07-.07.06-.09.09-.07.07-.07.08-.07.09-.06.08-.07.11a.21.21 0 0 0 0 .06l-.07.15a1.11 1.11 0 0 0-.07.16 1 1 0 0 0-.05.16v.2a.22.22 0 0 0 0 .08.49.49 0 0 0 0 .12.41.41 0 0 0 0 .11v.11a.49.49 0 0 0 0 .12.34.34 0 0 0 0 .1v.12a.36.36 0 0 1 0 .1v.11a.49.49 0 0 0 0 .11v.1l.05.11a.36.36 0 0 0 0 .07l6.6 13.57v.08l.09.14a1.88 1.88 0 0 0 .16.23l.1.11.22.21.11.08.26.16h.11l.25.09h1.28a2.67 2.67 0 0 0 .26-.09h.1zM5.6 910.08l-1.72-1.74a2.27 2.27 0 0 0-3.22 3.19l4.91 5zm.06-11.67l-1.69-1.74a2.274 2.274 0 0 0-3.26 3.17l4.92 5zm2.35 2.38H8h.01zm3.31 52.35l.12-.08a1.45 1.45 0 0 0 .22-.21.94.94 0 0 0 .1-.1 2.49 2.49 0 0 0 .17-.24l.08-.13a.35.35 0 0 0 0-.08l6.78-13.46v-.07a1.17 1.17 0 0 0 .05-.11v-.09a.56.56 0 0 0 0-.12v-.43a.49.49 0 0 1 0-.12v-.22a.49.49 0 0 0 0-.12v-.28a1 1 0 0 0 0-.16l-.06-.17-.08-.16a.57.57 0 0 0-.08-.13.18.18 0 0 0 0-.07l-.08-.1-.06-.08-.08-.08-.08-.07-.09-.08-.08-.06-.1-.07-.08-.21-.11-.07H12.5l-.06-16.93 7.33-7.25a2.27 2.27 0 0 0-3.19-3.22l-4.11 4.07v-5.27l7.32-7.25a2.27 2.27 0 0 0-3.19-3.22l-6.38 6.32-2.25 2.28-.14 30.17h-4.5l-.42.06-.17.05h-.43l-.1.06-.08.06-.1.07-.07.06-.09.09-.07.07-.07.08-.07.09-.06.08-.07.11v.06a1 1 0 0 0-.07.15 1.11 1.11 0 0 0-.07.16 1 1 0 0 0-.05.16v.2a.22.22 0 0 0 0 .08v.34a.49.49 0 0 0 0 .12.34.34 0 0 0 0 .1v.12a.36.36 0 0 1 0 .1v.11a.49.49 0 0 0 0 .11v.1a.54.54 0 0 0 0 .11.36.36 0 0 0 0 .07l6.63 13.84v.08l.09.14a1.88 1.88 0 0 0 .16.23l.1.11.22.21.11.08.26.16h.11l.25.09h1.28a2.67 2.67 0 0 0 .26-.09h.1zm108.29-43.06l-1.73-1.74a2.263 2.263 0 1 0-3.21 3.19l4.91 5zm.05-11.67l-1.69-1.74a2.27 2.27 0 0 0-3.22 3.19l4.91 5zm2.36 2.38h-.01.01zm3.31 52.35l.12-.08a1.45 1.45 0 0 0 .22-.21l.1-.1a1.43 1.43 0 0 0 .16-.24l.09-.13a.35.35 0 0 1 0-.08l6.78-13.46v-.18a.36.36 0 0 0 0-.09v-.12a.36.36 0 0 0 0-.1v-.11a.5.5 0 0 1 0-.12.34.34 0 0 1 0-.1v-.8s0-.11-.05-.16c0-.05 0-.11-.07-.17l-.08-.16-.08-.13v-.07l-.08-.1-.06-.08-.09-.08a.46.46 0 0 0-.07-.07l-.09-.08-.08-.06-.1-.07h-.08l-.12-.07h-5.36l.07-16.62 7.32-7.25a2.27 2.27 0 1 0-3.19-3.22l-4.1 4.07v-5.27l7.33-7.25a2.27 2.27 0 0 0-3.19-3.22l-6.38 6.32-2.28 1.82-.13 30.17h-4.5l-.43.06-.16.05h-.43l-.1.06-.08.06-.1.07-.07.06-.09.09a.46.46 0 0 0-.07.07.27.27 0 0 0-.07.08l-.08.09a.35.35 0 0 1-.05.08 1 1 0 0 0-.08.11v.06l-.08.15-.06.16v.21a.77.77 0 0 0 0 .15v.08a.49.49 0 0 1 0 .12v.88a.42.42 0 0 0 0 .1v.18l6.58 13.84a.56.56 0 0 0 .05.08 1 1 0 0 1 .08.14c.06.08.11.16.17.23l.1.11.21.21.12.08a2.26 2.26 0 0 0 .26.16h.1a2.67 2.67 0 0 0 .26.09h1.28a2.67 2.67 0 0 0 .26-.09h.1a2.26 2.26 0 0 0 .37-.15zm108.29-43.06l-1.73-1.74a2.27 2.27 0 0 0-3.22 3.19l4.92 5zm.05-11.67l-1.7-1.74a2.263 2.263 0 1 0-3.21 3.19l4.91 5zm2.36 2.38h-.01.01zm3.31 52.35l.12-.08.21-.21.1-.1a1.46 1.46 0 0 0 .17-.24.57.57 0 0 0 .08-.13l.06-.08 6.73-13.46v-.07a.37.37 0 0 0 .05-.11v-.31a.43.43 0 0 0 0-.11.5.5 0 0 0 0-.12.34.34 0 0 0 0-.1.49.49 0 0 0 0-.12v-.22a.49.49 0 0 1 0-.12.22.22 0 0 1 0-.08v-.2s0-.11-.05-.16c0-.05 0-.11-.07-.17a.8.8 0 0 1-.08-.16l-.09-.13a.43.43 0 0 0 0-.07l-.08-.1-.07-.08-.08-.08a.46.46 0 0 0-.07-.07l-.09-.08-.08-.06-.1-.07h-.08l-.12-.07h-5.37l.08-16.62 7.32-7.25a2.27 2.27 0 0 0-3.19-3.22l-4.1 4.07v-5.27l7.32-7.25a2.263 2.263 0 1 0-3.18-3.22l-6.38 6.32-2.33 1.76-.14 30.17h-4.46a3.18 3.18 0 0 0-.43.06l-.16.05h-.43l-.1.06-.08.06-.1.07-.07.06-.09.09a.23.23 0 0 0-.07.07l-.08.08-.07.09a.35.35 0 0 0-.05.08.44.44 0 0 0-.08.11v.06a1.09 1.09 0 0 0-.08.15l-.06.16c0 .05 0 .11-.05.16v.84a.5.5 0 0 0 0 .12.36.36 0 0 0 0 .1v.22a.42.42 0 0 0 0 .1.49.49 0 0 0 0 .11v.07l6.6 13.84a.22.22 0 0 0 0 .08 1 1 0 0 0 .08.14 2 2 0 0 0 .17.23l.09.11.22.21.12.08.25.16h.15a2.67 2.67 0 0 0 .26.09h1.27a2 2 0 0 0 .26-.09h.15a2.26 2.26 0 0 0 .35-.15zm108.28-43.06l-1.72-1.74a2.27 2.27 0 0 0-3.22 3.19l4.92 5zm.06-11.67l-1.71-1.74a2.27 2.27 0 0 0-3.22 3.19l4.92 5zm2.35 2.38zm3.32 52.35l.11-.08a1.45 1.45 0 0 0 .22-.21l.1-.1a1.46 1.46 0 0 0 .17-.24.57.57 0 0 0 .08-.13.35.35 0 0 0 .05-.08l6.73-13.46v-.07a1.17 1.17 0 0 0 .05-.11v-.09a.56.56 0 0 0 0-.12v-.66a.45.45 0 0 0 0-.11.49.49 0 0 0 0-.12.22.22 0 0 0 0-.08v-.36l-.06-.17-.08-.16-.09-.13a.43.43 0 0 0 0-.07l-.09-.1-.06-.08-.08-.08-.08-.07-.08-.08-.08-.06-.11-.07h-.08l-.11-.07h-5.37l-.02-17.14 7.32-7.25a2.27 2.27 0 0 0-3.19-3.22l-4.11 4.07v-5.27l7.32-7.25a2.27 2.27 0 1 0-3.19-3.22l-6.38 6.32-2.27 2.28-.14 30.17h-4.49a3 3 0 0 0-.43.06l-.16.05h-.44l-.1.06-.08.06-.1.07-.07.06-.09.09-.07.07-.07.08-.07.09-.06.08-.07.11v.06l-.07.15a1.11 1.11 0 0 0-.07.16c0 .05 0 .11-.05.16v.28a.49.49 0 0 0 0 .12.41.41 0 0 0 0 .11v.11a.49.49 0 0 0 0 .12.34.34 0 0 0 0 .1v.22a.43.43 0 0 0 0 .11.49.49 0 0 0 0 .11v.1l.05.11v.07l6.6 13.57.06.08a1 1 0 0 0 .08.14 1.88 1.88 0 0 0 .16.23l.1.11.22.21.11.08.26.16h.15a2 2 0 0 0 .26.09h1.27a2.67 2.67 0 0 0 .26-.09h.15zm108.28-43.06l-1.73-1.74a2.263 2.263 0 1 0-3.21 3.19l4.91 5zm.05-11.67l-1.71-1.74a2.27 2.27 0 0 0-3.22 3.19l4.92 5zm2.36 2.38h-.01.01zm3.31 52.35l.12-.08a1.45 1.45 0 0 0 .22-.21l.1-.1a2.49 2.49 0 0 0 .17-.24l.08-.13v-.08l6.78-13.46v-.07a1.17 1.17 0 0 0 0-.11v-.31a.43.43 0 0 1 0-.11v-.4a.13.13 0 0 0 0-.06v-.16a.49.49 0 0 0 0-.12v-.28a1 1 0 0 0 0-.16l-.06-.17-.08-.16a.57.57 0 0 0-.08-.13l-.05-.07-.08-.1-.06-.08-.08-.08-.08-.07-.09-.08-.08-.06-.1-.07h-.08l-.12-.07h-5.36l.05-17.08 7.32-7.25a2.263 2.263 0 1 0-3.18-3.22l-4.11 4.07v-5.27l7.32-7.25a2.27 2.27 0 0 0-3.19-3.22l-6.38 6.32-2.28 2.28-.13 30.17h-4.5l-.43.06-.17.05h-.43l-.1.06-.08.06-.1.07-.07.06-.09.09a.46.46 0 0 0-.07.07l-.07.08-.07.09-.06.08a1 1 0 0 0-.08.11v.06a1 1 0 0 0-.07.15 1.11 1.11 0 0 0-.07.16 1 1 0 0 0-.05.16v.05a.8.8 0 0 0 0 .15.22.22 0 0 0 0 .08v.46a.34.34 0 0 1 0 .1v.12a.36.36 0 0 1 0 .1v.22a.42.42 0 0 1 0 .1v.18l6.61 13.57.05.08.09.14a1.88 1.88 0 0 0 .16.23l.1.11.21.21.12.08a2.26 2.26 0 0 0 .26.16h.11a1.84 1.84 0 0 0 .25.09h1.28a2.67 2.67 0 0 0 .26-.09h.1zm108.29-43.06l-1.73-1.74a2.27 2.27 0 0 0-3.22 3.19l4.92 5zm.05-11.67l-1.72-1.74a2.263 2.263 0 1 0-3.21 3.19l4.91 5zm2.36 2.38h-.01.01zm3.31 52.35l.12-.08a1.45 1.45 0 0 0 .22-.21l.09-.1a1 1 0 0 0 .17-.24l.09-.13a.35.35 0 0 1 0-.08l6.78-13.46v-.18a.36.36 0 0 0 0-.09.56.56 0 0 1 0-.12v-1.39c0-.05 0-.11-.07-.17l-.08-.16-.08-.13-.05-.07-.08-.1-.07-.08-.08-.08a.46.46 0 0 0-.07-.07l-.09-.08-.08-.06-.1-.07h-.08l-.12-.07h-5.37l.08-16.62 7.32-7.25a2.27 2.27 0 1 0-3.19-3.22l-4.1 4.07v-5.27l7.33-7.25a2.27 2.27 0 0 0-3.19-3.22l-6.38 6.32-2.27 2.25-.13 30.17h-4.5a3.18 3.18 0 0 0-.43.06l-.16.05h-.43l-.1.06-.08.06-.1.07-.07.06-.09.09a.23.23 0 0 0-.07.07.27.27 0 0 0-.07.08l-.08.09v.08a1 1 0 0 0-.08.11v.06l-.08.15-.06.16v.36a.22.22 0 0 1 0 .08v.68a.36.36 0 0 0 0 .1v.22a.42.42 0 0 0 0 .1v.18l6.61 13.57a.22.22 0 0 0 .05.08 1 1 0 0 0 .08.14 2 2 0 0 0 .17.23l.1.11.21.21.12.08.25.16h.15a2.67 2.67 0 0 0 .26.09h1.28l.25-.09h.11a2.26 2.26 0 0 0 .24-.31zm108.29-43.06l-1.68-1.74a2.27 2.27 0 0 0-3.22 3.19l4.92 5zm.05-11.67l-1.73-1.74a2.27 2.27 0 0 0-3.22 3.19l4.92 5zm2.35 2.38zm3.32 52.35l.11-.08a1.45 1.45 0 0 0 .22-.21l.1-.1a1.46 1.46 0 0 0 .17-.24.57.57 0 0 0 .08-.13.35.35 0 0 0 0-.08l6.78-13.46v-.07a.37.37 0 0 0 .05-.11v-.31a.43.43 0 0 0 0-.11.5.5 0 0 0 0-.12.34.34 0 0 0 0-.1.49.49 0 0 0 0-.12v-.22a.49.49 0 0 1 0-.12v-.08a.77.77 0 0 0 0-.15v-.05a.94.94 0 0 0 0-.16c0-.05-.05-.11-.07-.17s0-.1-.07-.16l-.09-.13a.43.43 0 0 0 0-.07l-.08-.1-.07-.08-.08-.08a.27.27 0 0 0-.08-.07l-.08-.08-.08-.06-.1-.07H702l-.12-.07h-5.37l.08-16.62 7.32-7.25a2.27 2.27 0 0 0-3.19-3.22l-4.1 4.07v-5.27l7.32-7.25a2.27 2.27 0 1 0-3.19-3.22l-6.38 6.32-2.26 2.25-.14 30.17h-4.49a3 3 0 0 0-.43.06l-.16.05h-.43l-.1.06-.09.06-.09.07-.08.06-.08.09a.23.23 0 0 0-.07.07.6.6 0 0 0-.08.08l-.07.09a.35.35 0 0 0-.05.08.44.44 0 0 0-.08.11v.06a1.09 1.09 0 0 0-.08.15l-.07.16c0 .05 0 .11-.05.16v.28a.49.49 0 0 0 0 .12v.34a.34.34 0 0 0 0 .1.5.5 0 0 0 0 .12.36.36 0 0 0 0 .1v.5l6.61 13.57a.22.22 0 0 0 0 .08 1 1 0 0 0 .08.14 1.88 1.88 0 0 0 .16.23l.1.11.22.21.12.08.25.16h.15a2 2 0 0 0 .26.09h1.27a2 2 0 0 0 .26-.09h.1zm108.28-43.06l-1.68-1.74a2.27 2.27 0 0 0-3.22 3.19l4.91 5zm.06-11.67l-1.74-1.74a2.27 2.27 0 0 0-3.22 3.19l4.92 5zm2.35 2.38h-.01.01zm3.32 52.35l.11-.08a1.45 1.45 0 0 0 .22-.21l.1-.1a2.49 2.49 0 0 0 .17-.24l.08-.13a.35.35 0 0 0 0-.08l6.78-13.46v-.07a1.17 1.17 0 0 0 .05-.11v-.09a.56.56 0 0 0 0-.12v-.66a.45.45 0 0 0 0-.11.49.49 0 0 0 0-.12.22.22 0 0 0 0-.08.8.8 0 0 0 0-.15v-.05a1 1 0 0 0 0-.16l-.06-.17-.08-.16a.57.57 0 0 0-.08-.13.18.18 0 0 0-.05-.07l-.08-.1-.06-.08-.08-.08-.08-.07-.09-.08-.08-.06-.1-.07h-.08l-.11-.07h-5.37l.07-16.62 7.33-7.25a2.27 2.27 0 0 0-3.19-3.22l-4.11 4.07v-5.27l7.32-7.25a2.27 2.27 0 0 0-3.19-3.22l-6.38 6.32-2.26 2.25-.14 30.17h-4.49a3 3 0 0 0-.43.06l-.17.05h-.43l-.1.06-.08.06-.1.07-.07.06-.09.09-.07.07-.07.08-.07.09-.06.08-.07.11a.21.21 0 0 0 0 .06l-.07.15a1.11 1.11 0 0 0-.07.16 1 1 0 0 0-.05.16v.2a.22.22 0 0 0 0 .08.49.49 0 0 0 0 .12.41.41 0 0 0 0 .11v.11a.49.49 0 0 0 0 .12.34.34 0 0 0 0 .1v.12a.36.36 0 0 1 0 .1v.11a.49.49 0 0 0 0 .11v.1l.05.11a.36.36 0 0 0 0 .07l6.6 13.57v.08l.09.14a1.88 1.88 0 0 0 .16.23l.1.11.22.21.11.08.26.16h.11l.25.09h1.28a2.67 2.67 0 0 0 .26-.09h.1zM62.63 798.08l-1.73-1.74a2.27 2.27 0 0 0-3.22 3.19l4.92 5zm.05-11.67l-1.71-1.74a2.263 2.263 0 1 0-3.21 3.19l4.91 5zm2.36 2.38h-.01.01zm3.31 52.35l.12-.08.21-.21a.47.47 0 0 0 .1-.1 1 1 0 0 0 .17-.24.57.57 0 0 0 .08-.13l.06-.08 6.73-13.46v-.18a.36.36 0 0 0 0-.09v-.45a.34.34 0 0 0 0-.1.49.49 0 0 0 0-.12v-.34a.22.22 0 0 1 0-.08v-.2s0-.11-.05-.16c0-.05 0-.11-.07-.17l-.08-.16-.08-.13-.05-.07-.08-.1-.07-.08-.08-.08a.46.46 0 0 0-.07-.07l-.09-.08-.08-.06-.1-.07h-.08l-.12-.07h-5.37l.12-17.14 7.32-7.25a2.27 2.27 0 1 0-3.19-3.22l-4.1 4.07v-5.27l7.32-7.25a2.263 2.263 0 1 0-3.18-3.22l-6.38 6.32-2.29 2.28-.14 30.17h-4.49a3.18 3.18 0 0 0-.43.06l-.16.05h-.43l-.1.06-.08.06-.1.07-.07.06-.09.09a.23.23 0 0 0-.07.07l-.08.08-.07.09v.08a1 1 0 0 0-.08.11v.06l-.08.15-.06.16a.94.94 0 0 0 0 .16v.2a.22.22 0 0 1 0 .08v.12a.41.41 0 0 1 0 .11v.11a.49.49 0 0 1 0 .12v.22a.36.36 0 0 0 0 .1v.22a.42.42 0 0 0 0 .1v.18l6.61 13.57a.22.22 0 0 0 0 .08 1 1 0 0 0 .08.14 2 2 0 0 0 .17.23l.1.11.21.21.12.08.25.16h.1a2.67 2.67 0 0 0 .26.09h1.28l.25-.09h.11a2.26 2.26 0 0 0 .37.12zm108.29-43.06l-1.73-1.74a2.27 2.27 0 0 0-3.22 3.19l4.92 5zm.05-11.67l-1.72-1.74a2.27 2.27 0 0 0-3.22 3.19l4.92 5zm2.35 2.38zm3.32 52.35l.11-.08a1.45 1.45 0 0 0 .22-.21.94.94 0 0 0 .1-.1 1.46 1.46 0 0 0 .17-.24.57.57 0 0 0 .08-.13.35.35 0 0 0 .05-.08l6.73-13.46v-.07a1.17 1.17 0 0 0 .05-.11.36.36 0 0 1 0-.09v-.22a.43.43 0 0 0 0-.11.5.5 0 0 0 0-.12v-.1a.49.49 0 0 0 0-.12v-.34a.22.22 0 0 0 0-.08.77.77 0 0 0 0-.15v-.21c0-.05-.05-.11-.07-.17l-.08-.16-.09-.13a.43.43 0 0 0 0-.07l-.08-.1-.07-.08-.08-.08a.27.27 0 0 0-.08-.07l-.08-.08-.08-.06-.11-.07h-.07l-.12-.07h-5.37l.08-16.62 7.32-7.25a2.27 2.27 0 0 0-3.19-3.22l-4.1 4.07v-5.27l7.32-7.25a2.27 2.27 0 1 0-3.19-3.22l-6.38 6.32-2.26 2.25-.14 30.17h-4.49a3 3 0 0 0-.43.06l-.16.05h-.43l-.11.06-.08.06-.09.07-.08.06-.08.09a.23.23 0 0 0-.07.07l-.08.08-.07.09a.35.35 0 0 0-.05.08.44.44 0 0 0-.08.11v.06l-.07.15a1.11 1.11 0 0 0-.07.16c0 .05 0 .11-.05.16v.28a.49.49 0 0 0 0 .12.41.41 0 0 0 0 .11v.11a.49.49 0 0 0 0 .12.34.34 0 0 0 0 .1v.22a.43.43 0 0 0 0 .11v.39l6.61 13.57a.22.22 0 0 0 .05.08 1 1 0 0 0 .08.14 1.88 1.88 0 0 0 .16.23l.1.11.22.21.11.08.26.16h.15a2 2 0 0 0 .26.09h1.27a2 2 0 0 0 .26-.09h.1zm108.28-43.06l-1.67-1.74a2.27 2.27 0 0 0-3.22 3.19l4.91 5zm.06-11.67l-1.73-1.74a2.27 2.27 0 0 0-3.22 3.19l4.92 5zm2.35 2.38h-.01.01zm3.31 52.35l.12-.08a1.45 1.45 0 0 0 .22-.21.94.94 0 0 0 .1-.1 2.49 2.49 0 0 0 .17-.24l.08-.13.05-.08 6.73-13.46v-.07a1.17 1.17 0 0 0 .05-.11v-.09a.56.56 0 0 0 0-.12v-.1a.43.43 0 0 1 0-.11v-.22a.49.49 0 0 1 0-.12v-.22a.49.49 0 0 0 0-.12v-.28a1 1 0 0 0 0-.16l-.06-.17-.08-.16a.57.57 0 0 0-.08-.13.18.18 0 0 0-.05-.07l-.08-.1-.06-.08-.08-.08-.08-.07-.09-.08-.08-.06-.1-.07h-.08l-.11-.07h-5.41l.07-16.62 7.33-7.25a2.27 2.27 0 0 0-3.19-3.22l-4.11 4.07v-5.27l7.32-7.25a2.27 2.27 0 0 0-3.19-3.22l-6.38 6.32-2.26 2.25-.14 30.17h-4.5l-.42.06-.17.05h-.43l-.1.06-.08.06-.1.07-.07.06-.09.09-.07.07-.07.08-.07.09-.06.08-.07.11v.06a1 1 0 0 0-.07.15 1.11 1.11 0 0 0-.07.16 1 1 0 0 0-.05.16v.2a.22.22 0 0 0 0 .08v.68a.36.36 0 0 1 0 .1v.11a.49.49 0 0 0 0 .11v.1a.54.54 0 0 0 .05.11.36.36 0 0 0 0 .07l6.6 13.57.05.08.09.14a1.88 1.88 0 0 0 .16.23l.1.11.22.21.11.08.26.16h.11l.25.09h1.28a2.67 2.67 0 0 0 .26-.09h.15zm108.29-43.06l-1.68-1.74a2.263 2.263 0 1 0-3.21 3.19l4.91 5zm.05-11.67l-1.73-1.74a2.27 2.27 0 0 0-3.22 3.19l4.91 5zm2.36 2.38h-.01.01zm3.31 52.35l.12-.08a1.45 1.45 0 0 0 .22-.21l.1-.1a1.43 1.43 0 0 0 .16-.24l.09-.13a.35.35 0 0 1 .05-.08l6.73-13.46v-.18a.36.36 0 0 0 0-.09v-.12a.36.36 0 0 0 0-.1v-1.13s0-.11-.05-.16c0-.05 0-.11-.07-.17l-.08-.16-.08-.13v-.07l-.08-.1-.06-.08-.09-.08a.46.46 0 0 0-.07-.07l-.09-.08-.08-.06-.1-.07h-.08l-.12-.07h-5.36l.07-16.62 7.32-7.25a2.27 2.27 0 1 0-3.19-3.22l-4.1 4.07v-5.27l7.33-7.25a2.27 2.27 0 0 0-3.19-3.22l-6.38 6.32-2.27 2.25-.13 30.17h-4.5l-.43.06-.16.05h-.43l-.1.06-.08.06-.1.07-.07.06-.09.09-.07.07a.27.27 0 0 0-.07.08l-.08.09a.35.35 0 0 1-.05.08 1 1 0 0 0-.08.11v.06l-.08.15-.06.16v.21a.77.77 0 0 0 0 .15v1.08a.42.42 0 0 0 0 .1v.18l6.61 13.57a.56.56 0 0 0 .05.08 1 1 0 0 1 .08.14c.06.08.11.16.17.23l.1.11.21.21.12.08a2.26 2.26 0 0 0 .26.16h.1a2.67 2.67 0 0 0 .26.09h1.28a2.67 2.67 0 0 0 .26-.09h.1a2.26 2.26 0 0 0 .33-.31zm108.29-43.06l-1.69-1.74a2.27 2.27 0 0 0-3.22 3.19l4.92 5zm.05-11.67l-1.74-1.74a2.26 2.26 0 1 0-3.2 3.17l4.91 5zm2.36 2.38h-.01.01zm3.31 52.35l.12-.08.21-.21.1-.1a1.46 1.46 0 0 0 .17-.24.57.57 0 0 0 .08-.13l.06-.08 6.73-13.46v-.07a.37.37 0 0 0 .05-.11v-.31a.43.43 0 0 0 0-.11.5.5 0 0 0 0-.12.34.34 0 0 0 0-.1.49.49 0 0 0 0-.12v-.22a.49.49 0 0 1 0-.12v-.08a.77.77 0 0 0 0-.15v-.21c0-.05 0-.11-.07-.17s0-.1-.07-.16l-.09-.13a.43.43 0 0 0 0-.07l-.08-.1-.07-.08-.08-.08-.07-.07-.09-.08-.08-.06-.1-.07h-.08l-.12-.07h-5.37l.08-16.62 7.32-7.25a2.27 2.27 0 0 0-3.19-3.22l-4.1 4.07v-5.27l7.32-7.25a2.263 2.263 0 1 0-3.18-3.22l-6.38 6.32-2.26 2.25-.14 30.17h-4.49a3.18 3.18 0 0 0-.43.06l-.16.05h-.43l-.1.06-.08.06-.1.07-.07.06-.09.09a.23.23 0 0 0-.07.07l-.08.08-.07.09a.35.35 0 0 0-.05.08.44.44 0 0 0-.08.11v.06a1.09 1.09 0 0 0-.08.15l-.06.16c0 .05 0 .11-.05.16v.84a.5.5 0 0 0 0 .12.36.36 0 0 0 0 .1.43.43 0 0 1 0 .11.49.49 0 0 1 0 .11v.1l.05.11v.07l6.61 13.57a.22.22 0 0 0 0 .08 1 1 0 0 0 .08.14 1.24 1.24 0 0 0 .17.23l.09.11.22.21.12.08.25.16h.15a2.67 2.67 0 0 0 .26.09h1.27a2 2 0 0 0 .26-.09h.1a2.26 2.26 0 0 0 .24-.37zm108.28-43.06l-1.69-1.74a2.27 2.27 0 0 0-3.22 3.19l4.92 5zm.06-11.67l-1.75-1.74a2.27 2.27 0 0 0-3.2 3.17l4.92 5zm2.35 2.38zm3.32 52.35l.11-.08a1.45 1.45 0 0 0 .22-.21.94.94 0 0 0 .1-.1 2.49 2.49 0 0 0 .17-.24.57.57 0 0 0 .08-.13.35.35 0 0 0 0-.08l6.78-13.46v-.07a1.17 1.17 0 0 0 .05-.11v-.09a.56.56 0 0 0 0-.12v-.66a.45.45 0 0 0 0-.11.49.49 0 0 0 0-.12.22.22 0 0 0 0-.08v-.36l-.06-.17-.08-.16-.09-.13a.43.43 0 0 0 0-.07l-.09-.1-.06-.08-.08-.08-.08-.07-.08-.08-.09-.06-.1-.07h-.08l-.11-.07h-5.37l.08-16.62 7.32-7.25a2.27 2.27 0 0 0-3.19-3.22l-4.11 4.07v-5.27l7.32-7.25a2.27 2.27 0 1 0-3.19-3.22l-6.38 6.32-2.26 2.25-.14 30.17h-4.49a3 3 0 0 0-.43.06l-.16.05h-.44l-.1.06-.08.06-.1.07-.07.06-.09.09-.07.07-.07.08-.07.09-.06.08-.07.11v.06l-.07.15a1.11 1.11 0 0 0-.07.16v.44a.49.49 0 0 0 0 .12.41.41 0 0 0 0 .11v.11a.49.49 0 0 0 0 .12.34.34 0 0 0 0 .1v.22a.43.43 0 0 0 0 .11.49.49 0 0 0 0 .11v.1l.05.11v.07l6.6 13.57.06.08a1 1 0 0 0 .08.14 1.88 1.88 0 0 0 .16.23l.1.11.22.21.11.08.26.16h.1l.25.09h1.28a2.67 2.67 0 0 0 .26-.09h.1zm108.28-43.06l-1.7-1.74a2.263 2.263 0 1 0-3.21 3.19l4.91 5zm.05-11.67l-1.75-1.74a2.27 2.27 0 0 0-3.22 3.19l4.92 5zm2.36 2.38h-.01.01zm3.31 52.35l.12-.08a1.45 1.45 0 0 0 .22-.21.94.94 0 0 0 .1-.1 2.49 2.49 0 0 0 .17-.24l.08-.13a.35.35 0 0 1 0-.08l6.78-13.46v-.07l.05-.11v-.31a.43.43 0 0 1 0-.11v-.4a.13.13 0 0 0 0-.06v-.16a.49.49 0 0 0 0-.12v-.28a1 1 0 0 0 0-.16l-.06-.17-.08-.16a.57.57 0 0 0-.08-.13l-.05-.07-.08-.1-.06-.08-.08-.08-.08-.07-.09-.08-.08-.06-.1-.07h-.08l-.12-.07h-5.36l.07-16.62 7.32-7.25a2.263 2.263 0 1 0-3.18-3.22l-4.11 4.07v-5.27l7.32-7.25a2.27 2.27 0 0 0-3.19-3.22l-6.38 6.32-2.27 2.25-.12 29.74h-4.5l-.43.06-.17.05h-.43l-.1.06-.08.06-.1.07-.07.06-.09.09a.46.46 0 0 0-.07.07l-.07.08-.07.09-.06.08a1 1 0 0 0-.08.11v.06a1 1 0 0 0-.07.15 1.11 1.11 0 0 0-.07.16 1 1 0 0 0 0 .16v.05a.8.8 0 0 0 0 .15.22.22 0 0 0 0 .08v.46a.34.34 0 0 1 0 .1v.12a.36.36 0 0 1 0 .1v.22a.42.42 0 0 1 0 .1v.18l6.61 13.57v.08l.09.14a1.88 1.88 0 0 0 .16.23l.1.11.21.21.12.08a2.26 2.26 0 0 0 .26.16h.11a1.84 1.84 0 0 0 .25.09h1.28a2.67 2.67 0 0 0 .26-.09h.1a1.64 1.64 0 0 0 .33.12zm108.29-43.06l-1.71-1.74a2.27 2.27 0 0 0-3.22 3.19l4.92 5zm.05-11.67l-1.76-1.74a2.263 2.263 0 1 0-3.21 3.19l4.91 5zm2.36 2.38h-.01.01zm3.31 52.35l.12-.08a2.13 2.13 0 0 0 .22-.21l.09-.1a1 1 0 0 0 .17-.24l.09-.13a.35.35 0 0 1 0-.08l6.78-13.46v-.18a.36.36 0 0 0 0-.09.56.56 0 0 1 0-.12v-.95a.22.22 0 0 1 0-.08v-.2s0-.11-.05-.16c0-.05 0-.11-.07-.17l-.08-.16-.08-.13v-.07l-.08-.1-.07-.08-.08-.08a.46.46 0 0 0-.07-.07l-.09-.08-.08-.06-.1-.07h-.08l-.12-.07h-5.37l.08-16.62 7.32-7.25a2.27 2.27 0 1 0-3.19-3.22l-4.1 4.07v-5.27l7.32-7.25a2.263 2.263 0 1 0-3.18-3.22l-6.38 6.32-2.27 2.25-.08 29.74h-4.5a3.18 3.18 0 0 0-.43.06l-.16.05h-.43l-.1.06-.08.06-.1.07-.07.06-.09.09a.23.23 0 0 0-.07.07.27.27 0 0 0-.07.08l-.08.09-.05.08a1 1 0 0 0-.08.11v.06l-.08.15-.06.16v.36a.22.22 0 0 1 0 .08v.64a.36.36 0 0 0 0 .1v.22a.42.42 0 0 0 0 .1v.18l6.61 13.57a.22.22 0 0 0 0 .08 1 1 0 0 0 .08.14 2 2 0 0 0 .17.23l.1.11.21.21.12.08.25.16h.1a2.67 2.67 0 0 0 .26.09h1.28l.25-.09h.11a2.26 2.26 0 0 0 .34.16z"/></svg>