<?xml version="1.0" encoding="utf-8"?>
<!-- Generator: Adobe Illustrator 21.1.0, SVG Export Plug-In . SVG Version: 6.00 Build 0)  -->
<svg version="1.1" id="Layer_1" xmlns="http://www.w3.org/2000/svg" xmlns:xlink="http://www.w3.org/1999/xlink" x="0px" y="0px"
	 viewBox="0 0 53.8 47.4" style="enable-background:new 0 0 53.8 47.4;" xml:space="preserve">
<style type="text/css">
	.st0{fill:#FFFFFF;}
</style>
<path class="st0" d="M46.8,23L46.8,23c1.4,1.9,2.2,4.3,2.2,6.9c0,6.6-5.4,12-12,12c-2.8,0-12.8,0-16,0c-8.8,0-16-7.2-16-16
	s7.2-16,16-16c2,0,3.9,0.4,5.7,1l0,0c1.6-4.7,6.1-8,11.3-8c0.8,0,1.5,0.1,2.2,0.2C40.1,3.7,40,4.3,40,4.9c0,4.4,3.6,8,8,8
	c0.6,0,1.2-0.1,1.8-0.2c0.1,0.7,0.2,1.5,0.2,2.2C49.9,18,48.7,20.8,46.8,23z M8.9,25.8c0,6.6,5.4,12,12,12c3.6,0,13,0,16,0
	c4.4,0,8-3.6,8-8s-3.6-8-8-8c-1.6,0-3.1,0.5-4.3,1.3c-1.2-5.3-6-9.3-11.7-9.3C14.3,13.8,8.9,19.2,8.9,25.8z M28.5,11.7L28.5,11.7
	L28.5,11.7z M36.2,7.1c-2.9,0.7-5.2,2.9-5.9,5.8l0,0c1.9,1.4,3.5,3.2,4.7,5.2c0.7-0.1,1.3-0.2,2-0.2c2.6,0,5,0.8,7,2.3l0,0
	c0.9-1,1.5-2.2,1.8-3.5C40.9,15.7,37.1,11.9,36.2,7.1z"/>
</svg>
