<?xml version="1.0" encoding="utf-8"?>
<!-- Generator: Adobe Illustrator 21.1.0, SVG Export Plug-In . SVG Version: 6.00 Build 0)  -->
<svg version="1.1" id="Layer_1" xmlns="http://www.w3.org/2000/svg" xmlns:xlink="http://www.w3.org/1999/xlink" x="0px" y="0px"
	 viewBox="0 0 50.3 44.9" style="enable-background:new 0 0 50.3 44.9;" xml:space="preserve">
<style type="text/css">
	.st0{fill:#FFFFFF;}
</style>
<path class="st0" d="M4.2,28.3c-0.3-0.6-0.5-1.3-0.6-2H47c0,0.7-0.1,1.3-0.2,2H4.2z M11.3,8.3c2.3-1.3,4.9-2,7.7-2s5.4,0.7,7.7,2
	H11.3z M3.1,20.3c0.1-0.7,0.2-1.3,0.4-2h40.4c0.6,0.6,1,1.3,1.5,2H3.1z M4.2,16.3c0.3-0.7,0.6-1.4,1-2h27.7c0,0.1,0.1,0.1,0.1,0.2
	c0.7-0.1,1.3-0.2,2-0.2c2.5,0,4.7,0.7,6.6,2H4.2z M6.5,12.3c0.6-0.7,1.2-1.4,1.9-2h21.1c0.7,0.6,1.3,1.3,1.9,2H6.5z M46.8,24.3H3.1
	C3,23.6,3,23,3,22.3h43.3C46.5,23,46.7,23.7,46.8,24.3z M46.3,30.3c-0.2,0.7-0.6,1.4-0.9,2H6.5c-0.5-0.6-1-1.3-1.4-2H46.3z
	 M8.4,34.3h35.5c-0.7,0.8-1.4,1.4-2.3,2H11.3C10.2,35.8,9.3,35.1,8.4,34.3z"/>
</svg>
