<?xml version="1.0" encoding="utf-8"?>
<!-- Generator: Adobe Illustrator 21.1.0, SVG Export Plug-In . SVG Version: 6.00 Build 0)  -->
<svg version="1.1" id="Layer_1" xmlns="http://www.w3.org/2000/svg" xmlns:xlink="http://www.w3.org/1999/xlink" x="0px" y="0px"
	 viewBox="0 0 57.1 57.1" style="enable-background:new 0 0 57.1 57.1;" xml:space="preserve">
<style type="text/css">
	.st0{fill:#FFFFFF;}
</style>
<path class="st0" d="M38.1,40.7c-0.3,0-0.6,0-1.1,0l3.6-4.4c3.2-1.1,5.5-4.1,5.5-7.6c0-4.4-3.6-8-8-8c-1.6,0-3.1,0.5-4.3,1.3
	c-1.2-5.3-6-9.3-11.7-9.3c-6.6,0-12,5.4-12,12c0,5.4,3.6,10,8.6,11.5L17.4,40c-6.5-2-11.3-8.1-11.3-15.3c0-8.8,7.2-16,16-16
	c6,0,11.2,3.3,14,8.2c0.7-0.1,1.3-0.2,2-0.2c6.6,0,12,5.4,12,12S44.7,40.7,38.1,40.7z M26.1,26.7h10l-6,10h7l-13,16l3.6-12h-6.6
	L26.1,26.7z"/>
</svg>
