<?xml version="1.0" encoding="utf-8"?>
<!-- Generator: Adobe Illustrator 21.1.0, SVG Export Plug-In . SVG Version: 6.00 Build 0)  -->
<svg version="1.1" id="Layer_1" xmlns="http://www.w3.org/2000/svg" xmlns:xlink="http://www.w3.org/1999/xlink" x="0px" y="0px"
	 viewBox="0 0 55.2 54.2" style="enable-background:new 0 0 55.2 54.2;" xml:space="preserve">
<style type="text/css">
	.st0{fill:#FFFFFF;}
</style>
<path class="st0" d="M42.2,37.8v-4.4c2.4-1.4,4-4,4-6.9c0-4.4-3.6-8-8-8c-1.6,0-3.1,0.5-4.3,1.3c-1.2-5.3-6-9.3-11.7-9.3
	c-6.6,0-12,5.4-12,12c0,3.5,1.5,6.7,4,8.9v4.9c-4.8-2.8-8-7.9-8-13.8c0-8.8,7.2-16,16-16c6,0,11.2,3.3,14,8.2c0.7-0.1,1.3-0.2,2-0.2
	c6.6,0,12,5.4,12,12C50.2,31.8,46.9,36.2,42.2,37.8z M20.2,38.5c-1.1,0-1-0.9-1-2v-8c0-1.1-0.1-2,1-2s1,0.9,1,2v8
	C21.2,37.6,21.3,38.5,20.2,38.5z M20.2,42.5c1.1,0,2,0.9,2,2s-0.9,2-2,2s-2-0.9-2-2S19.1,42.5,20.2,42.5z M28.2,42.5
	c-1.1,0-1-0.9-1-2v-8c0-1.1-0.1-2,1-2s1,0.9,1,2v8C29.2,41.6,29.3,42.5,28.2,42.5z M28.2,46.5c1.1,0,2,0.9,2,2s-0.9,2-2,2
	s-2-0.9-2-2S27.1,46.5,28.2,46.5z M36.2,38.5c-1.1,0-1-0.9-1-2v-8c0-1.1-0.1-2,1-2s1,0.9,1,2v8C37.2,37.6,37.3,38.5,36.2,38.5z
	 M36.2,42.5c1.1,0,2,0.9,2,2s-0.9,2-2,2s-2-0.9-2-2S35.1,42.5,36.2,42.5z"/>
</svg>
