<?xml version="1.0" encoding="utf-8"?>
<!-- Generator: Adobe Illustrator 21.1.0, SVG Export Plug-In . SVG Version: 6.00 Build 0)  -->
<svg version="1.1" id="Layer_1" xmlns="http://www.w3.org/2000/svg" xmlns:xlink="http://www.w3.org/1999/xlink" x="0px" y="0px"
	 viewBox="0 0 33.2 33.2" style="enable-background:new 0 0 33.2 33.2;" xml:space="preserve">
<style type="text/css">
	.st0{fill:#FFFFFF;}
</style>
<path class="st0" d="M17.8,27.7c-6.6,0-12-5.4-12-12s5.4-12,12-12c0.8,0,1.5,0.1,2.2,0.2c-0.1,0.6-0.2,1.2-0.2,1.8c0,4.4,3.6,8,8,8
	c0.6,0,1.2-0.1,1.8-0.2c0.1,0.7,0.2,1.5,0.2,2.2C29.8,22.3,24.4,27.7,17.8,27.7z M16,7.9c-3.5,0.8-6.2,4-6.2,7.8c0,4.4,3.6,8,8,8
	c3.8,0,7-2.7,7.8-6.2C20.7,16.6,16.9,12.8,16,7.9z"/>
</svg>
