<?xml version="1.0" encoding="utf-8"?>
<!-- Generator: Adobe Illustrator 21.1.0, SVG Export Plug-In . SVG Version: 6.00 Build 0)  -->
<svg version="1.1" id="Layer_1" xmlns="http://www.w3.org/2000/svg" xmlns:xlink="http://www.w3.org/1999/xlink" x="0px" y="0px"
	 viewBox="0 0 54.4 57.3" style="enable-background:new 0 0 54.4 57.3;" xml:space="preserve">
<style type="text/css">
	.st0{fill:#FFFFFF;}
</style>
<path class="st0" d="M49.1,30.7h-4c-1.1,0-2-0.9-2-2s0.9-2,2-2h4c1.1,0,2,0.9,2,2S50.2,30.7,49.1,30.7z M41.2,17.4
	c-0.8,0.8-2,0.8-2.8,0s-0.8-2,0-2.8l2.8-2.8c0.8-0.8,2-0.8,2.8,0s0.8,2,0,2.8L41.2,17.4z M27.1,40.7c-6.6,0-12-5.4-12-12
	s5.4-12,12-12s12,5.4,12,12S33.7,40.7,27.1,40.7z M27.1,20.7c-4.4,0-8,3.6-8,8s3.6,8,8,8s8-3.6,8-8S31.5,20.7,27.1,20.7z M27.1,12.7
	c-1.1,0-2-0.9-2-2v-4c0-1.1,0.9-2,2-2s2,0.9,2,2v4C29.1,11.8,28.2,12.7,27.1,12.7z M13,17.4l-2.9-2.8c-0.8-0.8-0.8-2,0-2.8
	s2-0.8,2.8,0l2.8,2.8c0.8,0.8,0.8,2,0,2.8S13.7,18.2,13,17.4z M11.1,28.7c0,1.1-0.9,2-2,2h-4c-1.1,0-2-0.9-2-2s0.9-2,2-2h4
	C10.2,26.7,11.1,27.6,11.1,28.7z M13,40c0.8-0.8,2-0.8,2.8,0s0.8,2,0,2.8L13,45.7c-0.8,0.8-2,0.8-2.8,0s-0.8-2,0-2.8L13,40z
	 M27.1,44.7c1.1,0,2,0.9,2,2v4c0,1.1-0.9,2-2,2s-2-0.9-2-2v-4C25.1,45.6,26,44.7,27.1,44.7z M41.2,40l2.8,2.8c0.8,0.8,0.8,2,0,2.8
	s-2,0.8-2.8,0l-2.8-2.8c-0.8-0.8-0.8-2,0-2.8S40.5,39.2,41.2,40z"/>
</svg>
