<?xml version="1.0" encoding="utf-8"?>
<!-- Generator: Adobe Illustrator 21.1.0, SVG Export Plug-In . SVG Version: 6.00 Build 0)  -->
<svg version="1.1" id="Layer_1" xmlns="http://www.w3.org/2000/svg" xmlns:xlink="http://www.w3.org/1999/xlink" x="0px" y="0px"
	 viewBox="0 0 26.1 37" style="enable-background:new 0 0 26.1 37;" xml:space="preserve">
<style type="text/css">
	.st0{fill:#FFFFFF;}
</style>
<path class="st0" d="M8.7,36.7c-4.4,0-8-3.6-8-8c0-2,0.8-3.9,2-5.3V6.7c0-3.3,2.7-6,6-6c3.3,0,6,2.7,6,6v16.7c1.2,1.4,2,3.3,2,5.3
	C16.7,33.1,13.1,36.7,8.7,36.7z M10.7,25.3V21V10.7v-4c0-1.1-0.9-2-2-2c-1.1,0-2,0.9-2,2v4V21v4.3c-1.2,0.7-2,2-2,3.4
	c0,2.2,1.8,4,4,4s4-1.8,4-4C12.7,27.2,11.9,26,10.7,25.3z M8.7,31.7c-1.7,0-3-1.3-3-3c0-1.3,0.8-2.4,2-2.8V10.7V6.7c0-0.6,0.4-1,1-1
	s1,0.4,1,1v3.9v15.2c1.2,0.4,2,1.5,2,2.8C11.7,30.4,10.3,31.7,8.7,31.7z"/>
</svg>
