<?xml version="1.0" encoding="utf-8"?>
<!-- Generator: Adobe Illustrator 21.1.0, SVG Export Plug-In . SVG Version: 6.00 Build 0)  -->
<svg version="1.1" id="Layer_1" xmlns="http://www.w3.org/2000/svg" xmlns:xlink="http://www.w3.org/1999/xlink" x="0px" y="0px"
	 viewBox="0 0 26 36.7" style="enable-background:new 0 0 26 36.7;" xml:space="preserve">
<style type="text/css">
	.st0{fill:#FFFFFF;}
</style>
<path class="st0" d="M8.8,36.4c-4.4,0-8-3.6-8-8c0-2,0.8-3.9,2-5.3V6.4c0-3.3,2.7-6,6-6c3.3,0,6,2.7,6,6v16.7c1.2,1.4,2,3.3,2,5.3
	C16.8,32.9,13.2,36.4,8.8,36.4z M10.8,25v-4.3V10.4v-4c0-1.1-0.9-2-2-2s-2,0.9-2,2v4v10.3V25c-1.2,0.7-2,2-2,3.4c0,2.2,1.8,4,4,4
	c2.2,0,4-1.8,4-4C12.8,27,12,25.7,10.8,25z M8.8,31.4c-1.7,0-3-1.3-3-3s1.3-3,3-3c1.7,0,3,1.3,3,3S10.4,31.4,8.8,31.4z"/>
</svg>
