<?xml version="1.0" encoding="utf-8"?>
<!-- Generator: Adobe Illustrator 21.1.0, SVG Export Plug-In . SVG Version: 6.00 Build 0)  -->
<svg version="1.1" id="Layer_1" xmlns="http://www.w3.org/2000/svg" xmlns:xlink="http://www.w3.org/1999/xlink" x="0px" y="0px"
	 viewBox="0 0 52.3 42.3" style="enable-background:new 0 0 52.3 42.3;" xml:space="preserve">
<style type="text/css">
	.st0{fill:#FFFFFF;}
</style>
<path class="st0" d="M41.7,24.6L41.7,24.6h-3c-1.1,0-2-0.9-2-2s0.9-2,2-2h3c1.1,0,2-0.9,2-2s-0.9-2-2-2s-2-0.9-2-2s0.9-2,2-2
	c0.1,0,0.3,0,0.4,0c3.1,0.2,5.6,2.8,5.6,6C47.7,21.9,45,24.6,41.7,24.6z M31.7,20.6h-2h-7h-13c-1.1,0-2,0.9-2,2s0.9,2,2,2h2h4h3h4h3
	h4h2c3.3,0,6,2.7,6,6c0,3.2-2.5,5.7-5.6,6c-0.1,0-0.3,0-0.4,0c-1.1,0-2-0.9-2-2s0.9-2,2-2s2-0.9,2-2s-0.9-2-2-2h-2h-4h-3h-4h-3h-4
	h-2c-3.3,0-6-2.7-6-6c0-3.2,2.5-5.7,5.6-6c0.1,0,0.3,0,0.4,0l0,0h13h7h2c1.1,0,2-0.9,2-2s-0.9-2-2-2s-2-0.9-2-2s0.9-2,2-2
	c0.1,0,0.3,0,0.4,0c3.1,0.2,5.6,2.8,5.6,6C37.7,17.9,35,20.6,31.7,20.6z"/>
</svg>
