<svg xmlns="http://www.w3.org/2000/svg" viewBox="0 0 211.78 344.93"><defs><style>.cls-1{fill:#fff;}</style></defs><title>Asset 6</title><g id="Layer_2" data-name="Layer 2"><g id="Layer_1-2" data-name="Layer 1"><path class="cls-1" d="M116.43,51.66a28.43,28.43,0,0,1,3-.31c11.31.22,19.23,7,22.8,20.12,2,7.37,3.3,14.93,5.22,22.33,3,11.66,10.83,17.76,22.67,19.34C183.54,115,194.65,109.9,199,99.59a31.76,31.76,0,0,0-7.5-35.36c-14-13.45-31.77-19.05-50.22-22.72-8.08-1.6-16.33-2.29-25-3.47V0h-12V38.35c-5.16.4-9.77.72-14.37,1.12-21.06,1.84-40.92,7-58,20.26C12.89,74.36,3.87,99.82,10.38,122.12c4.88,16.72,16.2,28.88,30.71,37.32,19.1,11.11,39,20.8,58.72,30.87,3.28,1.67,4.43,3.5,4.41,7.2-.16,31-.09,62-.09,93v5.21c-17.41,3.22-32.34-5.79-37.08-21.87-2.58-8.77-4.89-17.63-7.7-26.32-3.36-10.38-11-16-21.57-17.6a60.72,60.72,0,0,0-10.45-.39C8.09,230-3.39,245.06.89,263.83,4,277.24,13,285.72,24.21,292.31c17.63,10.35,37.2,14.11,57.19,16.12,7.39.74,14.83,1,22.92,1.52v35h12.05V309.66c6.42-.81,12.37-1.33,18.24-2.32,23.7-4,45.07-12.5,61.42-31.22,16.78-19.22,21.71-50.48,7.13-72.38-8.41-12.62-19.81-22-33-29.11-16.28-8.73-32.81-17-49.33-25.24-3.24-1.62-4.49-3.53-4.47-7.26.17-28.49.09-57,.09-85.47Z"/><path d="M116.43,51.66v5c0,28.49.08,57-.09,85.47,0,3.73,1.23,5.64,4.47,7.26,16.52,8.27,33.05,16.51,49.33,25.24,13.21,7.08,24.61,16.49,33,29.11,14.58,21.9,9.65,53.16-7.13,72.38-16.35,18.72-37.72,27.21-61.42,31.22-5.87,1-11.82,1.51-18.24,2.32v35.27H104.32V310c-8.09-.52-15.53-.78-22.92-1.52-20-2-39.56-5.77-57.19-16.12C13,285.72,4,277.24.89,263.83c-4.28-18.77,7.2-33.81,26.44-34.32a60.72,60.72,0,0,1,10.45.39c10.61,1.58,18.21,7.22,21.57,17.6,2.81,8.69,5.12,17.55,7.7,26.32,4.74,16.08,19.67,25.09,37.08,21.87v-5.21c0-31-.07-62,.09-93,0-3.7-1.13-5.53-4.41-7.2-19.69-10.07-39.62-19.76-58.72-30.87-14.51-8.44-25.83-20.6-30.71-37.32-6.51-22.3,2.51-47.76,21.4-62.39,17.13-13.25,37-18.42,58.05-20.26,4.6-.4,9.21-.72,14.37-1.12V0h12V38c8.72,1.18,17,1.87,25,3.47,18.45,3.67,36.17,9.27,50.22,22.72A31.76,31.76,0,0,1,199,99.59c-4.3,10.31-15.41,15.36-28.87,13.55-11.84-1.58-19.65-7.68-22.67-19.34-1.92-7.4-3.21-15-5.22-22.33-3.57-13.09-11.49-19.9-22.8-20.12A28.43,28.43,0,0,0,116.43,51.66Zm.3,147.78v94.84c28.08-2.63,42.2-26.35,36.63-50.7C148.73,223.37,133.45,211.33,116.73,199.44ZM103.82,52.2c-.61-.22-.93-.46-1.21-.42a44.66,44.66,0,0,0-4.92.81c-13.37,3.35-23.84,9.84-27.45,24.35-6,24,9.08,48.68,33.58,61.83Z"/></g></g></svg>