<svg xmlns="http://www.w3.org/2000/svg" viewBox="0 0 266.89 135.94"><defs><style>.cls-1{fill:#ddb462;}</style></defs><title>Asset 1</title><g id="Layer_2" data-name="Layer 2"><g id="Layer_1-2" data-name="Layer 1"><path class="cls-1" d="M94.8,89.18v-4h11.89V4H94.8V0h47.86q10,0,16.94,3.42,12.49,6.1,12.49,20.22a25.87,25.87,0,0,1-2.38,11.15q-7.13,15.16-32.25,15.16H125V85.17h10.85q3.12.3,4,4ZM125,4V45.48h11.59q15.9-1.19,15.9-21,0-2.08-.15-4Q150.54,4,136,4Z"/><path class="cls-1" d="M17.75,120.44c0,5.1-3.31,8-9,8H2.65v7.35H0V112.66H8.71C14.44,112.66,17.75,115.51,17.75,120.44Zm-2.55.07c0-3.54-2.42-5.4-6.59-5.4h-6V126h6C12.78,126,15.2,124.15,15.2,120.51Z"/><path class="cls-1" d="M44.24,124.25a11.83,11.83,0,0,1-12.12,11.69,11.68,11.68,0,1,1,0-23.34A11.8,11.8,0,0,1,44.24,124.25Zm-21.59,0a9.44,9.44,0,0,0,18.87,0,9.44,9.44,0,0,0-18.87,0Z"/><path class="cls-1" d="M55.8,115.14c-3,0-4.93,1.19-4.93,3.18,0,6,13,2.88,13,11.29,0,3.84-3.41,6.32-8.38,6.32a13.23,13.23,0,0,1-8.87-3.54l1.19-2.28a11.65,11.65,0,0,0,7.72,3.25c3.34,0,5.43-1.36,5.43-3.61,0-6.19-13-2.91-13-11.23,0-3.64,3.21-6,8-6a13.71,13.71,0,0,1,7.35,2.15l-1.13,2.35A12.21,12.21,0,0,0,55.8,115.14Z"/><path class="cls-1" d="M72,112.66v10.5h14v-10.5h2.65v23.18H85.93V125.57H72v10.26H69.31V112.66Z"/><path class="cls-1" d="M105.07,112.66l6.36,20.2,6.29-20.2h2.65l6.36,20.2,6.29-20.2h2.75L128,135.84h-2.72L119,116.2l-6.32,19.64H110l-7.75-23.18Z"/><path class="cls-1" d="M154.94,112.66v2.45H141.86v7.78h11.69v2.42H141.86v8.08h13.51v2.45H139.21V112.66Z"/><path class="cls-1" d="M175.4,129.91H162.78l-2.58,5.93h-2.81l10.4-23.18h2.75l10.36,23.18H178Zm-1.06-2.45-5.26-11.92-5.2,11.92Z"/><path class="cls-1" d="M197,112.66v2.45h-7.58v20.73h-2.65V115.11h-7.55v-2.45Z"/><path class="cls-1" d="M203.51,112.66v10.5h14v-10.5h2.65v23.18h-2.65V125.57h-14v10.26h-2.65V112.66Z"/><path class="cls-1" d="M242.89,112.66v2.45H229.81v7.78h11.69v2.42H229.81v8.08h13.51v2.45H227.16V112.66Z"/><path class="cls-1" d="M263.88,135.84,259,128.42c-.46,0-1,.07-1.49.07h-6.16v7.35h-2.65V112.66h8.81c5.79,0,9.14,2.85,9.14,7.78,0,3.81-1.89,6.42-5.23,7.48l5.46,7.91Zm-6.36-9.8c4.21,0,6.59-1.89,6.59-5.53s-2.38-5.4-6.59-5.4h-6.16V126Z"/></g></g></svg>