<?xml version="1.0" encoding="utf-8"?>
<!-- Generator: Adobe Illustrator 21.1.0, SVG Export Plug-In . SVG Version: 6.00 Build 0)  -->
<svg version="1.1" id="Layer_1" xmlns="http://www.w3.org/2000/svg" xmlns:xlink="http://www.w3.org/1999/xlink" x="0px" y="0px"
	 viewBox="0 0 50 50" style="enable-background:new 0 0 50 50;" xml:space="preserve">
<style type="text/css">
	.st0{fill:#FFFFFF;}
</style>
<g>
	<path class="st0" d="M15.7,45.1h19.4c4.3,0,7.9-3.6,7.9-7.9V17.5c0-4.3-3.6-7.9-7.9-7.9h-0.3V7.9c0-1.1-0.9-2-2-2s-2,0.9-2,2v1.7
		H20V7.9c0-1.1-0.9-2-2-2c-1.1,0-2,0.9-2,2v1.7h-0.3c-4.3,0-7.9,3.6-7.9,7.9v19.6C7.8,41.5,11.4,45.1,15.7,45.1z M35.2,41.2H15.7
		c-2.2,0-3.9-1.8-3.9-3.9V24.5h27.3v12.7C39.1,39.4,37.3,41.2,35.2,41.2z M15.7,13.6H16v2.7c0,1.1,0.9,2,2,2c1.1,0,2-0.9,2-2v-2.7
		h11v2.7c0,1.1,0.9,2,2,2s2-0.9,2-2v-2.7h0.3c2.2,0,3.9,1.8,3.9,3.9v3H11.8v-3C11.8,15.4,13.5,13.6,15.7,13.6z"/>
</g>
</svg>
