<?xml version="1.0" encoding="utf-8"?>
<!-- Generator: Adobe Illustrator 21.1.0, SVG Export Plug-In . SVG Version: 6.00 Build 0)  -->
<svg version="1.1" id="Layer_1" xmlns="http://www.w3.org/2000/svg" xmlns:xlink="http://www.w3.org/1999/xlink" x="0px" y="0px"
	 viewBox="0 0 60 60" style="enable-background:new 0 0 60 60;" xml:space="preserve">
<style type="text/css">
	.st0{fill:#FFFFFF;}
</style>
<path class="st0" d="M51.7,41.9L51.7,41.9L51,42h-3c-1.1,0-2-0.9-2-2c0-1.1,0.9-2,2-2h3c1.1,0,2-0.9,2-2s-0.9-2-2-2s-2-0.9-2-2
	c0-1.1,0.9-2,2-2c0.1,0,0.3,0,0.4,0c3.1,0.2,5.6,2.8,5.6,6C57,39.1,54.7,41.6,51.7,41.9z M41,30c-1.1,0-2-0.9-2-2s0.9-2,2-2
	c0.1,0,0.3,0,0.4,0c3.1,0.2,5.6,2.8,5.6,6c0,3.1-2.3,5.6-5.2,5.9V38H41h-8c-4,0-11.4,0-14,0c-1.1,0-2,0.9-2,2c0,1.1,0.9,2,2,2h22
	h0.8v0.1c3,0.4,5.2,2.9,5.2,5.9c0,3.2-2.5,5.7-5.6,6c-0.1,0-0.3,0-0.4,0c-1.1,0-2-0.9-2-2s0.9-2,2-2s2-0.9,2-2c0-1.1-0.9-2-2-2H19
	h-0.8v-0.1c-3-0.4-5.2-2.9-5.2-5.9c0-1.1,0.3-2,0.8-2.9C7.5,34.9,3,29,3,22c0-8.8,7.2-16,16-16c6,0,11.2,3.3,14,8.2
	c0.7-0.1,1.3-0.2,2-0.2c5.9,0,10.8,4.3,11.8,9.9c-1.4-1-3.1-1.6-4.8-1.8c-1.4-2.4-4-4-6.9-4c-1.6,0-3.1,0.5-4.3,1.3
	C29.4,14,24.7,10,19,10c-6.6,0-12,5.4-12,12c0,6.6,5.4,12,12,12c2.6,0,8.2,0,12.2,0H41c1.1,0,2-0.9,2-2C43,30.9,42.1,30,41,30z"/>
</svg>
