<?xml version="1.0" encoding="utf-8"?>
<!-- Generator: Adobe Illustrator 21.1.0, SVG Export Plug-In . SVG Version: 6.00 Build 0)  -->
<svg version="1.1" id="Layer_1" xmlns="http://www.w3.org/2000/svg" xmlns:xlink="http://www.w3.org/1999/xlink" x="0px" y="0px"
	 viewBox="0 0 60 60" style="enable-background:new 0 0 60 60;" xml:space="preserve">
<style type="text/css">
	.st0{fill:#FFFFFF;}
</style>
<path class="st0" d="M55,32h-4c-1.1,0-2-0.9-2-2c0-1.1,0.9-2,2-2h4c1.1,0,2,0.9,2,2C57,31.1,56.1,32,55,32z M47.1,18.7
	c-0.8,0.8-2,0.8-2.8,0c-0.8-0.8-0.8-2,0-2.8l2.8-2.8c0.8-0.8,2-0.8,2.8,0c0.8,0.8,0.8,2,0,2.8L47.1,18.7z M44.2,34.3L44.2,34.3
	c1.7,2.1,2.8,4.8,2.8,7.7c0,6.6-5.4,12-12,12c-2.8,0-12.8,0-16,0c-8.8,0-16-7.2-16-16s7.2-16,16-16c1.6,0,3.1,0.2,4.5,0.7
	c2.2-2.8,5.6-4.7,9.5-4.7c6.6,0,12,5.4,12,12C45,31.5,44.7,33,44.2,34.3z M7,38c0,6.6,5.4,12,12,12c3.6,0,13,0,16,0c4.4,0,8-3.6,8-8
	c0-4.4-3.6-8-8-8c-1.6,0-3.1,0.5-4.3,1.3C29.4,30,24.7,26,19,26C12.4,26,7,31.4,7,38z M33,22c-2.2,0-4.2,0.9-5.7,2.3
	c2.3,1.4,4.3,3.5,5.6,5.9c0.7-0.1,1.3-0.2,2-0.2c2.1,0,4.1,0.6,5.9,1.5l0,0c0.1-0.5,0.2-1,0.2-1.5C41,25.6,37.4,22,33,22z M33,14
	c-1.1,0-2-0.9-2-2V8c0-1.1,0.9-2,2-2c1.1,0,2,0.9,2,2v4C35,13.1,34.1,14,33,14z M18.9,18.7L16,15.9c-0.8-0.8-0.8-2,0-2.8
	c0.8-0.8,2-0.8,2.8,0l2.8,2.8c0.8,0.8,0.8,2,0,2.8C20.9,19.5,19.6,19.5,18.9,18.7z"/>
</svg>
