<?xml version="1.0" encoding="utf-8"?>
<!-- Generator: Adobe Illustrator 21.1.0, SVG Export Plug-In . SVG Version: 6.00 Build 0)  -->
<svg version="1.1" id="Layer_1" xmlns="http://www.w3.org/2000/svg" xmlns:xlink="http://www.w3.org/1999/xlink" x="0px" y="0px"
	 viewBox="0 0 50 50" style="enable-background:new 0 0 50 50;" xml:space="preserve">
<style type="text/css">
	.st0{fill:#FFFFFF;}
</style>
<path class="st0" d="M39,35.9v-4.4c2.4-1.4,4-4,4-6.9c0-4.4-3.6-8-8-8c-1.6,0-3.1,0.5-4.3,1.3c-1.2-5.3-6-9.3-11.7-9.3
	c-6.6,0-12,5.4-12,12c0,3.5,1.5,6.7,4,8.9v4.9c-4.8-2.8-8-7.9-8-13.8c0-8.8,7.2-16,16-16c6,0,11.2,3.3,14,8.2c0.7-0.1,1.3-0.2,2-0.2
	c6.6,0,12,5.4,12,12C47,29.9,43.7,34.3,39,35.9z M17,28.6c1.1,0,2,0.9,2,2c0,1.1-0.9,2-2,2c-1.1,0-2-0.9-2-2
	C15,29.5,15.9,28.6,17,28.6z M17,36.6c1.1,0,2,0.9,2,2c0,1.1-0.9,2-2,2c-1.1,0-2-0.9-2-2C15,37.5,15.9,36.6,17,36.6z M25,32.6
	c1.1,0,2,0.9,2,2c0,1.1-0.9,2-2,2c-1.1,0-2-0.9-2-2C23,33.5,23.9,32.6,25,32.6z M25,40.6c1.1,0,2,0.9,2,2c0,1.1-0.9,2-2,2
	c-1.1,0-2-0.9-2-2C23,41.5,23.9,40.6,25,40.6z M33,28.6c1.1,0,2,0.9,2,2c0,1.1-0.9,2-2,2c-1.1,0-2-0.9-2-2
	C31,29.5,31.9,28.6,33,28.6z M33,36.6c1.1,0,2,0.9,2,2c0,1.1-0.9,2-2,2c-1.1,0-2-0.9-2-2C31,37.5,31.9,36.6,33,36.6z"/>
</svg>
