<?xml version="1.0" encoding="utf-8"?>
<!-- Generator: Adobe Illustrator 21.1.0, SVG Export Plug-In . SVG Version: 6.00 Build 0)  -->
<svg version="1.1" id="Layer_1" xmlns="http://www.w3.org/2000/svg" xmlns:xlink="http://www.w3.org/1999/xlink" x="0px" y="0px"
	 viewBox="0 0 50 50" style="enable-background:new 0 0 50 50;" xml:space="preserve">
<style type="text/css">
	.st0{fill:#FFFFFF;}
</style>
<path class="st0" d="M45,36.6H5c-1.1,0-2-0.9-2-2c0-1.1,0.9-2,2-2h40c1.1,0,2,0.9,2,2C47,35.7,46.1,36.6,45,36.6z M45,28.6H5
	c-1.1,0-2-0.9-2-2c0-1.1,0.9-2,2-2h40c1.1,0,2,0.9,2,2C47,27.7,46.1,28.6,45,28.6z M35,16.6c-1.6,0-3.1,0.5-4.3,1.3
	c-1.2-5.3-6-9.3-11.7-9.3c-6.6,0-12,5.4-12,12H3c0-8.8,7.2-16,16-16c6,0,11.2,3.3,14,8.2c0.7-0.1,1.3-0.2,2-0.2
	c5.2,0,9.7,3.3,11.3,8h-4.4C40.5,18.3,38,16.6,35,16.6z M5,40.6h40c1.1,0,2,0.9,2,2c0,1.1-0.9,2-2,2H5c-1.1,0-2-0.9-2-2
	C3,41.5,3.9,40.6,5,40.6z"/>
</svg>
