<?xml version="1.0" encoding="utf-8"?>
<!-- Generator: Adobe Illustrator 21.1.0, SVG Export Plug-In . SVG Version: 6.00 Build 0)  -->
<svg version="1.1" id="Layer_1" xmlns="http://www.w3.org/2000/svg" xmlns:xlink="http://www.w3.org/1999/xlink" x="0px" y="0px"
	 viewBox="0 0 50 50" style="enable-background:new 0 0 50 50;" xml:space="preserve">
<style type="text/css">
	.st0{fill:#FFFFFF;}
</style>
<path class="st0" d="M25,37c-6.6,0-12-5.4-12-12c0-6.6,5.4-12,12-12c0.8,0,1.5,0.1,2.2,0.2C27.1,13.8,27,14.4,27,15c0,4.4,3.6,8,8,8
	c0.6,0,1.2-0.1,1.8-0.2c0.1,0.7,0.2,1.5,0.2,2.2C37,31.6,31.6,37,25,37z M23.2,17.2C19.7,18,17,21.2,17,25c0,4.4,3.6,8,8,8
	c3.8,0,7-2.7,7.8-6.2C27.9,25.9,24.1,22.1,23.2,17.2z"/>
</svg>
