<?xml version="1.0" encoding="utf-8"?>
<!-- Generator: Adobe Illustrator 21.1.0, SVG Export Plug-In . SVG Version: 6.00 Build 0)  -->
<svg version="1.1" id="Layer_1" xmlns="http://www.w3.org/2000/svg" xmlns:xlink="http://www.w3.org/1999/xlink" x="0px" y="0px"
	 viewBox="0 0 50 50" style="enable-background:new 0 0 50 50;" xml:space="preserve">
<style type="text/css">
	.st0{fill:#FFFFFF;}
</style>
<path class="st0" d="M47,27h-4c-1.1,0-2-0.9-2-2s0.9-2,2-2h4c1.1,0,2,0.9,2,2S48.1,27,47,27z M39.1,13.7c-0.8,0.8-2,0.8-2.8,0
	c-0.8-0.8-0.8-2,0-2.8L39.1,8c0.8-0.8,2-0.8,2.8,0c0.8,0.8,0.8,2,0,2.8L39.1,13.7z M25,37c-6.6,0-12-5.4-12-12c0-6.6,5.4-12,12-12
	c6.6,0,12,5.4,12,12C37,31.6,31.6,37,25,37z M25,17c-4.4,0-8,3.6-8,8c0,4.4,3.6,8,8,8s8-3.6,8-8C33,20.6,29.4,17,25,17z M25,9
	c-1.1,0-2-0.9-2-2V3c0-1.1,0.9-2,2-2c1.1,0,2,0.9,2,2v4C27,8.1,26.1,9,25,9z M10.9,13.7L8,10.9c-0.8-0.8-0.8-2,0-2.8s2-0.8,2.8,0
	l2.8,2.8c0.8,0.8,0.8,2,0,2.8S11.6,14.5,10.9,13.7z M9,25c0,1.1-0.9,2-2,2H3c-1.1,0-2-0.9-2-2s0.9-2,2-2h4C8.1,23,9,23.9,9,25z
	 M10.9,36.3c0.8-0.8,2-0.8,2.8,0c0.8,0.8,0.8,2,0,2.8L10.9,42c-0.8,0.8-2,0.8-2.8,0c-0.8-0.8-0.8-2,0-2.8L10.9,36.3z M25,41
	c1.1,0,2,0.9,2,2v4c0,1.1-0.9,2-2,2c-1.1,0-2-0.9-2-2v-4C23,41.9,23.9,41,25,41z M39.1,36.3l2.8,2.8c0.8,0.8,0.8,2,0,2.8
	c-0.8,0.8-2,0.8-2.8,0l-2.8-2.8c-0.8-0.8-0.8-2,0-2.8C37.1,35.5,38.4,35.5,39.1,36.3z"/>
</svg>
