<?xml version="1.0" encoding="utf-8"?>
<!-- Generator: Adobe Illustrator 21.1.0, SVG Export Plug-In . SVG Version: 6.00 Build 0)  -->
<svg version="1.1" id="Layer_1" xmlns="http://www.w3.org/2000/svg" xmlns:xlink="http://www.w3.org/1999/xlink" x="0px" y="0px"
	 viewBox="0 0 50 50" style="enable-background:new 0 0 50 50;" xml:space="preserve">
<style type="text/css">
	.st0{fill:#FFFFFF;}
</style>
<g>
	<g>
		<path class="st0" d="M13.7,16.9L10.9,14c-0.8-0.8-2-0.8-2.8,0c-0.8,0.8-0.8,2,0,2.8l2.8,2.8c0.8,0.8,2,0.8,2.8,0
			C14.5,18.9,14.5,17.6,13.7,16.9z M47,29h-4c-1.1,0-2,0.9-2,2s0.9,2,2,2h4c1.1,0,2-0.9,2-2S48.1,29,47,29z M7,29H3
			c-1.1,0-2,0.9-2,2s0.9,2,2,2h4c1.1,0,2-0.9,2-2S8.1,29,7,29z M35,39H15c-1.1,0-2,0.9-2,2s0.9,2,2,2h20c1.1,0,2-0.9,2-2
			S36.1,39,35,39z M42,14c-0.8-0.8-2-0.8-2.8,0l-2.8,2.8c-0.8,0.8-0.8,2,0,2.8c0.8,0.8,2,0.8,2.8,0l2.8-2.8
			C42.7,16.1,42.7,14.8,42,14z M25,15c1.1,0,2-0.9,2-2V9c0-1.1-0.9-2-2-2c-1.1,0-2,0.9-2,2v4C23,14.1,23.9,15,25,15z M25,19
			c-6.6,0-12,5.4-12,12c0,1.4,0.3,2.7,0.7,4h4.4c-0.7-1.2-1.1-2.5-1.1-4c0-4.4,3.6-8,8-8c4.4,0,8,3.6,8,8c0,1.5-0.4,2.8-1.1,4h4.4
			c0.4-1.3,0.7-2.6,0.7-4C37,24.4,31.6,19,25,19z M25,35.2c0.6,0,1-0.4,1-1v-3.8l2.5,2.5c0.4,0.4,1,0.4,1.4,0c0.4-0.4,0.4-1,0-1.4
			l-4.2-4.2c-0.4-0.4-1-0.4-1.4,0l-4.2,4.2c-0.4,0.4-0.4,1,0,1.4s1,0.4,1.4,0l2.5-2.5v3.8C24,34.8,24.4,35.2,25,35.2z"/>
	</g>
</g>
</svg>
