<?xml version="1.0" encoding="utf-8"?>
<!-- Generator: Adobe Illustrator 21.1.0, SVG Export Plug-In . SVG Version: 6.00 Build 0)  -->
<svg version="1.1" id="Layer_1" xmlns="http://www.w3.org/2000/svg" xmlns:xlink="http://www.w3.org/1999/xlink" x="0px" y="0px"
	 viewBox="0 0 50 50" style="enable-background:new 0 0 50 50;" xml:space="preserve">
<style type="text/css">
	.st0{fill:#FFFFFF;}
</style>
<path class="st0" d="M47,33h-4c-1.1,0-2-0.9-2-2s0.9-2,2-2h4c1.1,0,2,0.9,2,2S48.1,33,47,33z M39.1,19.7c-0.8,0.8-2,0.8-2.8,0
	s-0.8-2,0-2.8l2.8-2.8c0.8-0.8,2-0.8,2.8,0s0.8,2,0,2.8L39.1,19.7z M36.3,35h-4.4c0.7-1.2,1.1-2.5,1.1-4c0-4.4-3.6-8-8-8s-8,3.6-8,8
	c0,1.5,0.4,2.8,1.1,4h-4.4c-0.4-1.3-0.7-2.6-0.7-4c0-6.6,5.4-12,12-12s12,5.4,12,12C37,32.4,36.7,33.7,36.3,35z M25,15
	c-1.1,0-2-0.9-2-2V9c0-1.1,0.9-2,2-2s2,0.9,2,2v4C27,14.1,26.1,15,25,15z M10.9,19.7L8,16.9c-0.8-0.8-0.8-2,0-2.8s2-0.8,2.8,0
	l2.8,2.8c0.8,0.8,0.8,2,0,2.8S11.6,20.5,10.9,19.7z M9,31c0,1.1-0.9,2-2,2H3c-1.1,0-2-0.9-2-2s0.9-2,2-2h4C8.1,29,9,29.9,9,31z
	 M25,27c0.6,0,1,0.4,1,1v3.8l2.5-2.5c0.4-0.4,1-0.4,1.4,0s0.4,1,0,1.4l-4.2,4.2c-0.4,0.4-1,0.4-1.4,0l-4.2-4.2c-0.4-0.4-0.4-1,0-1.4
	s1-0.4,1.4,0l2.5,2.5V28C24,27.4,24.4,27,25,27z M15,39h20c1.1,0,2,0.9,2,2s-0.9,2-2,2H15c-1.1,0-2-0.9-2-2S13.9,39,15,39z"/>
</svg>
