<?xml version="1.0" encoding="utf-8"?>
<!-- Generator: Adobe Illustrator 21.1.0, SVG Export Plug-In . SVG Version: 6.00 Build 0)  -->
<svg version="1.1" id="Layer_1" xmlns="http://www.w3.org/2000/svg" xmlns:xlink="http://www.w3.org/1999/xlink" x="0px" y="0px"
	 viewBox="0 0 174.7 112.6" style="enable-background:new 0 0 174.7 112.6;" xml:space="preserve">
<style type="text/css">
	.st0{fill:#D6D6D6;}
</style>
<g>
	<path class="st0" d="M20.2,57c-1.8-4.1-3.2-8.4-4.2-12.8c0.3,0,0.5,0,0.8-0.1c3,1.5,6,3,9,4.4C24,51.4,22.1,54.2,20.2,57
		 M26.9,46.8C24.9,45.9,23,45,21,44c2.4,0,4.9,0.2,7.3,0.5C27.8,45.3,27.3,46,26.9,46.8 M15.9,43.9l0-0.2l0,0L15.9,43.9 M13.2,40.1
		l0.3,2c1,6,2.9,11.8,5.5,17.3l0.7,1.5l1-1.4c2.3-3.3,4.6-6.7,6.8-10.2c6.7,3.1,13.5,6.1,20.3,8.8l0.7-1.9c-6.7-2.7-13.4-5.6-20-8.6
		c0.7-1.1,1.4-2.3,2.1-3.4l0.8-1.3l-1.5-0.2C27,42.3,23.8,42,20.6,42c-1.2,0-2.3,0-3.5,0.1c-0.7-0.4-1.5-0.7-2.2-1.1L13.2,40.1"/>
	<path class="st0" d="M20.6,100.1c-3.3-1.2-6.6-2.6-9.7-4.3c3-0.2,6-0.3,9-0.4C20.3,97,20.5,98.5,20.6,100.1 M6.4,94.1
		c3.6-2.4,7-5.1,10.2-8c1.2,2.4,2.2,4.9,2.9,7.4c-4,0.1-8.1,0.3-12.1,0.6L6.4,94.1 M17.1,82.8l-0.9,0.9C11.9,87.8,7.1,91.4,2,94.5
		l1,1.7c0.7-0.4,1.5-0.9,2.2-1.4l1.7,1c4.6,2.7,9.4,4.9,14.5,6.6l1.4,0.5l-0.1-1.4c-0.1-2.1-0.3-4.1-0.7-6.1
		c5.8-0.2,11.6-0.2,17.4-0.3l0-2c-0.2,0-0.4,0-0.6,0c-5.7,0-11.5,0.1-17.3,0.3c-0.8-3.3-2.1-6.5-3.8-9.5L17.1,82.8"/>
	<path class="st0" d="M150.3,50l-3.3-4.4c1.9-1.4,3.8-2.8,5.6-4.3C152.1,44.2,151.3,47.2,150.3,50 M145.7,44l-2.3-3.1
		c2.7-0.6,5.4-1,8.1-1.4C149.7,41,147.7,42.5,145.7,44 M157.7,36.8l-3.1,0.3c-4.4,0.4-8.8,1.1-13.2,2.1l-1.5,0.3l4.1,5.5
		c-5.6,3.9-11.5,7.4-17.6,10.3l0.9,1.8c6.3-3,12.3-6.5,18-10.5l5.4,7.2l0.7-1.6c1.8-4.1,2.9-8.5,3.3-13c0.2-0.2,0.4-0.3,0.6-0.5
		L157.7,36.8"/>
	<path class="st0" d="M160.4,105.9c-0.5-3.3-0.8-6.5-1.1-9.8c3.3-0.1,6.6-0.1,9.9-0.3L160.4,105.9 M159.2,94.1
		c-0.1-1.8-0.2-3.6-0.3-5.4c-0.1-1.4-0.1-2.8,0.3-4c4,2.2,7.4,5.4,9.8,9.2C165.7,93.9,162.4,94,159.2,94.1 M158.2,81.9l-0.5,0.8
		c-1,1.8-1,3.9-0.9,6c0.1,1.8,0.2,3.6,0.3,5.4c-3.5,0.1-7.1,0.1-10.6,0.1c-4.2,0-8.4,0-12.6-0.1l0,2c4.2,0.1,8.4,0.1,12.7,0.1
		c3.6,0,7.2,0,10.8-0.1c0.4,4.1,0.8,8.2,1.5,12.3l0.3,2.1l12.8-14.8l0.4,0l-0.1-0.3l0.5-0.6l-1.5-1.3l-0.1,0.1
		c-2.8-4.8-7.1-8.7-12-11.2L158.2,81.9"/>
	<path class="st0" d="M88.6,17.3c-0.4-2.5-0.8-5.1-1.2-7.6c2.6,1.4,5.2,3,7.6,4.8C92.9,15.4,90.7,16.3,88.6,17.3 M77.3,21.8L85,7.9
		c0.6,3.4,1.2,6.8,1.7,10.2c-3,1.3-6.1,2.5-9.2,3.7L77.3,21.8 M85.9,2.1L74.6,22.6l0.4,0.5c0.3,0.4,0.8,0.8,1.7,0.8
		c0.4,0,0.9-0.1,1.5-0.3c2.9-1.1,5.9-2.3,8.8-3.5c1.1,7.7,1.9,15.4,2.4,23.1l2-0.1c-0.5-7.9-1.3-15.9-2.5-23.8
		c2.9-1.2,5.7-2.5,8.5-3.8l1.5-0.7l-1.4-1c-3.4-2.5-7-4.7-10.7-6.6c-0.1-0.8-0.3-1.6-0.4-2.4L85.9,2.1"/>
</g>
</svg>
