<?xml version="1.0" encoding="utf-8"?>
<!-- Generator: Adobe Illustrator 21.1.0, SVG Export Plug-In . SVG Version: 6.00 Build 0)  -->
<svg version="1.1" id="Layer_1" xmlns="http://www.w3.org/2000/svg" xmlns:xlink="http://www.w3.org/1999/xlink" x="0px" y="0px"
	 viewBox="0 0 296.7 96" style="enable-background:new 0 0 296.7 96;" xml:space="preserve">
<style type="text/css">
	.st0{opacity:0.2;fill:#303030;}
</style>
<path class="st0" d="M100.5,92.2C90.3,91.8,80,91,69.5,89.8c-19.3-2.3-53.2-8.6-63.2-25.2c-7.6-12.7,3.2-25.8,17.2-33.2
	C39.9,22.7,62,19.1,79.4,16.9c36.7-4.6,74.5-5.3,112.3-2.3l-0.5,3.1c-37.1-3-74.3-2.3-110.4,2.2C64,22.1,42.8,25.5,27.2,33.7
	c-12.8,6.7-22.7,18.6-15.9,30c9.4,15.7,44.4,21.4,59,23.1c64.2,7.5,123.1-2.4,161.2-12.1c14-3.6,29.9-8.2,41.5-15.6
	c11.9-7.7,16.9-17.3,13.4-25.9c-3.6-8.7-16.6-16.8-34.1-21.2c-16.6-4.2-34.8-5-52-5.2c-28.1-0.4-56.3,0.7-83.9,3.2l-1.1-3.1
	c27.9-2.5,56.4-3.6,84.9-3.2c17.7,0.2,36.6,1.1,54.1,5.5c19.4,4.9,33.3,13.7,37.4,23.5c3.9,9.5-1.6,20.2-14.6,28.6
	c-12.2,7.8-28.7,12.7-43.2,16.3C201.3,85.8,153.7,94.2,100.5,92.2z"/>
</svg>
