<?xml version="1.0" encoding="utf-8"?>
<!-- Generator: Adobe Illustrator 21.1.0, SVG Export Plug-In . SVG Version: 6.00 Build 0)  -->
<svg version="1.1" id="Layer_1" xmlns="http://www.w3.org/2000/svg" xmlns:xlink="http://www.w3.org/1999/xlink" x="0px" y="0px"
	 viewBox="0 0 43.1 79.6" style="enable-background:new 0 0 43.1 79.6;" xml:space="preserve">
<style type="text/css">
	.st0{fill:#D6D6D6;}
</style>
<g>
	<path class="st0" d="M15.9,31.6c-3.9-3.7-7.5-7.7-10.8-12c4.1,0.5,8.1,1.3,12.1,2.2C16.8,25.1,16.3,28.4,15.9,31.6 M17.4,19.8
		c-4-0.9-8.1-1.7-12.2-2.2c4.8-3.4,9.3-7.3,13.5-11.4C18.4,10.8,17.9,15.3,17.4,19.8 M21.1,1l-1.9,2C14.2,8,8.7,12.7,2.9,16.8
		l0.4,0.6l-0.3,0l-2.2-0.3l1.3,1.8c4.1,5.6,8.7,10.8,13.9,15.4l1.4,1.3l0.3-1.8c0.6-3.8,1.1-7.6,1.5-11.4c1.3,0.3,2.5,0.7,3.7,1
		c4.1,1.2,8.3,2.7,11.6,5.5c5.4,4.8,7.3,13.5,4.8,21.2c-2.2,6.7-7.5,12.9-15,17.5c-6.8,4.2-14.6,6.7-22.1,9.2l0.6,1.9
		c7.6-2.5,15.5-5.1,22.5-9.4c7.9-4.8,13.5-11.4,15.8-18.5c2.8-8.6,0.7-18-5.3-23.3c-3.5-3.1-8-4.7-12.3-6c-1.3-0.4-2.7-0.8-4.1-1.1
		c0.6-5.5,1.2-11.1,1.6-16.6L21.1,1"/>
</g>
</svg>
