<?xml version="1.0" encoding="utf-8"?>
<!-- Generator: Adobe Illustrator 21.1.0, SVG Export Plug-In . SVG Version: 6.00 Build 0)  -->
<svg version="1.1" id="Layer_1" xmlns="http://www.w3.org/2000/svg" xmlns:xlink="http://www.w3.org/1999/xlink" x="0px" y="0px"
	 viewBox="0 0 43.1 79.6" style="enable-background:new 0 0 43.1 79.6;" xml:space="preserve">
<style type="text/css">
	.st0{opacity:0.2;fill:#303030;}
</style>
<path class="st0" d="M20.9,79.8l-1.9-2C14,72.7,8.5,68,2.7,63.9l0.4-0.5c-0.1,0-0.2,0-0.3,0l-2.2,0.2l1.3-1.8
	C6,56.2,10.6,51,15.7,46.4l1.4-1.2l0.3,1.8c0.6,3.8,1.1,7.6,1.5,11.4c1.3-0.3,2.5-0.7,3.7-1c4.1-1.2,8.3-2.7,11.6-5.5
	c5.4-4.8,7.3-13.5,4.8-21.2c-2.2-6.7-7.5-12.9-15-17.5C17.2,9,9.5,6.4,2,4l0.6-1.9c7.6,2.5,15.5,5.1,22.5,9.4
	c7.9,4.8,13.5,11.4,15.8,18.5c2.8,8.6,0.7,18-5.3,23.3c-3.5,3.1-8,4.7-12.3,6c-1.3,0.4-2.7,0.8-4.1,1.1c0.6,5.5,1.2,11.1,1.6,16.6
	L20.9,79.8z M5,63.1c4.8,3.4,9.3,7.3,13.5,11.4c-0.4-4.5-0.8-9.1-1.3-13.6C13.2,61.8,9.1,62.6,5,63.1z M15.7,49.1
	c-3.9,3.7-7.5,7.7-10.8,12c4.1-0.5,8.1-1.3,12.1-2.2C16.6,55.6,16.2,52.4,15.7,49.1z"/>
</svg>
