<?xml version="1.0" encoding="utf-8"?>
<!-- Generator: Adobe Illustrator 21.1.0, SVG Export Plug-In . SVG Version: 6.00 Build 0)  -->
<svg version="1.1" id="Layer_1" xmlns="http://www.w3.org/2000/svg" xmlns:xlink="http://www.w3.org/1999/xlink" x="0px" y="0px"
	 viewBox="0 0 164 235.5" style="enable-background:new 0 0 164 235.5;" xml:space="preserve">
<style type="text/css">
	.st0{fill:#FFFFFF;}
</style>
<g>
	<path class="st0" d="M89.8,223.9l-7.4-20c-2.4-6.3-4.8-12.9-8.2-18.9L52.4,214l-0.1-42.9c0-1.9-0.2-4.5-1.9-5.5l-28.9,18.8L22,183
		c2.9-8.7,6.4-17.4,10.4-25.7l0.9,0.4c-3.7,7.8-7,16-9.9,24.2l27-17.5l0.2,0.1c2.4,1.1,2.7,4.2,2.7,6.5l0.1,39.9l20.9-27.8l0.4,0.6
		c3.6,6.2,6.2,13.1,8.6,19.7l6.5,17.4l11.4-33c0.4-1.1,0.9-2.6,2.1-3.5c1.9-1.3,4.6-0.7,7.7,1.9c5.9,4.8,11.6,10,17,15.4l5.6-53.8
		l0.3-0.1c2.5-1,5.1,1,6.8,2.6l19,18.1l-0.7,0.7l-19-18.1c-1.4-1.4-3.5-3.1-5.5-2.5l-5.7,55.3l-0.7-0.7c-5.6-5.6-11.6-11-17.7-16.1
		c-1.9-1.6-4.6-3.1-6.5-1.8c-0.9,0.6-1.3,1.7-1.8,3L89.8,223.9z"/>
	<path class="st0" d="M105.8,232.3L78,186c-4.8,7.7-8.4,16.1-10.8,25l-1.1,4.1l-8.4-48.5l1.8-0.3l7,40.4c2.5-8.2,6.1-15.9,10.7-22.9
		l0.8-1.2l26.5,44.2c1.8-15.7,4.2-31.5,7.2-46.9l0.3-1.6l37.5,34.2c-4.4-22.2-10.5-44.2-18.2-65.5l1.7-0.6
		c8,22.2,14.3,45.2,18.8,68.5l0.5,2.7l-39.2-35.7c-3,15.8-5.4,31.8-7.2,47.8L105.8,232.3z"/>
	<path class="st0" d="M30.7,89.8l-8-23.1l23.7,10.5c0.7,0.3,1.4,0.6,2,0.4c0.9-0.3,1.2-1.5,1.4-2.6l4.1-25.5l0.7,0.5
		c9.1,7.2,17.2,15.5,24.1,24.8L99,36.6l6.4,33.8L160,3.2l0.1,1.2c2,24.8,1.1,49.9-2.9,74.5l-1-0.2c3.9-24.1,4.9-48.7,3-73l-54.3,67
		l-6.3-33.1l-20,37.1l-0.5-0.6c-6.8-9.2-14.7-17.5-23.7-24.7l-3.8,23.8c-0.2,1.3-0.6,2.9-2,3.4c-0.9,0.3-1.8,0-2.7-0.4l-21.6-9.6
		l7.3,20.9L30.7,89.8z"/>
	<path class="st0" d="M27.9,95.2C18.6,79.3,10.4,62.6,3.6,45.4l-0.7-1.9l2,0.6c20.9,6,39.8,17.1,58.1,28.1
		c-2.5-13.8-2.3-28.3,0.7-42l0.4-1.9l43.6,48c1.6-1.3,2.2-3.8,2.6-6.1l7-38.3l1.4,2.1c7.2,11.2,10.9,24.7,10.4,38.1l-2-0.1
		c0.5-12-2.6-24.3-8.7-34.7l-6,33.3c-0.4,2.2-1.1,6.2-4.2,7.9l-0.7,0.4L65.2,32.5c-2.7,13.6-2.7,27.9,0.1,41.5l0.5,2.2l-2-1.2
		c-18.2-10.9-37-22.1-57.6-28.4C12.8,63,20.7,79,29.6,94.2L27.9,95.2z"/>
</g>
</svg>
