<?xml version="1.0" encoding="utf-8"?>
<!-- Generator: Adobe Illustrator 16.0.0, SVG Export Plug-In . SVG Version: 6.00 Build 0)  -->
<!DOCTYPE svg PUBLIC "-//W3C//DTD SVG 1.1//EN" "http://www.w3.org/Graphics/SVG/1.1/DTD/svg11.dtd">
<svg version="1.1" id="Layer_1" xmlns="http://www.w3.org/2000/svg" xmlns:xlink="http://www.w3.org/1999/xlink" x="0px" y="0px"
	 width="415.709px" height="377.498px" viewBox="4.868 151.548 415.709 377.498"
	 enable-background="new 4.868 151.548 415.709 377.498" xml:space="preserve">
<g>
	<path fill="#D6D6D6" d="M49.165,285.169c-4.381-9.979-7.789-20.445-10.222-31.154c0.73,0,1.217,0,1.947-0.244
		c7.302,3.651,14.604,7.302,21.905,10.709C58.413,271.539,53.789,278.354,49.165,285.169 M65.472,260.343
		c-4.868-2.19-9.492-4.381-14.36-6.815c5.841,0,11.926,0.487,17.767,1.217C67.662,256.692,66.445,258.396,65.472,260.343
		 M38.699,253.285v-0.487l0,0V253.285 M32.127,244.036l0.73,4.868c2.434,14.604,7.059,28.72,13.386,42.106l1.704,3.651l2.434-3.407
		c5.598-8.032,11.196-16.308,16.551-24.826c16.307,7.545,32.857,14.847,49.408,21.418l1.704-4.624
		c-16.307-6.571-32.614-13.63-48.678-20.932c1.704-2.677,3.408-5.598,5.111-8.275l1.947-3.164l-3.651-0.487
		c-7.059-0.974-14.847-1.704-22.635-1.704c-2.921,0-5.598,0-8.519,0.243c-1.704-0.974-3.651-1.704-5.354-2.677L32.127,244.036"/>
	<path fill="#D6D6D6" d="M50.138,390.069c-8.032-2.921-16.064-6.328-23.609-10.466c7.302-0.486,14.604-0.73,21.905-0.974
		C49.408,382.524,49.895,386.176,50.138,390.069 M15.577,375.466c8.762-5.841,17.038-12.413,24.826-19.471
		c2.921,5.841,5.355,11.926,7.059,18.011c-9.736,0.243-19.715,0.73-29.45,1.46H15.577 M41.62,347.963l-2.19,2.191
		c-10.466,9.979-22.148,18.74-34.562,26.285l2.434,4.138c1.704-0.974,3.651-2.19,5.354-3.407l4.138,2.434
		c11.196,6.572,22.878,11.926,35.292,16.064l3.407,1.217l-0.244-3.408c-0.243-5.111-0.73-9.979-1.704-14.847
		c14.117-0.486,28.233-0.486,42.35-0.729v-4.868c-0.487,0-0.973,0-1.46,0c-13.874,0-27.99,0.243-42.106,0.729
		c-1.947-8.031-5.111-15.82-9.249-23.121L41.62,347.963"/>
	<path fill="#D6D6D6" d="M365.813,268.132l-8.031-10.709c4.625-3.407,9.248-6.815,13.629-10.466
		C370.194,254.015,368.247,261.317,365.813,268.132 M354.618,253.528l-5.598-7.545c6.57-1.46,13.143-2.434,19.715-3.408
		C364.354,246.227,359.485,249.877,354.618,253.528 M383.825,236.004l-7.545,0.73c-10.709,0.974-21.418,2.677-32.129,5.111
		l-3.65,0.73l9.979,13.386c-13.629,9.492-27.988,18.011-42.836,25.069l2.191,4.381c15.332-7.302,29.936-15.82,43.809-25.556
		l13.145,17.524l1.703-3.894c4.381-9.979,7.059-20.688,8.031-31.641c0.486-0.487,0.975-0.73,1.461-1.217L383.825,236.004"/>
	<path fill="#D6D6D6" d="M390.395,404.186c-1.217-8.031-1.947-15.82-2.676-23.852c8.031-0.244,16.063-0.244,24.094-0.73
		L390.395,404.186 M387.475,375.466c-0.244-4.381-0.486-8.762-0.73-13.143c-0.244-3.407-0.244-6.815,0.73-9.735
		c9.736,5.354,18.01,13.143,23.852,22.392C403.295,374.979,395.264,375.223,387.475,375.466 M385.042,345.772l-1.217,1.947
		c-2.434,4.381-2.434,9.492-2.191,14.604c0.244,4.381,0.486,8.762,0.73,13.143c-8.52,0.243-17.281,0.243-25.799,0.243
		c-10.223,0-20.445,0-30.668-0.243v4.868c10.223,0.243,20.445,0.243,30.91,0.243c8.764,0,17.525,0,26.287-0.243
		c0.973,9.979,1.947,19.957,3.65,29.937l0.73,5.111l31.154-36.021h0.973l-0.244-0.73l1.219-1.46l-3.652-3.164l-0.242,0.243
		c-6.816-11.683-17.281-21.175-29.207-27.259L385.042,345.772"/>
	<path fill="#D6D6D6" d="M215.643,188.543c-0.975-6.084-1.947-12.413-2.921-18.498c6.328,3.407,12.656,7.302,18.498,11.683
		C226.108,183.919,220.753,186.109,215.643,188.543 M188.14,199.496l18.741-33.831c1.46,8.275,2.921,16.55,4.138,24.826
		c-7.302,3.164-14.847,6.084-22.392,9.005H188.14 M209.071,151.548l-27.503,49.895l0.974,1.217c0.73,0.974,1.947,1.947,4.138,1.947
		c0.974,0,2.19-0.243,3.651-0.73c7.058-2.677,14.36-5.598,21.418-8.519c2.677,18.741,4.625,37.482,5.841,56.223l4.868-0.243
		c-1.217-19.228-3.164-38.699-6.085-57.927c7.058-2.92,13.873-6.084,20.688-9.249l3.65-1.704l-3.407-2.434
		c-8.275-6.085-17.037-11.439-26.042-16.064c-0.244-1.947-0.73-3.894-0.974-5.841L209.071,151.548"/>
</g>
<g>
	<g id="XMLID_1_">
		<g>
			<path fill="#303030" d="M174.319,371.852c0-20.263,16.579-36.842,36.843-36.842c20.263,0,36.843,16.579,36.843,36.842
				c0,20.264-16.58,36.843-36.843,36.843C190.898,408.694,174.319,392.115,174.319,371.852z M211.162,342.992
				c-15.965,0-29.167,12.895-29.167,29.167c0,16.271,12.895,29.167,29.167,29.167c15.965,0,29.167-12.896,29.167-29.167
				C240.329,355.887,227.126,342.992,211.162,342.992z"/>
			<path fill="#303030" d="M210.547,297.86c-21.491,0-38.991,6.754-51.887,19.956c-17.192,17.808-21.491,42.369-21.185,54.035v0.308
				c0,54.343,60.483,134.167,73.686,147.983c13.201-13.816,73.377-93.641,73.377-147.369
				C284.539,303.387,228.047,297.86,210.547,297.86z M153.134,312.597c14.431-14.736,33.772-22.412,57.413-22.412
				c60.176,0,81.667,42.676,81.667,82.589c0,32.851-20.877,73.07-38.07,101.009c-11.053,17.808-21.491,31.623-26.711,38.378
				c-13.201,16.886-14.736,16.886-16.271,16.886c-1.843,0-3.07-0.921-4.299-2.456c-9.518-9.824-77.369-93.334-76.755-154.431
				C129.494,355.887,135.328,331.019,153.134,312.597z"/>
		</g>
	</g>
</g>
</svg>
