<?xml version="1.0" encoding="utf-8"?>
<!-- Generator: Adobe Illustrator 21.1.0, SVG Export Plug-In . SVG Version: 6.00 Build 0)  -->
<svg version="1.1" id="Layer_1" xmlns="http://www.w3.org/2000/svg" xmlns:xlink="http://www.w3.org/1999/xlink" x="0px" y="0px"
	 viewBox="0 0 535.2 293.1" style="enable-background:new 0 0 535.2 293.1;" xml:space="preserve">
<style type="text/css">
	.st0{fill:#303030;}
	.st1{opacity:0.2;fill:#303030;}
</style>
<g>
	<path class="st0" d="M20.7,107C14.7,95.5,9.9,83.5,6.4,71c-1.2,0.9-2.4,1.9-3.7,2.8c14,8.8,27.3,18.6,40.5,28.6
		c2.2,1.7,4.3-1.4,3.4-3.4c-6.3-13.5-13.7-26.3-22.4-38.4c-1.9-2.6-6.2-0.1-4.3,2.5c8.7,12.1,16.2,24.9,22.4,38.4
		c1.1-1.1,2.3-2.3,3.4-3.4C32.6,88.1,19.3,78.2,5.2,69.5c-1.9-1.2-4.2,0.8-3.7,2.8c3.6,12.9,8.6,25.4,14.8,37.2
		C17.9,112.4,22.2,109.9,20.7,107L20.7,107z"/>
	<path class="st0" d="M38.8,58.6c-0.4,10.3,6.5,22,14.5,28.2c6.7,5.2,18.1,5.5,21.5-3.7c3.5-9.5-4.3-18.4-11.5-23.5
		c-5.7-4.1-19.1-11.4-24.2-2.8c-1.6,2.8,2.7,5.3,4.3,2.5c4.4-7.4,34.4,12.1,25.8,23.7c-5.2,6.9-13.9-0.2-17.5-4.9
		c-4.4-5.6-8.3-12.1-8-19.4C44,55.4,39,55.4,38.8,58.6L38.8,58.6z"/>
	<path class="st0" d="M62.9,47c9.1,9.4,17.8,19.3,26.1,29.5c1-1.3,2-2.6,3-3.9c-7-5.4-12.6-12.5-16.1-20.7c-1.3-3-4.9-8.4,0.7-7.6
		c6.4,0.9,6.1,11.9,3.5,15.7c-1.4,2,0.9,4,2.8,3.7c4.7-0.8,9.5-1.4,14.3-1.7c4.2-0.3,8.7-1,12.3,1.4c2.7,1.8,5.2-2.6,2.5-4.3
		c-4-2.6-8.4-2.5-13-2.2c-5.9,0.4-11.7,1.1-17.5,2.1c0.9,1.2,1.9,2.4,2.8,3.7c4.1-5.9,3-15.4-1.1-21.1c-1.6-2.3-3.6-2.6-6.3-2.2
		c-2.3,0.3-6.2,0.6-7.8,2.7c-3.2,4.3,2.9,14.1,5,17.9c3.9,6.8,9.1,12.4,15.3,17.2c2.4,1.9,4.7-1.9,3-3.9
		c-8.2-10.2-16.9-20.1-26.1-29.5C64.2,41.1,60.7,44.7,62.9,47L62.9,47z"/>
	<path class="st0" d="M101.3,28.9c5.3,7.6,11,15,17.1,22c2.1,2.4,5.6-1.1,3.5-3.5c-5.8-6.7-11.3-13.7-16.3-21
		C103.8,23.7,99.5,26.2,101.3,28.9L101.3,28.9z"/>
	<path class="st0" d="M90.6,36.8c7.5-5.8,15.1-11.6,22.6-17.4c2.5-1.9,0-6.3-2.5-4.3c-7.5,5.8-15.1,11.6-22.6,17.4
		C85.5,34.4,88,38.8,90.6,36.8L90.6,36.8z"/>
	<path class="st0" d="M118.3,15.3c3.7,8.6,7.4,17.2,11.1,25.8c1.3,2.9,5.6,0.4,4.3-2.5c-3.7-8.6-7.4-17.2-11.1-25.8
		C121.4,9.8,117.1,12.3,118.3,15.3L118.3,15.3z"/>
	<path class="st0" d="M125.3,29.8c6.3,0.5,12.3-0.7,18-3.5c2.9-1.4,0.4-5.7-2.5-4.3c-4.9,2.4-10,3.3-15.5,2.9
		C122.1,24.5,122.1,29.5,125.3,29.8L125.3,29.8z"/>
	<path class="st0" d="M133.3,6.7c3.5,10.9,8.6,21.1,15.3,30.4c1.9,2.6,6.2,0.1,4.3-2.5c-6.4-9-11.4-18.7-14.8-29.2
		C137.2,2.3,132.3,3.6,133.3,6.7L133.3,6.7z"/>
	<g>
		<path class="st1" d="M369.9,289.4v-60.3h3v57.3c9.8-0.2,19.6-1.4,29.1-3.7l0.7,2.9c-10.3,2.5-20.8,3.8-31.3,3.8L369.9,289.4z"/>
		<rect x="374.4" y="256.6" class="st1" width="18" height="3"/>
		<rect x="370" y="226.6" class="st1" width="28.4" height="3.1"/>
		<polygon class="st1" points="448.9,286 422.2,240 423.1,279.1 420.1,279.1 419,228.5 451.5,284.4 		"/>
		
			<rect x="422.1" y="263.6" transform="matrix(0.9622 -0.2724 0.2724 0.9622 -55.9859 126.9965)" class="st1" width="14.6" height="3"/>
		<path class="st1" d="M470.7,266.2c-2.5,0-5.1-0.2-7.6-0.7l0.6-2.9c9.9,2,20.6-0.4,28.8-6.3c-2.7-5.8-9.2-10-19.2-12.6
			c-1.6-0.4-3.2-0.8-4.8-1.2c-7.1-1.7-14.4-3.4-20.3-8l-2-1.6l2.4-1c8.8-3.5,18.7-4.5,28-2.8L476,232c-7.8-1.4-16.2-0.8-23.8,1.7
			c4.9,3.1,11,4.5,16.8,5.9c1.6,0.4,3.3,0.8,4.9,1.2c11.7,3,19,8.2,21.7,15.5l0.4,1l-0.9,0.7C488.3,263.3,479.5,266.2,470.7,266.2z"
			/>
		
			<rect x="509.9" y="221.6" transform="matrix(0.9754 -0.2203 0.2203 0.9754 -41.4323 118.6749)" class="st1" width="3" height="47.1"/>
		<path class="st1" d="M485.9,229.6l-1.1-2.8c15.7-6.1,31.8-11.6,48-16.4l0.9,2.9C517.6,218,501.6,223.5,485.9,229.6z"/>
	</g>
</g>
</svg>
