<?xml version="1.0" encoding="utf-8"?>
<!-- Generator: Adobe Illustrator 21.1.0, SVG Export Plug-In . SVG Version: 6.00 Build 0)  -->
<svg version="1.1" id="Layer_1" xmlns="http://www.w3.org/2000/svg" xmlns:xlink="http://www.w3.org/1999/xlink" x="0px" y="0px"
	 viewBox="0 0 519 241.2" style="enable-background:new 0 0 519 241.2;" xml:space="preserve">
<style type="text/css">
	.st0{fill:#303030;}
	.st1{opacity:0.2;fill:#303030;}
</style>
<g>
	<path class="st0" d="M22.8,12c-6.9,13.8-12,28.2-15.1,43.3c-0.5,2.4,2.1,5,4.4,3.4c6.9-4.7,12.9-10.2,18.1-16.7
		c-1.2,0.2-2.4,0.3-3.6,0.5c5.6,4,5.3,13.2,9.4,18.5c0.9,1.2,2.7,2.1,4.1,1.1c5.8-4.4,8.7-10.7,12-17c4.5-8.5,8.9-17,13.4-25.5
		c1.8-3.4-3.4-6.5-5.2-3c-3.8,7.1-7.5,14.3-11.3,21.4c-3.3,6.2-6.2,14.6-12,18.9c1.4,0.4,2.7,0.7,4.1,1.1c-5-6.6-4.4-15.6-11.6-20.7
		c-1-0.7-2.9-0.5-3.6,0.5c-4.9,6.1-10.4,11.4-16.9,15.8c1.5,1.1,2.9,2.3,4.4,3.4c3-14.6,7.8-28.6,14.5-41.9
		C29.7,11.6,24.5,8.6,22.8,12L22.8,12z"/>
	<path class="st0" d="M69.2,21.9c-2.5,5.9-4.6,12-6.2,18.2c-1,3.9-2.3,8.3-0.6,12.2c1.8,4,6.2,6.3,9.7,8.4c5.2,3.1,10.7,5.7,16.2,8
		c3.6,1.5,5.1-4.3,1.6-5.8c-4.1-1.7-8.1-3.7-12-5.8c-3.7-2-10.2-4.6-10.4-9.5c-0.2-3.5,1.7-8,2.7-11.3c1.3-4.3,2.9-8.6,4.7-12.8
		C76.5,19.9,70.6,18.3,69.2,21.9L69.2,21.9z"/>
	<path class="st0" d="M66.6,39.5c5.5,4.4,11,8.7,16.5,13.1c3,2.4,7.3-1.8,4.3-4.3c-5.5-4.4-11-8.7-16.5-13.1
		C67.8,32.8,63.5,37.1,66.6,39.5L66.6,39.5z"/>
	<path class="st0" d="M71.8,25c7,2.4,14.1,4.8,21.1,7.2c3.7,1.3,5.3-4.6,1.6-5.8c-7-2.4-14.1-4.8-21.1-7.2
		C69.7,18,68.1,23.8,71.8,25L71.8,25z"/>
	<path class="st0" d="M134.1,50.2c-3.2-5.2-9-8-15.1-7.2c-4.4,0.6-11,4-9.3,9.4c1,3.3,5.2,5.7,7.7,7.6c3.6,2.8,7.2,5.5,10.9,8.1
		c2.2,1.6,6.5,3.8,7,6.8c1.2,6.4-7.6,5.7-10.7,5.1c-5.8-1.2-10.9-4.4-15.7-7.8c-3.2-2.2-6.2,3-3,5.2c6.9,4.8,15.3,9.7,24.2,8.9
		c6-0.5,11.9-4.9,11.3-11.5c-0.6-7.5-9.9-11.8-15.2-15.8c-2.1-1.6-4.1-3.1-6.1-4.8c-1.1-0.9-2.2-1.8-3.3-2.7c-1.4-1-1.2-1.7,0.7-2.2
		c3.6-2.8,9.6,0.5,11.5,3.7C130.9,56.5,136.1,53.5,134.1,50.2L134.1,50.2z"/>
	<path class="st0" d="M159.5,59c-8.1,10.4-14.4,21.6-19,34c-1.3,3.6,4.5,5.2,5.8,1.6c4.2-11.3,10-21.8,17.5-31.3
		C166.1,60.3,161.8,56,159.5,59L159.5,59z"/>
	<path class="st0" d="M146.2,56.2c14.2,4.5,28.2,9.4,42,14.9c3.6,1.4,5.2-4.4,1.6-5.8c-13.8-5.4-27.8-10.4-42-14.9
		C144.1,49.2,142.5,55,146.2,56.2L146.2,56.2z"/>
	<path class="st1" d="M347.8,230.7c-1.5,0-3-0.1-4.4-0.2l0.2-2.4c6.6,0.5,13.1-0.2,19.5-2c2.7-0.8,6-2.2,7-4.8
		c-6.9-3-13.7-6.4-20.4-9.9c-6.1-3.2-8.9-7.2-7.9-11.2c1.1-4.2,6.3-6,10.8-5.5c1.2,0.1,2.4,0.4,3.6,0.6c2.6,0.5,5.1,1,7.4,0.4
		l0.6,2.3c-2.8,0.7-5.7,0.1-8.4-0.4c-1.1-0.2-2.3-0.4-3.4-0.6c-3.5-0.4-7.5,0.8-8.3,3.7c-1,3.8,3.8,6.9,6.7,8.5
		c6.9,3.6,14,7.1,21.2,10.2l0.9,0.4l-0.2,0.9c-0.6,3.4-3.7,6-8.9,7.5C358.5,229.9,353.2,230.7,347.8,230.7z"/>
	<path class="st1" d="M404,229c-0.8,0-1.7-0.2-2.5-0.4c-6.7-1.6-11.3-4.3-14-8.3c-3.4-5.1-3-11.2-2.7-17.1c0.2-3.3,0.4-6.8-0.1-10
		l1-0.2l-0.6,0c0.2-2.9,2.8-4.8,5.2-5.1c2-0.3,4.2,0.2,6.8,1.6c12.4,6.5,17.8,23.8,11.3,36.2c-0.5,1-1.1,2-2.2,2.6
		C405.6,228.8,404.8,229,404,229z M387.2,193.2c0.5,3.3,0.3,6.8,0.1,10.2c-0.3,5.8-0.6,11.2,2.3,15.6c2.3,3.4,6.4,5.8,12.5,7.3
		c1.1,0.3,2.3,0.5,3.1,0c0.5-0.3,1-1,1.3-1.7c5.9-11.3,1-27.1-10.3-33c-2.1-1.1-3.8-1.5-5.3-1.3c-1.5,0.2-3.1,1.4-3.2,2.9
		L387.2,193.2z"/>
	<path class="st1" d="M437.1,218.2c-5.6,0-11.2-3.5-14.7-9.3c-3.3-5.5-4.4-12.1-5.3-17.9l2.3-0.4c0.9,5.6,1.9,11.9,5,17
		c2.7,4.5,8,8.8,13.9,8.1c1.1-0.1,3-0.5,4.1-2c1.5-2.1,0.6-5.2-0.4-7.7c-2.2-5.6-4.7-11.1-7.5-16.3l2.1-1.1
		c2.9,5.3,5.5,10.9,7.7,16.6c1.2,3.1,2.3,7,0.1,9.9c-1.2,1.6-3.2,2.7-5.8,3C438.1,218.2,437.6,218.2,437.1,218.2z"/>
	<path class="st1" d="M461.6,217.2c-3-10.4-5.5-21.1-7.4-31.7l2.3-0.4c1.9,10.6,4.4,21.2,7.4,31.5L461.6,217.2z"/>
	<path class="st1" d="M446.7,186.5c-1.1,0-2.2,0-3.3-0.1l0.1-2.4c7.6,0.4,15.2-0.6,22.5-2.9l0.7,2.2
		C460.2,185.4,453.5,186.5,446.7,186.5z"/>
	<path class="st1" d="M479.2,209.1c-1.8-9.7-2.9-19.5-3.1-29.4l2.4-0.1c0.2,9.7,1.3,19.4,3.1,29L479.2,209.1z"/>
	
		<rect x="478.8" y="193.5" transform="matrix(0.9954 -9.573102e-02 9.573102e-02 0.9954 -16.3782 47.9857)" class="st1" width="26.2" height="2.4"/>
	
		<rect x="505.4" y="170.9" transform="matrix(0.9897 -0.1434 0.1434 0.9897 -22.805 74.6655)" class="st1" width="2.4" height="49.3"/>
</g>
</svg>
