<?xml version="1.0" encoding="utf-8"?>
<!-- Generator: Adobe Illustrator 21.1.0, SVG Export Plug-In . SVG Version: 6.00 Build 0)  -->
<svg version="1.1" id="Layer_1" xmlns="http://www.w3.org/2000/svg" xmlns:xlink="http://www.w3.org/1999/xlink" x="0px" y="0px"
	 viewBox="0 0 66.8 52.8" style="enable-background:new 0 0 66.8 52.8;" xml:space="preserve">
<style type="text/css">
	.st0{fill:#4B6F82;}
</style>
<g>
	<g id="XMLID_1_">
		<g>
			<path class="st0" d="M32,8.6l2.3-2.3c0.2-0.2,0.7-0.2,0.9,0s0.2,0.7,0,0.9l-2.3,2.3c-0.1,0.1-0.3,0.2-0.4,0.2
				c-0.2,0-0.3,0-0.4-0.2C31.7,9.3,31.7,8.8,32,8.6z"/>
			<path class="st0" d="M21.4,1v3.2c0,0.4-0.3,0.6-0.7,0.6c-0.4,0-0.6-0.3-0.6-0.6V1c0-0.4,0.3-0.7,0.6-0.7
				C21.1,0.4,21.4,0.7,21.4,1z"/>
			<path class="st0" d="M21,29.1c0.4-5.6,3.7-10.3,8.2-12.8c-1.6-3-4.8-5.1-8.5-5.1c-5.2,0-9.6,4.3-9.6,9.5c0,4.7,3.4,8.5,7.8,9.3
				C19.6,29.7,20.3,29.4,21,29.1z M20.8,9.9c4.2,0,7.7,2.4,9.6,5.8c1.9-0.8,4-1.2,6.2-1.2c5.8,0,11,3.1,13.7,8.2c0.1,0,0.1,0,0.2,0
				c0.1,0,0.1,0,0.2,0c0.3-0.1,0.6-0.1,0.9-0.1c1.5,0,3.1,0.3,4.5,0.7c0.4,0.1,0.9,0.4,1.3,0.5c0.1,0,0.1,0.1,0.1,0.1
				c0.4,0.2,0.8,0.4,1.2,0.6c0.1,0.1,0.2,0.1,0.3,0.1c0.4,0.1,0.7,0.4,1,0.6c0.1,0.1,0.2,0.1,0.3,0.2c0.3,0.2,0.6,0.4,0.9,0.7
				c0.1,0.1,0.1,0.1,0.1,0.1c0,0.1,0,0.1,0,0.1c3.1,2.7,5.2,6.8,5.2,11.3c0,8.2-6.7,15-15,15H25.8c-6.7,0-12.2-5.5-12.2-12.2
				c0-3.6,1.6-7,4.2-9.3c-4.5-1.3-7.8-5.5-7.7-10.4C10,14.7,14.8,9.9,20.8,9.9z M36.5,15.8c-7.7,0-14,6-14.3,13.7
				c-0.1,0.3-0.2,0.5-0.4,0.6c-4.2,1.6-7.1,5.8-7.1,10.3c0,6.1,5,11,11,11h26c7.6,0,13.7-6.1,13.7-13.7c0-4.2-2-8-5-10.5
				c-2.8-2.3-6.3-3.4-9.9-3.1c-3.6,0.3-6.9,2-9.3,4.7c0,0.2-0.4,0.2-0.4,0.2s-0.3-0.1-0.4-0.1C40,28.7,40,28.3,40.2,28
				c2.3-2.7,5.4-4.3,8.7-5C46.3,18.4,41.6,15.8,36.5,15.8z"/>
			<path class="st0" d="M8.6,9.6L6.3,7.3c-0.2-0.2-0.2-0.7,0-0.9s0.7-0.2,0.9,0l2.3,2.3c0.2,0.2,0.2,0.7,0,0.9
				C9.4,9.7,9.2,9.8,9.1,9.8C8.9,9.8,8.8,9.7,8.6,9.6z"/>
			<path class="st0" d="M6.4,34.3L8.7,32c0.2-0.2,0.6-0.2,0.9,0c0.2,0.2,0.2,0.7,0,0.9l-2.4,2.2c-0.1,0.1-0.3,0.2-0.4,0.2
				c-0.2,0-0.3-0.1-0.4-0.2C6.2,34.9,6.2,34.5,6.4,34.3z"/>
			<path class="st0" d="M4.3,20.1c0.4,0,0.7,0.3,0.7,0.6c0,0.4-0.3,0.7-0.7,0.7H1.1c-0.4,0-0.7-0.2-0.7-0.7c0-0.4,0.3-0.6,0.7-0.6
				H4.3z"/>
		</g>
	</g>
</g>
</svg>
