<?xml version="1.0" encoding="utf-8"?>
<!-- Generator: Adobe Illustrator 21.1.0, SVG Export Plug-In . SVG Version: 6.00 Build 0)  -->
<svg version="1.1" id="Layer_1" xmlns="http://www.w3.org/2000/svg" xmlns:xlink="http://www.w3.org/1999/xlink" x="0px" y="0px"
	 viewBox="0 0 18.5 53.2" style="enable-background:new 0 0 18.5 53.2;" xml:space="preserve">
<style type="text/css">
	.st0{fill:#4B6F82;}
</style>
<path class="st0" d="M13.6,36.8V4.4c0-2.3-1.9-4.2-4.2-4.2H9.1c-2.3,0-4.2,1.9-4.2,4.2v32.4c-2.7,1.5-4.4,4.4-4.4,7.5
	c0,4.8,3.9,8.7,8.7,8.7s8.7-3.9,8.7-8.7C17.9,41.2,16.3,38.3,13.6,36.8z M9.2,51.7c-4.1,0-7.4-3.3-7.4-7.4c0-2.8,1.5-5.3,4-6.6
	c0.2-0.1,0.4-0.3,0.4-0.6v-3h2.4c0.4,0,0.7-0.3,0.7-0.7S9,32.8,8.6,32.8H6.2v-4.3h2.4c0.4,0,0.7-0.3,0.7-0.6S9,27.2,8.6,27.2H6.2
	v-4.3h2.4c0.4,0,0.7-0.3,0.7-0.6S9,21.5,8.6,21.5H6.2v-4.3h2.4c0.4,0,0.7-0.3,0.7-0.6S9,15.9,8.6,15.9H6.2v-4.3h2.4
	c0.4,0,0.7-0.3,0.7-0.6S9,10.2,8.6,10.2H6.2V4.4c0-1.6,1.3-2.9,2.9-2.9h0.3c1.6,0,2.9,1.3,2.9,2.9v32.7c0,0.2,0.1,0.5,0.4,0.6
	c2.5,1.3,4,3.8,4,6.6C16.6,48.4,13.3,51.7,9.2,51.7z"/>
</svg>
