<?xml version="1.0" encoding="utf-8"?>
<!-- Generator: Adobe Illustrator 21.1.0, SVG Export Plug-In . SVG Version: 6.00 Build 0)  -->
<svg version="1.1" id="Layer_1" xmlns="http://www.w3.org/2000/svg" xmlns:xlink="http://www.w3.org/1999/xlink" x="0px" y="0px"
	 viewBox="0 0 66.8 66.8" style="enable-background:new 0 0 66.8 66.8;" xml:space="preserve">
<style type="text/css">
	.st0{fill:#FFFFFF;}
	.st1{fill:#A5948B;}
</style>
<g>
	<g id="XMLID_1_">
		<g>
			<path class="st0" d="M33.4,17.7c8.7,0,15.7,7,15.7,15.7s-7,15.7-15.7,15.7s-15.7-7-15.7-15.7S24.7,17.7,33.4,17.7z"/>
			<path class="st1" d="M65.5,32.5c0.5,0,0.9,0.4,0.9,0.9s-0.4,0.9-0.9,0.9h-5.2c-0.5,0-0.9-0.4-0.9-0.9s0.4-0.9,0.9-0.9H65.5z"/>
			<path class="st1" d="M56.6,10.1c0.3,0.3,0.3,0.9,0,1.2L53,14.9c-0.2,0.2-0.4,0.3-0.6,0.3s-0.4,0-0.6-0.3c-0.3-0.3-0.3-0.9,0-1.2
				l3.7-3.7C55.7,9.8,56.3,9.8,56.6,10.1z"/>
			<path class="st1" d="M56.6,55.5c0.3,0.3,0.3,0.9,0,1.2C56.4,56.9,56.2,57,56,57s-0.4-0.1-0.6-0.3l-3.7-3.7
				c-0.3-0.3-0.3-0.9,0-1.2s0.9-0.3,1.2,0L56.6,55.5z"/>
			<path class="st1" d="M34.3,60.3v5.2c0,0.5-0.4,0.9-0.9,0.9s-0.9-0.4-0.9-0.9v-5.2c0-0.5,0.4-0.9,0.9-0.9S34.3,59.8,34.3,60.3z"/>
			<path class="st1" d="M34.3,1.3v5.2c0,0.5-0.4,0.9-0.9,0.9S32.5,7,32.5,6.5V1.3c0-0.5,0.4-0.9,0.9-0.9S34.3,0.8,34.3,1.3z"/>
			<path class="st1" d="M49.1,33.4c0-8.7-7-15.7-15.7-15.7s-15.7,7-15.7,15.7s7,15.7,15.7,15.7S49.1,42.1,49.1,33.4z M33.4,16
				c9.6,0,17.4,7.8,17.4,17.4S43,50.8,33.4,50.8S16,43,16,33.4S23.8,16,33.4,16z"/>
			<path class="st1" d="M15,13.8c0.3,0.3,0.3,0.9,0,1.2c-0.2,0.2-0.4,0.3-0.6,0.3c-0.2,0-0.4-0.1-0.6-0.3l-3.7-3.7
				c-0.3-0.3-0.3-0.9,0-1.2c0.3-0.3,0.9-0.3,1.2,0L15,13.8z"/>
			<path class="st1" d="M14.9,51.8c0.3,0.3,0.3,0.9,0,1.2l-3.7,3.7c-0.2,0.2-0.4,0.3-0.6,0.3c-0.2,0-0.4-0.1-0.6-0.3
				c-0.3-0.3-0.3-0.9,0-1.2l3.7-3.7C14,51.5,14.6,51.5,14.9,51.8z"/>
			<path class="st1" d="M6.5,32.5c0.5,0,0.9,0.4,0.9,0.9S7,34.3,6.5,34.3H1.3c-0.4,0-0.8-0.4-0.9-0.9c0-0.5,0.4-0.9,0.9-0.9H6.5z"/>
		</g>
	</g>
</g>
</svg>
