<?xml version="1.0" encoding="utf-8"?>
<!-- Generator: Adobe Illustrator 21.1.0, SVG Export Plug-In . SVG Version: 6.00 Build 0)  -->
<svg version="1.1" id="Layer_1" xmlns="http://www.w3.org/2000/svg" xmlns:xlink="http://www.w3.org/1999/xlink" x="0px" y="0px"
	 viewBox="0 0 36.6 48.8" style="enable-background:new 0 0 36.6 48.8;" xml:space="preserve">
<style type="text/css">
	.st0{fill:#FFFFFF;}
	.st1{fill:#A5948B;}
</style>
<g>
	<g id="XMLID_1_">
		<g>
			<path class="st0" d="M24,2.5c3.1,0,6.1,0.7,8.9,1.9c-8.7,2.7-14.8,10.7-14.8,20s6.1,17.4,14.8,20c-2.8,1.2-5.8,1.9-8.9,1.9
				c-12.1,0-21.9-9.8-21.9-21.9S11.9,2.5,24,2.5z"/>
			<path class="st1" d="M24,46.3c3.1,0,6.1-0.7,8.9-1.9c-8.7-2.6-14.8-10.7-14.8-20s6.1-17.3,14.8-20c-2.8-1.2-5.8-1.9-8.9-1.9
				c-12.1,0-21.9,9.8-21.9,21.9S11.9,46.3,24,46.3z M35.5,43.3c0.4,0.1,0.6,0.3,0.7,0.7c0.1,0.4-0.1,0.7-0.4,0.9
				c-3.6,2.1-7.6,3.2-11.8,3.2c-13.1,0-23.7-10.6-23.7-23.7S10.9,0.7,24,0.7c4.1,0,8.2,1.1,11.8,3.2c0.3,0.2,0.5,0.5,0.4,0.9
				s-0.3,0.6-0.7,0.7c-9.1,1.7-15.7,9.6-15.7,18.9S26.4,41.6,35.5,43.3z"/>
		</g>
	</g>
</g>
</svg>
