<?xml version="1.0" encoding="utf-8"?>
<!-- Generator: Adobe Illustrator 21.1.0, SVG Export Plug-In . SVG Version: 6.00 Build 0)  -->
<svg version="1.1" id="Layer_1" xmlns="http://www.w3.org/2000/svg" xmlns:xlink="http://www.w3.org/1999/xlink" x="0px" y="0px"
	 viewBox="0 0 66.8 46" style="enable-background:new 0 0 66.8 46;" xml:space="preserve">
<style type="text/css">
	.st0{fill:#FFFFFF;}
	.st1{fill:#A5948B;}
</style>
<g>
	<g id="XMLID_1_">
		<g>
			<path class="st0" d="M37.6,16.8c3.6-0.3,7.1,0.9,9.8,3.2c3,2.5,5,6.3,5,10.5c0,7.7-6.2,13.7-13.7,13.7H12.5c-6.1,0-11-5-11-11
				c0-4.5,2.9-8.7,7.1-10.3c0.1,0,0.3-0.2,0.3-0.5c0.4-7.8,6.7-13.7,14.4-13.7c5.2,0,9.8,2.7,12.4,7.2c-3.4,0.6-6.5,2.4-8.6,5
				c-0.2,0.2-0.2,0.6,0.1,0.8c0.1,0.1,0.3,0.1,0.4,0.1s0.4-0.1,0.5-0.2C30.6,18.8,33.9,17.1,37.6,16.8z"/>
			<path class="st0" d="M63.7,2.9c-5.5,1.8-9.2,6.9-9.2,12.7s3.8,10.9,9.2,12.7c-1.7,0.7-3.6,1.1-5.4,1.1c-1.7,0-3.4-0.3-4.9-0.9
				c-0.5-3.8-2.4-7-5.1-9.2c0,0,0,0,0-0.1c-1.2-1-2.4-1.8-3.8-2.4c0-0.4,0-0.7,0-1.2c0-7.6,6.3-13.8,13.8-13.8
				C60.1,1.8,62,2.1,63.7,2.9z"/>
			<path class="st1" d="M58.2,1.8c-7.6,0-13.8,6.3-13.8,13.8c0,0.4,0,0.8,0,1.2c1.4,0.7,2.7,1.4,3.8,2.4c0,0.1,0,0.1,0,0.1
				c2.7,2.4,4.6,5.6,5.1,9.2c1.5,0.6,3.2,0.9,4.9,0.9c1.8,0,3.8-0.4,5.4-1.1c-5.4-1.8-9.2-6.9-9.2-12.7s3.8-10.9,9.2-12.7
				C62,2.1,60.1,1.8,58.2,1.8z M47.4,20c-2.8-2.3-6.3-3.5-9.8-3.2c-3.7,0.3-7,2-9.3,4.8c-0.1,0.1-0.4,0.2-0.5,0.2s-0.4-0.1-0.5-0.1
				c-0.3-0.2-0.3-0.6-0.1-0.9c2.2-2.6,5.3-4.4,8.6-5c-2.6-4.5-7.3-7.2-12.4-7.2c-7.8,0-14,6-14.3,13.7c0,0.3-0.2,0.5-0.4,0.5
				c-4.2,1.7-7,5.9-7,10.4c0,6.1,5,11,11,11h26.2c7.6,0,13.7-6.2,13.7-13.7C52.4,26.3,50.4,22.5,47.4,20z M37.5,15.5
				c0.4-0.1,0.7-0.1,1.1-0.1h0.1c0.1,0,0.1,0,0.2,0c0.2,0,0.4,0,0.5,0c0,0,0.1,0,0.2,0c0.2,0,0.4,0.1,0.7,0.1h0.1
				c1,0.1,2.1,0.4,3.1,0.7c0-0.3,0-0.5,0-0.7c0-8.3,6.8-15.1,15.1-15.1c2.6,0,5.3,0.7,7.6,2.1c0.2,0.1,0.4,0.4,0.3,0.7
				S66.3,3.6,66,3.7c-6.1,1-10.2,6-10.2,11.8s4.2,10.9,9.8,11.9c0.3,0.1,0.4,0.2,0.5,0.5s-0.1,0.5-0.3,0.7c-2.3,1.3-4.9,2.1-7.6,2.1
				c-1.7,0-3.3-0.2-4.8-0.7c0,0.2,0,0.4,0,0.7c0,8.3-6.8,15-15,15H12.5c-6.8,0-12.3-5.5-12.3-12.2c0-4.9,3-9.4,7.7-11.5
				c0.5-8.2,7.3-14.5,15.6-14.5c5.8,0,11,3.2,13.7,8.3h0.1C37.4,15.5,37.4,15.5,37.5,15.5z"/>
		</g>
	</g>
</g>
</svg>
