<?xml version="1.0" encoding="utf-8"?>
<!-- Generator: Adobe Illustrator 21.1.0, SVG Export Plug-In . SVG Version: 6.00 Build 0)  -->
<svg version="1.1" id="Layer_1" xmlns="http://www.w3.org/2000/svg" xmlns:xlink="http://www.w3.org/1999/xlink" x="0px" y="0px"
	 viewBox="0 0 71.5 70" style="enable-background:new 0 0 71.5 70;" xml:space="preserve">
<style type="text/css">
	.st0{fill:#FFFFFF;}
</style>
<g transform="matrix( 1, 0, 0, 1, 0,0) ">
	<g>
		<g id="a">
			<path class="st0" d="M51.4,6.5c-0.2-0.2-0.5-0.3-0.8-0.3s-0.6,0.1-0.9,0.3L46,10.3c0,0-0.1,0.1-0.1,0.1c-0.2,0.2-0.3,0.5-0.2,0.8
				c0,0,0,0.1,0,0.1v0.1c0.1,0.3,0.2,0.5,0.4,0.6c0,0,0,0.1,0,0.1c0,0,0.1,0,0.1,0l3.6,3.6c0.3,0.2,0.5,0.4,0.9,0.4
				c0.3,0,0.6-0.1,0.8-0.4c0.2-0.3,0.3-0.6,0.3-0.9c0-0.3-0.1-0.6-0.4-0.9l-1.8-1.8c0.2,0,0.4,0,0.6,0c2.8,0.2,5.1,1.1,7,2.8v0
				c2.6,2.2,3.8,5.1,3.7,8.7c0,0.3,0.1,0.6,0.3,0.9c0.2,0.2,0.5,0.4,0.9,0.4c0.3,0,0.6-0.1,0.8-0.3c0.2-0.2,0.4-0.5,0.4-0.8
				c0.2-4.4-1.3-8-4.5-10.7h-0.1c-2.3-2-5.1-3.1-8.4-3.4h0c-0.2,0-0.3,0-0.6,0l1.7-1.6c0.2-0.2,0.3-0.5,0.3-0.9
				C51.8,7.1,51.6,6.8,51.4,6.5 M70.3,34.4c0-2.4-0.6-4.2-1.8-5.4c-1.2-1.2-3-1.8-5.3-1.8H43.5V7.6c0-4.8-2.4-7.2-7.2-7.2H15.9
				c-4.8,0-7.2,2.4-7.2,7.2v19.6H8.4c-4.8,0-7.2,2.4-7.2,7.2v20.5c0,4.8,2.4,7.2,7.2,7.2h0.3v0.3c0,4.8,2.4,7.2,7.2,7.2h20.4
				c4.8,0,7.2-2.4,7.2-7.2v-0.3h19.7c4.8,0,7.2-2.4,7.2-7.2V34.4 M66.8,30.8c0.8,0.8,1.1,2.1,1.1,3.6v20.5c0,3.2-1.6,4.8-4.8,4.8
				H43.5v-30h19.7C64.8,29.6,66,30,66.8,30.8 M36.3,2.8c3.2,0,4.8,1.6,4.8,4.8v19.6h-30V7.6c0-3.2,1.6-4.8,4.8-4.8H36.3 M3.6,34.4
				c0-3.2,1.6-4.8,4.8-4.8h0.3v30H8.4c-3.2,0-4.8-1.6-4.8-4.8V34.4 M15.9,67.2c-3.2,0-4.8-1.6-4.8-4.8v-0.3h30v0.3
				c0,3.2-1.6,4.8-4.8,4.8H15.9 M11.1,29.6h30v30h-30V29.6z"/>
		</g>
	</g>
</g>
</svg>
