<?xml version="1.0" encoding="utf-8"?>
<!-- Generator: Adobe Illustrator 21.1.0, SVG Export Plug-In . SVG Version: 6.00 Build 0)  -->
<svg version="1.1" id="Layer_1" xmlns="http://www.w3.org/2000/svg" xmlns:xlink="http://www.w3.org/1999/xlink" x="0px" y="0px"
	 viewBox="0 0 61.2 61.2" style="enable-background:new 0 0 61.2 61.2;" xml:space="preserve">
<style type="text/css">
	.st0{fill:#A5948B;}
</style>
<g>
	<path class="st0" d="M1.6,31.6h11.3l-7.2,7.1c-0.3,0.3-0.3,0.9,0,1.2c0.2,0.2,0.4,0.3,0.6,0.3s0.4-0.1,0.6-0.3l8.4-8.4h13.3l-14,14
		c-0.3,0.3-0.3,0.9,0,1.2c0.2,0.2,0.4,0.3,0.6,0.3s0.4-0.1,0.6-0.3l14-14V46l-8.4,8.4c-0.3,0.3-0.3,0.9,0,1.2s0.9,0.3,1.2,0l7.2-7.2
		v11.3c0,0.5,0.4,0.9,0.9,0.9s0.9-0.4,0.9-0.9V48.6l7.1,7.1c0.2,0.2,0.4,0.3,0.6,0.3c0.2,0,0.4-0.1,0.6-0.3c0.3-0.3,0.3-0.9,0-1.2
		l-8.4-8.4V32.8l14,14c0.2,0.2,0.4,0.3,0.6,0.3s0.4-0.1,0.6-0.3c0.3-0.3,0.3-0.9,0-1.2l-14-14H46l8.4,8.4c0.2,0.2,0.4,0.3,0.6,0.3
		s0.4-0.1,0.6-0.3c0.3-0.3,0.3-0.9,0-1.2l-7.2-7.2h11.3c0.5,0,0.9-0.4,0.9-0.9s-0.4-0.9-0.9-0.9h-11l7.1-7.1c0.3-0.3,0.3-0.9,0-1.2
		s-0.9-0.3-1.2,0l-8.4,8.4H32.8l14-14c0.3-0.3,0.3-0.9,0-1.2s-0.9-0.3-1.2,0l-14,14V15.3L40,6.9c0.3-0.3,0.3-0.9,0-1.2
		s-0.9-0.3-1.2,0l-7.2,7.2V1.6c0-0.5-0.4-0.9-0.9-0.9s-0.9,0.4-0.9,0.9v11.3l-7.1-7.2c-0.3-0.3-0.9-0.3-1.2,0s-0.3,0.9,0,1.2
		l8.4,8.4v13.3l-14-14c-0.3-0.3-0.9-0.3-1.2,0s-0.3,0.9,0,1.2l14,14H15.3l-8.4-8.4c-0.3-0.3-0.9-0.3-1.2,0s-0.3,0.9,0,1.2l7.2,7.2
		H1.6c-0.5,0-0.9,0.4-0.9,0.9S1.1,31.6,1.6,31.6z"/>
</g>
</svg>
