<?xml version="1.0" encoding="utf-8"?>
<!-- Generator: Adobe Illustrator 21.1.0, SVG Export Plug-In . SVG Version: 6.00 Build 0)  -->
<svg version="1.1" id="Layer_1" xmlns="http://www.w3.org/2000/svg" xmlns:xlink="http://www.w3.org/1999/xlink" x="0px" y="0px"
	 viewBox="0 0 66.8 64.7" style="enable-background:new 0 0 66.8 64.7;" xml:space="preserve">
<style type="text/css">
	.st0{fill:#FFFFFF;}
</style>
<g>
	<g id="XMLID_1_">
		<g>
			<path class="st0" d="M54.2,55c0.5,0,0.9,0.4,0.9,0.8c0,0.5-0.4,0.8-0.9,0.8h-40c-0.5,0-0.8-0.4-0.8-0.8c0-0.5,0.4-0.8,0.8-0.8
				H54.2z"/>
			<path class="st0" d="M54.2,62.7c0.5,0,0.9,0.4,0.9,0.8c0,0.5-0.4,0.8-0.9,0.8h-40c-0.5,0-0.8-0.4-0.8-0.8c0-0.5,0.4-0.8,0.8-0.8
				C14.2,62.7,54.2,62.7,54.2,62.7z"/>
			<path class="st0" d="M10.7,18.3c0.7-10.2,9.1-18,19.2-18c7.2,0,13.6,3.9,17,10.2c0,0,0.1,0,0.2,0s0.3,0,0.4,0
				c0.5-0.1,0.8-0.1,1.2-0.1c1.9,0,3.8,0.4,5.6,0.9c0.1,0,0.1,0,0.1,0c0.6,0.2,1.1,0.5,1.6,0.7c0,0,0.1,0.1,0.2,0.1
				c0.5,0.3,0.9,0.5,1.4,0.8c0.2,0.1,0.3,0.1,0.4,0.2c0.4,0.2,0.8,0.5,1.2,0.8c0.1,0.1,0.3,0.2,0.4,0.3c0.4,0.3,0.7,0.6,1.1,0.8
				c0.1,0,0.2,0.1,0.3,0.2c4,3.3,6.4,8.4,6.4,14c0,10.2-8.3,18.5-18.5,18.5H16.6c-8.3-0.2-15.2-7-15.2-15.3
				C1.4,26.3,5,20.6,10.7,18.3z M16.6,46h32.1c9.4,0,17-7.6,17.1-17c0-5.2-2.4-10-6.1-13.1c-7.2-6-17.7-5-23.8,2
				c-0.2,0.2-0.5,0.3-0.6,0.3c-0.2,0-0.4-0.1-0.6-0.2c-0.4-0.3-0.4-0.8-0.1-1.1c2.8-3.4,6.6-5.4,10.6-6.2c-3.1-5.5-8.8-8.8-15.3-8.8
				c-9.6,0-17.3,7.3-17.7,16.9c-0.1,0.4-0.3,0.6-0.6,0.8c-5.2,1.9-8.7,7.1-8.7,12.7C2.9,39.8,9,46,16.6,46z"/>
		</g>
	</g>
</g>
</svg>
