<?xml version="1.0" encoding="utf-8"?>
<!-- Generator: Adobe Illustrator 21.1.0, SVG Export Plug-In . SVG Version: 6.00 Build 0)  -->
<svg version="1.1" id="Layer_1" xmlns="http://www.w3.org/2000/svg" xmlns:xlink="http://www.w3.org/1999/xlink" x="0px" y="0px"
	 viewBox="0 0 66.8 53.2" style="enable-background:new 0 0 66.8 53.2;" xml:space="preserve">
<style type="text/css">
	.st0{fill:#FFFFFF;}
</style>
<g>
	<path class="st0" d="M24.6,11.1C24.6,6,28.7,2,33.7,2s9.1,4.1,9.1,9.1c0,0.4,0.4,0.8,0.8,0.8c0.4,0,0.8-0.4,0.8-0.8
		c0-5.9-4.8-10.7-10.7-10.7S22.9,5.2,22.9,11.1s4.8,10.7,10.8,10.7h25c0.4,0,0.8-0.4,0.8-0.8c0-0.4-0.4-0.8-0.8-0.8h-25
		C28.7,20.2,24.6,16.1,24.6,11.1z"/>
	<path class="st0" d="M65.7,28.6H8.1c-3.5,0-6.3-2.8-6.3-6.3S4.6,16,8.1,16s6.3,2.8,6.3,6.3c0,0.4,0.4,0.8,0.8,0.8
		c0.4,0,0.8-0.4,0.8-0.8c0-4.3-3.5-7.9-7.9-7.9s-7.9,3.5-7.9,7.9s3.4,7.9,7.8,7.9h57.7c0.4,0,0.8-0.4,0.8-0.8
		C66.4,29,66.1,28.6,65.7,28.6z"/>
	<path class="st0" d="M26.1,38.1h25.6c0.4,0,0.8-0.4,0.8-0.8s-0.4-0.8-0.8-0.8H26.2c-4.5,0-8.2,3.6-8.2,8.2s3.7,8.1,8.2,8.1
		s8.2-3.6,8.2-8.2c0-0.4-0.4-0.8-0.8-0.8c-0.4,0-0.8,0.4-0.8,0.8c0,3.6-3,6.6-6.6,6.6s-6.6-3-6.6-6.6C19.5,41.1,22.5,38.1,26.1,38.1
		z"/>
</g>
</svg>
