<?xml version="1.0" encoding="utf-8"?>
<!-- Generator: Adobe Illustrator 21.1.0, SVG Export Plug-In . SVG Version: 6.00 Build 0)  -->
<svg version="1.1" id="Layer_1" xmlns="http://www.w3.org/2000/svg" xmlns:xlink="http://www.w3.org/1999/xlink" x="0px" y="0px"
	 viewBox="0 0 66.8 47.3" style="enable-background:new 0 0 66.8 47.3;" xml:space="preserve">
<style type="text/css">
	.st0{fill:#FFFFFF;}
</style>
<g>
	<g id="XMLID_1_">
		<g>
			<path class="st0" d="M43.6,18.8c-5.8,0-10.5,4.5-10.7,10.3c-0.1,0.3-0.2,0.5-0.4,0.6c-3.2,1.2-5.2,4.4-5.2,7.7
				c0,4.6,3.7,8.2,8.2,8.2h19.6c5.6,0,10.3-4.7,10.3-10.3S60.8,25,55.2,25c-0.4,0-0.8,0-1.3,0.1c-0.3,0-0.5-0.1-0.7-0.4
				C51.3,21.1,47.7,18.8,43.6,18.8z M0.3,26.4c0-4.9,3-9.4,7.6-11.4C8.4,6.8,15.2,0.4,23.5,0.4c5.7,0,11.1,3.2,13.8,8.3h0.1
				c0.1,0,0.2,0,0.3,0c0.4-0.1,0.7-0.1,1-0.1c1.6,0,3.1,0.3,4.6,0.7c0.1,0,0.1,0,0.1,0c0.5,0.1,0.9,0.4,1.3,0.5l0.1,0.1
				c0.4,0.2,0.7,0.4,1.1,0.6c0.1,0,0.2,0.1,0.3,0.1c0.3,0.1,0.7,0.4,1,0.6c0.1,0.1,0.2,0.1,0.3,0.2c0.3,0.2,0.6,0.4,0.9,0.7
				c0.1,0.1,0.1,0.1,0.1,0.2s0,0.1,0,0.1c3.1,2.7,5.1,6.6,5.1,11.1c0.2,0.2,0.3,0.4,0.4,0.6c0.3-0.1,0.7-0.1,1-0.1
				c6.3,0,11.5,5.1,11.5,11.5S61.3,47,55,47H35.4c-4.8,0-8.8-3.6-9.4-8.2H12.7C5.9,38.6,0.3,33.2,0.3,26.4z M8.9,16.1
				c-4.3,1.6-7.1,5.7-7.1,10.3c0,6,4.9,11.1,11.1,11.1H26c0-3.8,2.3-7.2,5.7-8.7c0.5-6.3,5.6-11.1,12-11.1c3.4,0,6.5,1.4,8.7,3.9
				c-0.5-3.4-2.3-6.3-4.8-8.3c-5.7-4.9-14.4-4.1-19.2,1.6c-0.2,0.1-0.4,0.2-0.5,0.2S27.6,15,27.5,15c-0.3-0.2-0.3-0.6-0.1-0.9
				c2.3-2.7,5.3-4.4,8.6-4.9C33.4,4.6,28.8,2,23.5,2C15.8,2,9.4,8,9.1,15.8C9.1,15.8,8.9,16,8.9,16.1z"/>
		</g>
	</g>
</g>
</svg>
