<?xml version="1.0" encoding="utf-8"?>
<!-- Generator: Adobe Illustrator 21.1.0, SVG Export Plug-In . SVG Version: 6.00 Build 0)  -->
<svg version="1.1" id="Layer_1" xmlns="http://www.w3.org/2000/svg" xmlns:xlink="http://www.w3.org/1999/xlink" x="0px" y="0px"
	 viewBox="0 0 66.8 64.9" style="enable-background:new 0 0 66.8 64.9;" xml:space="preserve">
<style type="text/css">
	.st0{fill:#FFFFFF;}
</style>
<g>
	<g id="XMLID_1_">
		<g>
			<path class="st0" d="M47,52.2c0.5,0.2,0.5,0.7,0.4,1.1L46,56c-0.2,0.3-0.5,0.5-0.7,0.5c-0.1,0-0.3,0-0.4-0.1
				c-0.5-0.2-0.5-0.7-0.4-1.1l1.4-2.7C46.1,52.2,46.5,52.1,47,52.2z"/>
			<path class="st0" d="M41.1,61c0.4,0.2,0.5,0.6,0.4,1.1l-1.1,2c-0.2,0.3-0.4,0.5-0.7,0.5c-0.1,0-0.3,0-0.4-0.1
				c-0.5-0.2-0.6-0.7-0.4-1.1l1.1-2.1C40.2,60.9,40.8,60.8,41.1,61z"/>
			<path class="st0" d="M36.2,55.9c-0.1,0.3-0.4,0.5-0.7,0.5c-0.1,0-0.3,0-0.4-0.1c-0.5-0.2-0.5-0.7-0.4-1.1l1.4-2.7
				c0.2-0.4,0.7-0.5,1.1-0.4c0.5,0.2,0.5,0.7,0.4,1.1L36.2,55.9z"/>
			<path class="st0" d="M31.4,61c0.5,0.2,0.5,0.7,0.4,1.1l-1.1,2c-0.2,0.3-0.5,0.5-0.7,0.5c-0.1,0-0.3,0-0.4-0.1
				c-0.5-0.2-0.6-0.7-0.4-1.1l1.1-2.1C30.5,61,31,60.8,31.4,61z"/>
			<path class="st0" d="M27.9,53.3L26.5,56c-0.2,0.3-0.5,0.5-0.6,0.5s-0.3,0-0.4-0.1c-0.5-0.2-0.5-0.7-0.4-1.1l1.3-2.7
				c0.2-0.4,0.7-0.5,1.1-0.4S28,52.9,27.9,53.3z"/>
			<path class="st0" d="M20.6,61.3c0.2-0.5,0.7-0.5,1.1-0.4c0.5,0.2,0.6,0.7,0.4,1.1L21,64c-0.2,0.3-0.5,0.5-0.7,0.5
				s-0.3-0.1-0.4-0.1c-0.5-0.2-0.5-0.7-0.4-1.1L20.6,61.3z"/>
			<path class="st0" d="M16.7,52.5c0.2-0.4,0.7-0.5,1.1-0.4c0.5,0.2,0.6,0.7,0.4,1.1l-1.4,2.7c-0.2,0.3-0.5,0.5-0.7,0.5
				c-0.1,0-0.3-0.1-0.4-0.1c-0.4-0.2-0.5-0.7-0.4-1.1L16.7,52.5z"/>
			<path class="st0" d="M10.8,61.3c0.2-0.5,0.7-0.5,1.1-0.4c0.5,0.2,0.5,0.6,0.4,1.1l-1.1,2.1c-0.2,0.3-0.5,0.5-0.7,0.5
				c-0.1,0-0.3,0-0.4-0.1c-0.5-0.2-0.6-0.7-0.4-1.1L10.8,61.3z"/>
			<path class="st0" d="M9.7,18.4c0.7-10.1,9.1-18,19.3-18c7.1,0,13.7,3.9,17,10.3c0,0,0.1,0,0.2,0c0.1,0,0.3,0,0.4,0
				c0.5-0.1,0.8-0.1,1.2-0.1c1.9,0,3.8,0.4,5.6,0.9c0.1,0,0.1,0,0.1,0c0.5,0.2,1.1,0.5,1.6,0.6c0,0,0.1,0.1,0.2,0.1
				c0.5,0.3,0.9,0.5,1.4,0.7c0.2,0.1,0.3,0.1,0.4,0.2c0.4,0.2,0.8,0.5,1.2,0.7c0.1,0.1,0.3,0.2,0.4,0.3c0.4,0.3,0.7,0.6,1.1,0.8
				c0.1,0.1,0.1,0.1,0.2,0.2c0,0.1,0,0.1,0,0.1c3.9,3.4,6.4,8.4,6.4,14.1c0,10.3-8.3,18.6-18.5,18.5H15.6C7.3,47.8,0.4,41,0.4,32.6
				C0.4,26.4,4.1,20.8,9.7,18.4z M11.2,19.1c-0.1,0.4-0.3,0.6-0.6,0.7c-5.2,2-8.8,7.1-8.8,12.8c0,7.5,6.1,13.7,13.7,13.7h32.2
				c9.4,0,17-7.7,17.2-17c0-5.2-2.5-10-6.1-13.1c-7.1-5.9-17.7-5-23.9,2c-0.2,0.2-0.5,0.3-0.6,0.3s-0.3-0.1-0.5-0.2
				c-0.4-0.3-0.4-0.7-0.1-1.1c2.8-3.4,6.6-5.4,10.7-6.1c-3.2-5.6-8.9-9-15.3-9C19.4,2,11.6,9.5,11.2,19.1z"/>
		</g>
	</g>
</g>
</svg>
