<?xml version="1.0" encoding="utf-8"?>
<!-- Generator: Adobe Illustrator 21.1.0, SVG Export Plug-In . SVG Version: 6.00 Build 0)  -->
<svg version="1.1" id="Layer_1" xmlns="http://www.w3.org/2000/svg" xmlns:xlink="http://www.w3.org/1999/xlink" x="0px" y="0px"
	 viewBox="0 0 66.8 53.2" style="enable-background:new 0 0 66.8 53.2;" xml:space="preserve">
<style type="text/css">
	.st0{fill:#FFFFFF;}
</style>
<g>
	<path class="st0" d="M19.6,0.8c-0.3-0.3-0.7-0.5-1.2-0.4c-0.3,0-0.6,0.2-0.8,0.4C8.7,10.5,0.3,22,0.3,33c0,10.9,8.2,19.9,18.4,19.9
		S37,43.9,37,33C37,22,28.6,10.5,19.6,0.8z M18.6,51.4C9.4,51.4,1.9,43.2,1.9,33c0-9.8,7.9-21.3,16.8-31.2
		c8.9,9.9,16.8,21.4,16.8,31.2C35.4,43.2,27.8,51.4,18.6,51.4z"/>
</g>
<g>
	<path class="st0" d="M57.3,26.1h9.4v1.1h-9.4v9.8h-1.1v-9.8h-9v-1.1h9v-9.8h1.1V26.1z"/>
</g>
</svg>
