<?xml version="1.0" encoding="utf-8"?>
<!-- Generator: Adobe Illustrator 21.1.0, SVG Export Plug-In . SVG Version: 6.00 Build 0)  -->
<svg version="1.1" id="Layer_1" xmlns="http://www.w3.org/2000/svg" xmlns:xlink="http://www.w3.org/1999/xlink" x="0px" y="0px"
	 viewBox="0 0 38 53.2" style="enable-background:new 0 0 38 53.2;" xml:space="preserve">
<style type="text/css">
	.st0{fill:#FFFFFF;}
</style>
<g>
	<path class="st0" d="M20,0.8c-0.3-0.3-0.7-0.5-1.2-0.4c-0.3,0-0.6,0.2-0.8,0.4C9.1,10.5,0.6,22,0.6,33c0,10.9,8.2,19.9,18.4,19.9
		s18.3-9,18.3-19.9C37.3,22,29,10.5,20,0.8z M19,51.4C9.8,51.4,2.2,43.2,2.2,33c0-9.8,7.9-21.3,16.8-31.2
		c8.9,9.9,16.8,21.4,16.8,31.2C35.8,43.2,28.1,51.4,19,51.4z"/>
</g>
</svg>
