<?xml version="1.0" encoding="utf-8"?>
<!-- Generator: Adobe Illustrator 21.1.0, SVG Export Plug-In . SVG Version: 6.00 Build 0)  -->
<svg version="1.1" id="Layer_1" xmlns="http://www.w3.org/2000/svg" xmlns:xlink="http://www.w3.org/1999/xlink" x="0px" y="0px"
	 viewBox="0 0 66.8 53.2" style="enable-background:new 0 0 66.8 53.2;" xml:space="preserve">
<style type="text/css">
	.st0{fill:#A5948B;}
</style>
<g>
	<path class="st0" d="M42.1,42.1c0,5.1-4.1,9.1-9.1,9.1s-9.1-4.1-9.1-9.1c0-0.4-0.4-0.8-0.8-0.8s-0.8,0.4-0.8,0.8
		c0,5.9,4.8,10.7,10.7,10.7S43.8,48,43.8,42.1S39,31.4,33,31.4H8c-0.4,0-0.8,0.4-0.8,0.8C7.2,32.6,7.6,33,8,33h25
		C38,33,42.1,37.1,42.1,42.1z"/>
	<path class="st0" d="M1,24.6h57.6c3.5,0,6.3,2.8,6.3,6.3s-2.8,6.3-6.3,6.3s-6.3-2.8-6.3-6.3c0-0.4-0.4-0.8-0.8-0.8
		c-0.4,0-0.8,0.4-0.8,0.8c0,4.3,3.5,7.9,7.9,7.9s7.9-3.5,7.9-7.9S63.1,23,58.7,23H1c-0.4,0-0.8,0.4-0.8,0.8
		C0.3,24.2,0.6,24.6,1,24.6z"/>
	<path class="st0" d="M40.6,15.1H15c-0.4,0-0.8,0.4-0.8,0.8s0.4,0.8,0.8,0.8h25.5c4.5,0,8.2-3.6,8.2-8.2S45,0.4,40.5,0.4
		S32.3,4,32.3,8.6c0,0.4,0.4,0.8,0.8,0.8c0.4,0,0.8-0.4,0.8-0.8c0-3.6,3-6.6,6.6-6.6s6.6,3,6.6,6.6C47.2,12.1,44.2,15.1,40.6,15.1z"
		/>
</g>
</svg>
