<?xml version="1.0" encoding="utf-8"?>
<!-- Generator: Adobe Illustrator 21.1.0, SVG Export Plug-In . SVG Version: 6.00 Build 0)  -->
<svg version="1.1" id="Layer_1" xmlns="http://www.w3.org/2000/svg" xmlns:xlink="http://www.w3.org/1999/xlink" x="0px" y="0px"
	 viewBox="0 0 34.9 34.1" style="enable-background:new 0 0 34.9 34.1;" xml:space="preserve">
<style type="text/css">
	.st0{fill:#303030;}
</style>
<g>
	<path class="st0" d="M17,33.6c-0.1,0-0.1,0-0.1,0c-0.4,0-1.5-0.3-2-2l-2.3-7.4c-0.3-1-1.5-2.1-2.4-2.4l-7.3-2.4
		c-1.7-0.6-1.9-1.6-2-2.1c0-0.4,0.1-1.5,1.6-2.3L30.7,0.9c1.6-0.8,2.4-0.3,2.8,0.1c0.4,0.4,0.9,1.3,0.1,2.8L19.2,32
		C18.5,33.4,17.5,33.6,17,33.6z M17.5,31.2L17.5,31.2L17.5,31.2z M4.2,17.1l6.7,2.2c1.8,0.6,3.5,2.4,4.1,4.2l2.1,6.8L30.6,3.8
		L4.2,17.1z M3.3,16.8L3.3,16.8L3.3,16.8z"/>
</g>
</svg>
