<?xml version="1.0" encoding="utf-8"?>
<!-- Generator: Adobe Illustrator 21.1.0, SVG Export Plug-In . SVG Version: 6.00 Build 0)  -->
<svg version="1.1" id="Layer_1" xmlns="http://www.w3.org/2000/svg" xmlns:xlink="http://www.w3.org/1999/xlink" x="0px" y="0px"
	 viewBox="0 0 83.3 81.1" style="enable-background:new 0 0 83.3 81.1;" xml:space="preserve">
<style type="text/css">
	.st0{fill:#303030;}
</style>
<g>
	<g>
		<path class="st0" d="M6.2,41.8c1.8,0,3.6,0,5.4,0c2,0,2-3.2,0-3.2c-1.8,0-3.6,0-5.4,0C4.2,38.6,4.2,41.8,6.2,41.8L6.2,41.8z"/>
		<path class="st0" d="M41.7,79.2C20.4,79.2,3,61.8,3,40.5S20.4,1.9,41.7,1.9s38.6,17.3,38.6,38.6S63,79.2,41.7,79.2z M41.7,4.5
			c-19.9,0-36,16.2-36,36s16.2,36,36,36s36-16.2,36-36S61.5,4.5,41.7,4.5z"/>
		<path class="st0" d="M71.8,41.8c1.8,0,3.5,0,5.3,0c2,0,2-3.2,0-3.2c-1.8,0-3.5,0-5.3,0C69.7,38.6,69.7,41.8,71.8,41.8L71.8,41.8z"
			/>
		<path class="st0" d="M40.1,4.9c0,1.9,0,3.7,0,5.6c0,2,3.2,2,3.2,0c0-1.9,0-3.7,0-5.6C43.2,2.8,40.1,2.8,40.1,4.9L40.1,4.9z"/>
		<path class="st0" d="M40.1,70.6c0,1.8,0,3.5,0,5.3c0,2,3.2,2,3.2,0c0-1.8,0-3.5,0-5.3C43.2,68.6,40.1,68.6,40.1,70.6L40.1,70.6z"
			/>
	</g>
</g>
</svg>
