<?xml version="1.0" encoding="utf-8"?>
<!-- Generator: Adobe Illustrator 21.1.0, SVG Export Plug-In . SVG Version: 6.00 Build 0)  -->
<svg version="1.1" id="Layer_1" xmlns="http://www.w3.org/2000/svg" xmlns:xlink="http://www.w3.org/1999/xlink" x="0px" y="0px"
	 viewBox="0 0 56.2 51.1" style="enable-background:new 0 0 56.2 51.1;" xml:space="preserve">
<style type="text/css">
	.st0{fill:#FFFFFF;}
</style>
<g>
	<path class="st0" d="M24.7,46.6c0-1.9,1.5-3.4,3.4-3.4c1.9,0,3.4,1.5,3.4,3.4c0,1.9-1.5,3.4-3.4,3.4C26.2,49.9,24.7,48.4,24.7,46.6
		z M29.6,36.4c0,0.7-0.5,1-1.1,1h-0.8c-0.6,0-1.1-0.3-1.1-1L24.9,4.6c-0.1-1.9,1.5-3.4,3.1-3.4c1.7,0,3.2,1.5,3.1,3.4L29.6,36.4z"/>
	<g>
		<path class="st0" d="M28.1,5.7c-9.9,0.1-19.4,4-26.5,11c-0.8,0.8-0.9,2.1-0.1,2.9s2.1,0.9,2.9,0.1c0,0,0.1-0.1,0.1-0.1
			c6.3-6.3,14.7-9.8,23.6-9.8c8.8-0.2,17.3,3.2,23.6,9.5c0.8,0.8,2.1,0.9,2.9,0.1c0.8-0.8,0.9-2.1,0.1-2.9c0,0-0.1-0.1-0.1-0.1
			C47.5,9.4,38,5.5,28.1,5.7z"/>
		<path class="st0" d="M45.6,27.5c0.8-0.8,0.8-2.1,0-2.9c-4.6-4.7-11-7.2-17.5-7.1c-6.6,0.1-12.9,2.8-17.5,7.5
			c-0.8,0.8-0.7,2.1,0.1,2.9c0.8,0.7,2,0.7,2.8,0c3.9-3.9,9.1-6.2,14.6-6.3c5.5-0.1,10.8,2,14.6,5.9C43.5,28.3,44.8,28.3,45.6,27.5
			C45.6,27.5,45.6,27.5,45.6,27.5z"/>
		<path class="st0" d="M19.1,32.8c-0.9,0.7-1,2-0.3,2.9c0.7,0.9,2,1,2.9,0.3c0.1-0.1,0.2-0.2,0.3-0.3c3.4-3.4,9-3.6,12.2-0.4
			c0.8,0.8,2.1,0.7,2.9-0.1c0.7-0.8,0.7-2,0-2.8c-2.4-2.4-5.7-3.7-9.1-3.5C24.6,29.1,21.4,30.4,19.1,32.8z"/>
	</g>
</g>
</svg>
