<?xml version="1.0" encoding="utf-8"?>
<!-- Generator: Adobe Illustrator 21.1.0, SVG Export Plug-In . SVG Version: 6.00 Build 0)  -->
<svg version="1.1" id="Layer_1" xmlns="http://www.w3.org/2000/svg" xmlns:xlink="http://www.w3.org/1999/xlink" x="0px" y="0px"
	 viewBox="0 0 77 81.1" style="enable-background:new 0 0 77 81.1;" xml:space="preserve">
<style type="text/css">
	.st0{fill:#303030;}
	.st1{fill:#FCEDF2;}
</style>
<g>
	<g>
		<path class="st0" d="M38.7,77.5c-20.4,0-36.9-16.6-36.9-36.9S18.3,3.6,38.7,3.6s36.9,16.6,36.9,36.9S59,77.5,38.7,77.5z M38.7,6.6
			C20,6.6,4.7,21.8,4.7,40.5S20,74.5,38.7,74.5s33.9-15.2,33.9-33.9S57.4,6.6,38.7,6.6z"/>
		<path class="st0" d="M23.7,35c-3.9,0-7-3.1-7-7s3.1-7,7-7s7,3.1,7,7S27.5,35,23.7,35z M23.7,24c-2.2,0-4,1.8-4,4s1.8,4,4,4
			s4-1.8,4-4S25.9,24,23.7,24z"/>
		<path class="st0" d="M53.7,35c-3.9,0-7-3.1-7-7s3.1-7,7-7s7,3.1,7,7S57.5,35,53.7,35z M53.7,24c-2.2,0-4,1.8-4,4s1.8,4,4,4
			s4-1.8,4-4S55.9,24,53.7,24z"/>
		<path class="st0" d="M38.7,38.1c3.2,0,5.8,2.6,5.8,5.8c0,1.5-1.4,1.5-2.8,1.5c-1.6,0-4.3,0-6,0c-1.6,0-2.9,0-2.9-1.5
			C32.8,40.7,35.4,38.1,38.7,38.1z M41.1,42.4c-0.5-0.8-1.4-1.4-2.4-1.4s-1.9,0.5-2.4,1.4C37.7,42.4,39.6,42.4,41.1,42.4z"/>
	</g>
</g>
<circle class="st1" cx="60.1" cy="43.9" r="5.6"/>
<circle class="st1" cx="16.1" cy="43.9" r="5.6"/>
</svg>
