<?xml version="1.0" encoding="utf-8"?>
<!-- Generator: Adobe Illustrator 21.1.0, SVG Export Plug-In . SVG Version: 6.00 Build 0)  -->
<svg version="1.1" id="Layer_1" xmlns="http://www.w3.org/2000/svg" xmlns:xlink="http://www.w3.org/1999/xlink" x="0px" y="0px"
	 viewBox="0 0 97.8 81.1" style="enable-background:new 0 0 97.8 81.1;" xml:space="preserve">
<style type="text/css">
	.st0{fill:#303030;}
</style>
<g>
	<path class="st0" d="M22.5,77.5C16.3,53.6,10.1,29.7,4,5.9C3.6,4.3,1.1,5,1.5,6.5c6.2,23.9,12.4,47.7,18.6,71.6
		C20.5,79.7,22.9,79,22.5,77.5L22.5,77.5z"/>
	<g>
		<g>
			<path class="st0" d="M54.7,75.4c-20.2,0-36.7-16.4-36.7-36.7S34.5,2,54.7,2s36.7,16.4,36.7,36.7S75,75.4,54.7,75.4z M54.7,4.5
				c-18.8,0-34.2,15.3-34.2,34.2s15.3,34.2,34.2,34.2s34.2-15.3,34.2-34.2S73.6,4.5,54.7,4.5z"/>
			<path class="st0" d="M39.7,32.9c-3.7,0-6.7-3-6.7-6.7s3-6.7,6.7-6.7c3.7,0,6.7,3,6.7,6.7S43.5,32.9,39.7,32.9z M39.7,21.9
				c-2.3,0-4.2,1.9-4.2,4.2s1.9,4.2,4.2,4.2c2.3,0,4.2-1.9,4.2-4.2S42.1,21.9,39.7,21.9z"/>
			<path class="st0" d="M69.7,32.9c-3.7,0-6.7-3-6.7-6.7s3-6.7,6.7-6.7c3.7,0,6.7,3,6.7,6.7S73.5,32.9,69.7,32.9z M69.7,21.9
				c-2.3,0-4.2,1.9-4.2,4.2s1.9,4.2,4.2,4.2c2.3,0,4.2-1.9,4.2-4.2S72.1,21.9,69.7,21.9z"/>
			<path class="st0" d="M54.7,43.3c-3.1,0-5.6-2.5-5.6-5.6c0-1.3,1.1-1.3,2.5-1.3c1.6,0,4.3,0,6,0c1.6,0,2.6,0,2.6,1.3
				C60.3,40.8,57.8,43.3,54.7,43.3z M51.9,39c0.5,1.1,1.6,1.8,2.8,1.8s2.3-0.8,2.8-1.8C56,39,53.5,39,51.9,39z"/>
		</g>
		<g>
			<path class="st0" d="M78.3,75.3c6.6-3.3,23.5-13,16.1-22.1c-3.9-4.9-11.3-7.1-17-9c-4.8-1.6-9.6-2.9-14.6-3.8
				c-1.6-0.3-2.2,2.1-0.7,2.4c9.1,1.8,19.5,4.2,27.2,9.4c11.3,7.6-5.5,17.5-12.4,21C75.6,73.8,76.9,76,78.3,75.3L78.3,75.3z"/>
		</g>
	</g>
</g>
</svg>
