<?xml version="1.0" encoding="utf-8"?>
<!-- Generator: Adobe Illustrator 21.1.0, SVG Export Plug-In . SVG Version: 6.00 Build 0)  -->
<svg version="1.1" id="Layer_1" xmlns="http://www.w3.org/2000/svg" xmlns:xlink="http://www.w3.org/1999/xlink" x="0px" y="0px"
	 viewBox="0 0 100.2 81.1" style="enable-background:new 0 0 100.2 81.1;" xml:space="preserve">
<style type="text/css">
	.st0{fill:#303030;}
</style>
<g>
	<path class="st0" d="M61.3,77c12.2-9.2,25.9-19.2,34.8-31.7c1.5-2.1,3.4-4.9,3-7.6c-0.4-3.5-4.3-6.5-6.7-8.6
		c-4.4-3.6-9.2-6.6-14.1-9.4c-2.4-1.4-5.3-3.5-8-4.3c-3.2-0.9-7.4-0.2-10.7-0.2c-4,0-8,0-12,0c-1.6,0-1.6,2.5,0,2.5
		c6.8,0,13.5,0.1,20.3,0c0.6,0,2.3,0.2,1.3-0.1c1,0.3,2,1,2.9,1.5c3.9,2.1,7.8,4.3,11.5,6.7c4.2,2.7,9.3,5.9,12.1,10.2
		c1.8,2.8,0.2,5.2-1.5,7.7c-5.1,7.3-12.3,13.3-19,19C70.2,66.9,65.2,71,60,74.9C58.8,75.8,60,78,61.3,77L61.3,77z"/>
	<path class="st0" d="M37.7,77.1c-20.2,0-36.7-16.4-36.7-36.7c0-20.2,16.4-36.7,36.7-36.7s36.7,16.4,36.7,36.7
		C74.4,60.7,58,77.1,37.7,77.1z M37.7,6.3C18.9,6.3,3.6,21.6,3.6,40.5s15.3,34.2,34.2,34.2s34.2-15.3,34.2-34.2S56.6,6.3,37.7,6.3z"
		/>
	<path class="st0" d="M22.7,34.7c-3.7,0-6.7-3-6.7-6.7c0-3.7,3-6.7,6.7-6.7s6.7,3,6.7,6.7C29.5,31.6,26.5,34.7,22.7,34.7z
		 M22.7,23.7c-2.3,0-4.2,1.9-4.2,4.2c0,2.3,1.9,4.2,4.2,4.2s4.2-1.9,4.2-4.2C27,25.6,25.1,23.7,22.7,23.7z"/>
	<path class="st0" d="M52.7,34.7c-3.7,0-6.7-3-6.7-6.7c0-3.7,3-6.7,6.7-6.7s6.7,3,6.7,6.7C59.5,31.6,56.5,34.7,52.7,34.7z
		 M52.7,23.7c-2.3,0-4.2,1.9-4.2,4.2c0,2.3,1.9,4.2,4.2,4.2s4.2-1.9,4.2-4.2C57,25.6,55.1,23.7,52.7,23.7z"/>
	<path class="st0" d="M37.7,45.1c-3.1,0-5.6-2.5-5.6-5.6c0-1.3,1.1-1.3,2.5-1.3c1.6,0,4.3,0,6,0c1.6,0,2.6,0,2.6,1.3
		C43.3,42.6,40.8,45.1,37.7,45.1z M34.9,40.7c0.5,1.1,1.6,1.8,2.8,1.8s2.3-0.8,2.8-1.8C39,40.7,36.5,40.7,34.9,40.7z"/>
</g>
</svg>
