<?xml version="1.0" encoding="utf-8"?>
<!-- Generator: Adobe Illustrator 21.1.0, SVG Export Plug-In . SVG Version: 6.00 Build 0)  -->
<svg version="1.1" id="Layer_1" xmlns="http://www.w3.org/2000/svg" xmlns:xlink="http://www.w3.org/1999/xlink" x="0px" y="0px"
	 viewBox="0 0 56.3 81.1" style="enable-background:new 0 0 56.3 81.1;" xml:space="preserve">
<style type="text/css">
	.st0{fill:#303030;}
</style>
<g>
	<g id="XMLID_1_">
		<g>
			<path class="st0" d="M28,4.1c5.7,0,24.1,1.8,24.1,24.4c0,17.5-19.6,43.5-23.9,48C23.9,72,4.2,46,4.2,28.3c0,0,0-0.1,0-0.1
				c-0.1-3.8,1.3-11.8,6.9-17.6C15.3,6.3,21,4.1,28,4.1z M40.2,28.2c0-6.6-5.4-12-12-12s-12,5.4-12,12s5.4,12,12,12
				S40.2,34.8,40.2,28.2z"/>
			<path class="st0" d="M16.2,28.2c0-6.6,5.4-12,12-12s12,5.4,12,12s-5.4,12-12,12S16.2,34.8,16.2,28.2z M28.2,18.8
				c-5.2,0-9.5,4.2-9.5,9.5s4.2,9.5,9.5,9.5c5.2,0,9.5-4.2,9.5-9.5S33.4,18.8,28.2,18.8z"/>
			<path class="st0" d="M28,4.1c-7,0-12.7,2.2-16.9,6.5c-5.6,5.8-7,13.8-6.9,17.6c0,0,0,0.1,0,0.1c0,17.7,19.7,43.7,24,48.2
				c4.3-4.5,23.9-30.5,23.9-48C52.1,5.9,33.7,4.1,28,4.1z M9.3,8.9C14,4.1,20.3,1.6,28,1.6c19.6,0,26.6,13.9,26.6,26.9
				c0,10.7-6.8,23.8-12.4,32.9c-3.6,5.8-7,10.3-8.7,12.5c-4.3,5.5-4.8,5.5-5.3,5.5c-0.6,0-1-0.3-1.4-0.8c-3.1-3.2-25.2-30.4-25-50.3
				C1.6,23,3.5,14.9,9.3,8.9z"/>
		</g>
		<g>
		</g>
	</g>
</g>
</svg>
