<?xml version="1.0" encoding="utf-8"?>
<!-- Generator: Adobe Illustrator 21.1.0, SVG Export Plug-In . SVG Version: 6.00 Build 0)  -->
<svg version="1.1" id="Layer_1" xmlns="http://www.w3.org/2000/svg" xmlns:xlink="http://www.w3.org/1999/xlink" x="0px" y="0px"
	 viewBox="0 0 112.2 50.5" style="enable-background:new 0 0 112.2 50.5;" xml:space="preserve">
<style type="text/css">
	.st0{fill:#FFFFFF;}
</style>
<g>
	<g>
		<path class="st0" d="M13.6,4.7c0,1.5-1,2.7-2.9,2.7H9.1v3.1c0,0.1-0.1,0.2-0.2,0.2H8.4c-0.1,0-0.2-0.1-0.2-0.2V2.2
			C8.2,2.1,8.2,2,8.4,2h2.3C12.5,2,13.6,3.1,13.6,4.7z M12.6,4.7c0-1.3-0.9-1.8-2-1.8H9.1v3.6h1.5C11.7,6.4,12.6,6,12.6,4.7z"/>
		<path class="st0" d="M17.3,6.3c0-2.5,2-4.5,4.4-4.5c2.4,0,4.4,2,4.4,4.5c0,2.5-2,4.4-4.4,4.4C19.2,10.8,17.3,8.8,17.3,6.3z
			 M25.1,6.3c0-2-1.5-3.5-3.4-3.5c-1.9,0-3.5,1.5-3.5,3.5c0,2,1.5,3.5,3.5,3.5C23.6,9.8,25.1,8.3,25.1,6.3z"/>
		<path class="st0" d="M41.6,2.2l-2.7,8.3c0,0.1-0.1,0.1-0.2,0.1h-0.7c-0.1,0-0.2,0-0.2-0.1l-2.4-7l-2.4,7c0,0.1-0.1,0.1-0.2,0.1
			h-0.7c-0.1,0-0.2,0-0.2-0.1l-2.7-8.3c-0.1-0.1,0-0.2,0.1-0.2H30c0.1,0,0.2,0,0.2,0.1l2.3,7.3l2.5-7.3C35,2.1,35,2,35,2
			c0,0,0.1,0,0.1,0h0.6c0,0,0.1,0,0.1,0c0,0,0.1,0.1,0.1,0.1l2.5,7.3l2.3-7.3C40.7,2,40.8,2,40.9,2h0.6C41.6,2,41.7,2.1,41.6,2.2z"
			/>
		<path class="st0" d="M50.1,9.9v0.5c0,0.1-0.1,0.2-0.2,0.2h-4.3c-0.1,0-0.2-0.1-0.2-0.2V2.2c0-0.1,0.1-0.2,0.2-0.2H50
			c0.1,0,0.2,0.1,0.2,0.2v0.5c0,0.1-0.1,0.2-0.2,0.2h-3.5v2.7h3.3c0.1,0,0.2,0.1,0.2,0.2v0.5c0,0.1-0.1,0.2-0.2,0.2h-3.3v3.2H50
			C50.1,9.7,50.1,9.8,50.1,9.9z"/>
		<path class="st0" d="M59.6,10.6H59c-0.1,0-0.2,0-0.2-0.1l-2.1-3.2h-1.4v3.1c0,0.1-0.1,0.2-0.2,0.2h-0.6c-0.1,0-0.2-0.1-0.2-0.2
			V2.2c0-0.1,0.1-0.2,0.2-0.2h2.3c1.9,0,2.9,1.1,2.9,2.7C59.7,6,59,7,57.6,7.3l2.1,3.1C59.9,10.5,59.8,10.6,59.6,10.6z M55.3,6.4
			h1.5c1.1,0,2-0.5,2-1.8c0-1.3-0.9-1.8-2-1.8h-1.5V6.4z"/>
		<path class="st0" d="M68.5,9.9v0.5c0,0.1-0.1,0.2-0.2,0.2h-4.3c-0.1,0-0.2-0.1-0.2-0.2V2.2C63.9,2.1,64,2,64.1,2h4.2
			c0.1,0,0.2,0.1,0.2,0.2v0.5c0,0.1-0.1,0.2-0.2,0.2h-3.5v2.7h3.3c0.1,0,0.2,0.1,0.2,0.2v0.5c0,0.1-0.1,0.2-0.2,0.2h-3.3v3.2h3.5
			C68.4,9.7,68.5,9.8,68.5,9.9z"/>
		<path class="st0" d="M79.3,6.3c0,2.4-1.5,4.3-4.5,4.3h-1.9c-0.1,0-0.2-0.1-0.2-0.2V2.2c0-0.1,0.1-0.2,0.2-0.2h1.9
			C77.8,2,79.3,3.9,79.3,6.3z M78.3,6.3c0-2.1-1.2-3.4-3.5-3.4h-1.2v6.9h1.2C77.2,9.7,78.3,8.4,78.3,6.3z"/>
		<path class="st0" d="M95.1,8.1c0,1.6-1,2.5-3.1,2.5h-2.6c-0.1,0-0.2-0.1-0.2-0.2V2.2c0-0.1,0.1-0.2,0.2-0.2h2.6
			C93.9,2,94.6,3,94.6,4c0,0.9-0.4,1.6-1.3,1.9C94.4,6.2,95.1,7,95.1,8.1z M92,2.9h-1.8v2.7H92c1,0,1.7-0.5,1.7-1.5
			C93.6,3.3,93,2.9,92,2.9z M94.1,8.1c0-1-0.6-1.6-2.1-1.6h-1.8v3.3H92C93.4,9.7,94.1,9.2,94.1,8.1z"/>
		<path class="st0" d="M104,2.2l-2.6,4.2v4c0,0.1-0.1,0.2-0.2,0.2h-0.6c-0.1,0-0.2-0.1-0.2-0.2v-4l-2.6-4.2c-0.1-0.1,0-0.2,0.1-0.2
			h0.6c0.1,0,0.2,0,0.2,0.1l2.1,3.4l2.1-3.4c0-0.1,0.1-0.1,0.2-0.1h0.6C104,2,104.1,2.1,104,2.2z"/>
	</g>
	<g>
		<polygon class="st0" points="38.4,26.9 31.2,26.9 31.2,23.1 50.2,23.1 50.2,26.9 43,26.9 43,48.2 38.4,48.2 		"/>
		<path class="st0" d="M47.8,35.9c0-2.5,0-4.2-0.1-5.8h3.9l0.2,3.4h0.1c0.9-2.5,3-3.8,5-3.8c0.4,0,0.7,0,1.1,0.1v4.3
			c-0.4-0.1-0.8-0.1-1.4-0.1c-2.2,0-3.7,1.4-4.1,3.5c-0.1,0.4-0.1,0.9-0.1,1.4v9.4h-4.6V35.9z"/>
		<path class="st0" d="M63.4,39.2c0,3.5,1.8,6.1,4.5,6.1c2.6,0,4.4-2.5,4.4-6.2c0-2.8-1.3-6.1-4.4-6.1C64.7,33,63.4,36.1,63.4,39.2
			 M77,39c0,6.7-4.7,9.6-9.3,9.6c-5.1,0-9.1-3.5-9.1-9.3c0-6,3.9-9.6,9.4-9.6C73.4,29.7,77,33.5,77,39"/>
		<path class="st0" d="M81.4,30.1l2.9,9.2c0.5,1.6,0.9,3.1,1.2,4.5h0.1c0.3-1.5,0.7-2.9,1.2-4.5l2.9-9.2h4.8l-6.9,18.1h-4.5
			l-6.7-18.1H81.4z"/>
		<path class="st0" d="M106.6,37.2c0-1.7-0.7-4.4-3.8-4.4c-2.8,0-4,2.6-4.2,4.4H106.6z M98.7,40.4c0.1,3.3,2.6,4.7,5.6,4.7
			c2.1,0,3.6-0.3,5-0.8l0.7,3.1c-1.6,0.7-3.7,1.2-6.3,1.2c-5.9,0-9.3-3.6-9.3-9.2c0-5,3.1-9.8,8.9-9.8c5.9,0,7.8,4.8,7.8,8.8
			c0,0.9-0.1,1.5-0.1,1.9H98.7z"/>
		<g>
			<path class="st0" d="M26.5,25.3c0-0.8-0.3-1.3-0.7-1.6C25.5,23.3,25,23,24.2,23c0,0,0,0,0,0H3.6c0,0,0,0,0,0
				c-0.8,0-1.3,0.3-1.6,0.6c-0.4,0.3-0.6,0.9-0.7,1.6c0,0,0,0,0,0v9.5c0,0,0,0,0,0h5.2c0.5,0,0.8,0.4,0.8,0.8v8.6l0.1,0v0.1l3.3-1.3
				l0.3-0.1V32.1h0H6c-0.5,0-0.8-0.4-0.8-0.8v-4.6c0-0.5,0.4-0.8,0.8-0.8h15.7c0.5,0,0.8,0.4,0.8,0.8v4.6c0,0.5-0.4,0.8-0.8,0.8
				h-4.9h0v10.7l0.3,0.1l3.3,1.3v-0.1l0.1,0v-8.6c0-0.5,0.4-0.8,0.8-0.8h5.2c0,0,0,0,0,0L26.5,25.3C26.5,25.3,26.5,25.3,26.5,25.3z"
				/>
			<path class="st0" d="M22.1,36.5L22.1,36.5l-0.1,9c0,0.3-0.1,0.5-0.4,0.7c-0.2,0.2-0.5,0.2-0.8,0.1L17.8,45l-2.1-0.8
				c-0.3-0.1-0.5-0.4-0.5-0.8V31.3c0-0.5,0.4-0.8,0.8-0.8h4.9H21v-2.9h-0.1H6.9H6.8v2.9h0.1h4.9c0.5,0,0.8,0.4,0.8,0.8v12.1
				c0,0.3-0.2,0.6-0.5,0.8L10,45l-3.1,1.2c-0.3,0.1-0.5,0.1-0.8-0.1c-0.2-0.2-0.4-0.4-0.4-0.7v-9H5.7H1.3c0,0,0,0,0,0v9.5
				c0,0,0,2.3,2.2,2.3h0.4h20h0.4c2.2,0,2.2-2.3,2.2-2.3v-9.5c0,0,0,0,0,0H22.1z"/>
		</g>
	</g>
</g>
</svg>
