<?xml version="1.0" encoding="utf-8"?>
<!-- Generator: Adobe Illustrator 21.1.0, SVG Export Plug-In . SVG Version: 6.00 Build 0)  -->
<svg version="1.1" id="Layer_1" xmlns="http://www.w3.org/2000/svg" xmlns:xlink="http://www.w3.org/1999/xlink" x="0px" y="0px"
	 viewBox="0 0 44.2 23.1" style="enable-background:new 0 0 44.2 23.1;" xml:space="preserve">
<style type="text/css">
	.st0{fill:#303030;}
</style>
<g>
	<path class="st0" d="M15.2,2.3v11.2c0,5.1-2.9,7.7-6.8,7.7c-3.9,0-6.8-2.6-6.8-7.7V2.3c0-0.2,0.2-0.4,0.4-0.4h1.3
		c0.2,0,0.4,0.2,0.4,0.4v11.2c0,3.9,2,5.7,4.7,5.7c2.7,0,4.7-1.8,4.7-5.7V2.3c0-0.2,0.2-0.4,0.4-0.4h1.3C15,1.9,15.2,2,15.2,2.3z"/>
	<path class="st0" d="M17.3,19.5c0.2-0.7,0.9-1.1,1.6-0.9c0.7,0.2,1.1,0.9,0.9,1.6c-0.2,0.7-0.9,1.1-1.6,0.9
		C17.5,21,17.1,20.2,17.3,19.5z M20.4,15.5c-0.1,0.3-0.3,0.3-0.5,0.3l-0.3-0.1c-0.2-0.1-0.4-0.2-0.3-0.5l2.6-12.3
		c0.2-0.7,0.9-1.1,1.5-1c0.6,0.2,1.1,0.9,0.9,1.6L20.4,15.5z"/>
	<path class="st0" d="M42.7,11.5c0,5.4-3.5,9.7-10.1,9.7h-5.4c-0.2,0-0.4-0.2-0.4-0.4V2.3c0-0.2,0.2-0.4,0.4-0.4h5.4
		C39.2,1.9,42.7,6.2,42.7,11.5z M38.9,11.5c0-4-2.1-6.3-6.3-6.3h-2.1v12.7h2.1C36.8,17.9,38.9,15.5,38.9,11.5z"/>
</g>
</svg>
