<?xml version="1.0" encoding="utf-8"?>
<!-- Generator: Adobe Illustrator 21.1.0, SVG Export Plug-In . SVG Version: 6.00 Build 0)  -->
<svg version="1.1" id="Layer_1" xmlns="http://www.w3.org/2000/svg" xmlns:xlink="http://www.w3.org/1999/xlink" x="0px" y="0px"
	 viewBox="0 0 195 53.5" style="enable-background:new 0 0 195 53.5;" xml:space="preserve">
<style type="text/css">
	.st0{fill:#FFFFFF;}
</style>
<g>
	<path class="st0" d="M16.3,2.1v12c0,5.4-3.1,8.2-7.3,8.2c-4.2,0-7.3-2.8-7.3-8.2v-12c0-0.3,0.2-0.4,0.4-0.4h1.4
		C3.8,1.7,4,1.9,4,2.1v12c0,4.2,2.1,6.1,5,6.1c2.9,0,5-1.9,5-6.1v-12c0-0.3,0.2-0.4,0.4-0.4h1.4C16.1,1.7,16.3,1.9,16.3,2.1z"/>
	<path class="st0" d="M37.2,2.1v19.4c0,0.2-0.1,0.4-0.3,0.4h-1.9c-0.2,0-0.4-0.1-0.5-0.3L24.5,5v16.6c0,0.3-0.2,0.4-0.4,0.4h-1.4
		c-0.3,0-0.4-0.2-0.4-0.4V2.1c0-0.2,0.1-0.4,0.3-0.4h1.9c0.2,0,0.4,0.1,0.5,0.3l9.9,16.7V2.1c0-0.3,0.2-0.4,0.4-0.4h1.4
		C37,1.7,37.2,1.9,37.2,2.1z"/>
	<path class="st0" d="M54.2,20.3v1.2c0,0.3-0.2,0.4-0.4,0.4h-10c-0.3,0-0.4-0.2-0.4-0.4V2.1c0-0.3,0.2-0.4,0.4-0.4h10
		c0.3,0,0.4,0.2,0.4,0.4v1.2c0,0.3-0.2,0.4-0.4,0.4h-8.1v6.4h7.6c0.3,0,0.4,0.2,0.4,0.4v1.2c0,0.3-0.2,0.4-0.4,0.4h-7.6v7.6h8.2
		C54,19.9,54.2,20.1,54.2,20.3z"/>
	<path class="st0" d="M73.6,22h-1.5c-0.2,0-0.4-0.1-0.5-0.3l-5.1-8.1l-5.1,8.1C61.2,21.9,61,22,60.8,22h-1.5c-0.3,0-0.5-0.2-0.3-0.5
		l6.2-9.8l-5.9-9.4c-0.2-0.3-0.1-0.5,0.3-0.5h1.5c0.2,0,0.4,0.1,0.5,0.3l4.8,7.7L71.3,2c0.1-0.2,0.3-0.3,0.5-0.3h1.5
		c0.3,0,0.5,0.2,0.3,0.5l-5.9,9.4l6.2,9.8C74,21.8,73.9,22,73.6,22z"/>
	<path class="st0" d="M92,8c0,3.6-2.4,6.3-6.8,6.3h-3.6v7.3c0,0.3-0.2,0.4-0.4,0.4h-1.4c-0.3,0-0.4-0.2-0.4-0.4V2.1
		c0-0.3,0.2-0.4,0.4-0.4h5.4C89.6,1.7,92,4.4,92,8z M89.8,8c0-3-2.1-4.2-4.7-4.2h-3.5v8.4h3.5C87.7,12.2,89.8,11,89.8,8z"/>
	<path class="st0" d="M108.1,20.3v1.2c0,0.3-0.2,0.4-0.4,0.4h-10c-0.3,0-0.4-0.2-0.4-0.4V2.1c0-0.3,0.2-0.4,0.4-0.4h10
		c0.3,0,0.4,0.2,0.4,0.4v1.2c0,0.3-0.2,0.4-0.4,0.4h-8.1v6.4h7.6c0.3,0,0.4,0.2,0.4,0.4v1.2c0,0.3-0.2,0.4-0.4,0.4h-7.6v7.6h8.2
		C107.9,19.9,108.1,20.1,108.1,20.3z"/>
	<path class="st0" d="M129.7,19c0.2,0.2,0.2,0.4,0,0.6c-1.9,1.6-4.1,2.8-6.8,2.8c-5.7,0-10.2-4.6-10.2-10.4
		c0-5.8,4.5-10.5,10.2-10.5c2.7,0,5,1.2,6.8,2.8c0.2,0.2,0.2,0.4,0,0.6l-0.9,0.9c-0.2,0.2-0.4,0.2-0.6,0c-1.5-1.2-3.2-2.1-5.4-2.1
		c-4.3,0-7.9,3.5-7.9,8.3c0,4.7,3.6,8.2,7.9,8.2c2.1,0,3.9-0.8,5.4-2.1c0.2-0.2,0.4-0.2,0.6,0L129.7,19z"/>
	<path class="st0" d="M146.7,2.1v1.2c0,0.3-0.2,0.4-0.4,0.4h-4.6v17.7c0,0.3-0.2,0.4-0.4,0.4h-1.4c-0.3,0-0.4-0.2-0.4-0.4V3.8h-4.6
		c-0.3,0-0.4-0.2-0.4-0.4V2.1c0-0.3,0.2-0.4,0.4-0.4h11.5C146.5,1.7,146.7,1.9,146.7,2.1z"/>
	<path class="st0" d="M163,20.3v1.2c0,0.3-0.2,0.4-0.4,0.4h-10c-0.3,0-0.4-0.2-0.4-0.4V2.1c0-0.3,0.2-0.4,0.4-0.4h10
		c0.3,0,0.4,0.2,0.4,0.4v1.2c0,0.3-0.2,0.4-0.4,0.4h-8.1v6.4h7.6c0.3,0,0.4,0.2,0.4,0.4v1.2c0,0.3-0.2,0.4-0.4,0.4h-7.6v7.6h8.2
		C162.9,19.9,163,20.1,163,20.3z"/>
	<path class="st0" d="M184.4,11.8c0,5.7-3.6,10.1-10.6,10.1h-4.5c-0.3,0-0.4-0.2-0.4-0.4V2.1c0-0.3,0.2-0.4,0.4-0.4h4.5
		C180.9,1.7,184.4,6.1,184.4,11.8z M182.1,11.8c0-5-2.8-8-8.3-8h-2.7v16.1h2.7C179.4,19.9,182.1,16.8,182.1,11.8z"/>
	<path class="st0" d="M189.8,21c0-0.8,0.6-1.4,1.4-1.4c0.8,0,1.4,0.6,1.4,1.4c0,0.8-0.6,1.4-1.4,1.4C190.4,22.4,189.8,21.8,189.8,21
		z M191.8,16c0,0.3-0.2,0.4-0.5,0.4H191c-0.3,0-0.5-0.1-0.5-0.4l-0.7-13.2c0-0.8,0.6-1.4,1.3-1.4c0.7,0,1.3,0.6,1.3,1.4L191.8,16z"
		/>
	<path class="st0" d="M18.7,41.5c0,5.6-3.7,10.1-10.6,10.1H2.4c-0.3,0-0.4-0.2-0.4-0.4V31.8c0-0.3,0.2-0.4,0.4-0.4h5.7
		C15.1,31.4,18.7,35.9,18.7,41.5z M14.7,41.5c0-4.2-2.2-6.6-6.6-6.6H5.9v13.3h2.2C12.5,48.1,14.7,45.7,14.7,41.5z"/>
	<path class="st0" d="M23.9,31.4H27c0.3,0,0.4,0.2,0.4,0.4v19.4c0,0.3-0.2,0.4-0.4,0.4h-3.1c-0.3,0-0.4-0.2-0.4-0.4V31.8
		C23.5,31.5,23.7,31.4,23.9,31.4z"/>
	<path class="st0" d="M46.2,46c0,3.8-3.5,6-7,6c-3,0-5.6-1.5-6.8-3.2c-0.1-0.2-0.1-0.4,0-0.6l1.7-1.9c0.2-0.2,0.4-0.2,0.6,0
		c1.4,1.2,2.8,2,4.5,2c1.7,0,3.1-0.9,3.1-2.4c0-3.6-9.5-2.5-9.5-9.1c0-3.5,3-5.7,6.3-5.7c2.5,0,4.6,1.1,6.2,2.7
		c0.2,0.2,0.2,0.4,0,0.6l-1.6,1.9c-0.2,0.2-0.4,0.3-0.6,0.1c-1.4-1.1-2.4-1.6-3.9-1.6c-1.6,0-2.6,0.9-2.6,2.1
		C36.7,40.5,46.2,39,46.2,46z"/>
	<path class="st0" d="M67.9,48.5c0.2,0.2,0.2,0.4,0,0.6c-1.8,1.8-4.3,2.9-7.1,2.9c-5.8,0-10.4-4.6-10.4-10.4
		c0-5.8,4.6-10.5,10.4-10.5c2.8,0,5.3,1.1,7.1,2.9c0.2,0.2,0.2,0.4,0,0.6L66,36.7c-0.2,0.2-0.4,0.2-0.6,0c-1.2-1.1-2.7-1.7-4.6-1.7
		c-3.5,0-6.3,2.8-6.3,6.6c0,3.7,2.8,6.5,6.3,6.5c1.9,0,3.4-0.7,4.6-1.7c0.2-0.2,0.4-0.2,0.6,0L67.9,48.5z"/>
	<path class="st0" d="M71.4,41.6c0-5.8,4.7-10.5,10.4-10.5s10.4,4.6,10.4,10.5c0,5.8-4.7,10.4-10.4,10.4S71.4,47.4,71.4,41.6z
		 M88.2,41.6c0-3.7-2.8-6.6-6.4-6.6c-3.6,0-6.4,2.8-6.4,6.6c0,3.7,2.8,6.5,6.4,6.5C85.5,48.1,88.2,45.3,88.2,41.6z"/>
	<path class="st0" d="M109.5,31.4h3.2c0.3,0,0.5,0.2,0.3,0.5l-7,19.4c-0.1,0.2-0.3,0.3-0.6,0.3h-2.9c-0.2,0-0.4-0.1-0.5-0.3l-7-19.4
		c-0.1-0.3,0-0.5,0.3-0.5h3.2c0.2,0,0.4,0.1,0.5,0.3l5,14.8l5-14.8C109.1,31.5,109.3,31.4,109.5,31.4z"/>
	<path class="st0" d="M129.1,48.6v2.6c0,0.3-0.2,0.4-0.4,0.4H118c-0.3,0-0.4-0.2-0.4-0.4V31.8c0-0.3,0.2-0.4,0.4-0.4h10.7
		c0.3,0,0.4,0.2,0.4,0.4v2.6c0,0.3-0.2,0.4-0.4,0.4h-7.1v4.6h6.7c0.3,0,0.4,0.2,0.4,0.4v2.6c0,0.3-0.2,0.4-0.4,0.4h-6.7v5.2h7.2
		C128.9,48.1,129.1,48.3,129.1,48.6z"/>
	<path class="st0" d="M148.3,51.6H145c-0.2,0-0.4-0.1-0.5-0.3l-4.4-6.7h-1.7v6.6c0,0.3-0.2,0.4-0.4,0.4h-3.1c-0.3,0-0.4-0.2-0.4-0.4
		V31.8c0-0.3,0.2-0.4,0.4-0.4h6c4.8,0,7.4,2.8,7.4,6.6c0,2.9-1.5,5.2-4.3,6.2l4.6,7C148.8,51.4,148.7,51.6,148.3,51.6z M138.4,41.1
		h2.4c1.9,0,3.6-0.7,3.6-3.1c0-2.3-1.8-3.1-3.6-3.1h-2.4V41.1z"/>
	<path class="st0" d="M154,31.4h3.1c0.3,0,0.4,0.2,0.4,0.4v19.4c0,0.3-0.2,0.4-0.4,0.4H154c-0.3,0-0.4-0.2-0.4-0.4V31.8
		C153.6,31.5,153.8,31.4,154,31.4z"/>
	<path class="st0" d="M174.6,48.6v2.6c0,0.3-0.2,0.4-0.4,0.4h-10.7c-0.3,0-0.4-0.2-0.4-0.4V31.8c0-0.3,0.2-0.4,0.4-0.4h10.7
		c0.3,0,0.4,0.2,0.4,0.4v2.6c0,0.3-0.2,0.4-0.4,0.4H167v4.6h6.7c0.3,0,0.4,0.2,0.4,0.4v2.6c0,0.3-0.2,0.4-0.4,0.4H167v5.2h7.2
		C174.5,48.1,174.6,48.3,174.6,48.6z"/>
	<path class="st0" d="M193.2,46c0,3.8-3.5,6-7,6c-3,0-5.6-1.5-6.8-3.2c-0.1-0.2-0.1-0.4,0-0.6l1.7-1.9c0.2-0.2,0.4-0.2,0.6,0
		c1.4,1.2,2.8,2,4.5,2c1.7,0,3.1-0.9,3.1-2.4c0-3.6-9.5-2.5-9.5-9.1c0-3.5,3-5.7,6.3-5.7c2.5,0,4.6,1.1,6.2,2.7
		c0.2,0.2,0.2,0.4,0,0.6l-1.6,1.9c-0.2,0.2-0.4,0.3-0.6,0.1c-1.4-1.1-2.4-1.6-3.9-1.6c-1.6,0-2.6,0.9-2.6,2.1
		C183.8,40.5,193.2,39,193.2,46z"/>
</g>
</svg>
